<svg width="50" height="50" viewBox="0 0 50 50" fill="none" xmlns="http://www.w3.org/2000/svg">
<path d="M25.1333 11C17.6387 11 13 16.572 13 21.7333C13 25.1633 14.568 28.8827 17.2 31.72V36.6667C17.2 36.7904 17.2492 36.9091 17.3367 36.9967C17.4242 37.0842 17.5429 37.1333 17.6667 37.1333H19.5333V38.5333C19.5333 38.6571 19.5825 38.7758 19.67 38.8633C19.7575 38.9508 19.8762 39 20 39H30.2667C30.3904 39 30.5091 38.9508 30.5967 38.8633C30.6842 38.7758 30.7333 38.6571 30.7333 38.5333V37.1333H32.6C32.7238 37.1333 32.8425 37.0842 32.93 36.9967C33.0175 36.9091 33.0667 36.7904 33.0667 36.6667V31.72C35.6987 28.8827 37.2667 25.1867 37.2667 21.7333C37.2667 16.572 32.628 11 25.1333 11ZM29.8 38.0667H20.4667V37.1333H29.8V38.0667ZM32.1333 36.2H18.1333V35.2667H32.1333V36.2ZM32.1333 34.3333H18.1333V33.4H32.1333V34.3333ZM32.2593 31.2113C32.1777 31.2986 32.1326 31.4138 32.1333 31.5333V32.4667H18.1333V31.5333C18.1341 31.4138 18.089 31.2986 18.0073 31.2113C15.4547 28.528 13.9333 25 13.9333 21.7333C13.9333 17.02 18.2173 11.9333 25.1333 11.9333C32.0493 11.9333 36.3333 17.02 36.3333 21.7333C36.3333 25 34.812 28.528 32.2593 31.2113Z" fill="#153D5C"/>
<path d="M32.0586 16.4274L31.0739 16.7494C30.9199 16.5814 30.7519 16.4134 30.6072 16.2594L30.9292 15.27C30.9606 15.1715 30.9584 15.0653 30.9229 14.9682C30.8875 14.8711 30.8207 14.7885 30.7332 14.7334C30.1271 14.2765 29.4692 13.8928 28.7732 13.59C28.683 13.5519 28.5831 13.5431 28.4876 13.5649C28.3922 13.5866 28.306 13.6379 28.2412 13.7114L27.5412 14.4954C27.3172 14.4269 27.0932 14.3663 26.8692 14.3134L26.6686 13.3334C26.649 13.2383 26.6003 13.1517 26.5292 13.0856C26.4581 13.0195 26.3681 12.9773 26.2719 12.9647C25.5163 12.862 24.7502 12.862 23.9946 12.9647C23.8983 12.9773 23.8084 13.0195 23.7373 13.0856C23.6662 13.1517 23.6175 13.2383 23.5979 13.3334L23.3832 14.3554C23.1592 14.4052 22.9352 14.4658 22.7112 14.5374L22.0112 13.7534C21.9465 13.6799 21.8603 13.6286 21.7648 13.6069C21.6693 13.5851 21.5694 13.5939 21.4792 13.632C20.7901 13.9225 20.137 14.2921 19.5332 14.7334C19.4552 14.7928 19.3979 14.8753 19.3694 14.9691C19.341 15.0629 19.3427 15.1633 19.3746 15.256L19.6966 16.2407C19.5286 16.3947 19.3606 16.5627 19.2066 16.7307L18.2172 16.4087C18.1173 16.3734 18.0084 16.373 17.9083 16.4078C17.8083 16.4426 17.723 16.5104 17.6666 16.6C17.2097 17.2061 16.8259 17.864 16.5232 18.56C16.4851 18.6502 16.4763 18.7501 16.498 18.8456C16.5198 18.9411 16.5711 19.0273 16.6446 19.092L17.4286 19.792C17.3601 20.016 17.2994 20.24 17.2466 20.464L16.2666 20.6647C16.1715 20.6843 16.0849 20.733 16.0188 20.8041C15.9527 20.8752 15.9105 20.9651 15.8979 21.0614C15.7984 21.8172 15.7984 22.5829 15.8979 23.3387C15.9105 23.435 15.9527 23.5249 16.0188 23.596C16.0849 23.6671 16.1715 23.7158 16.2666 23.7354L17.2886 23.95C17.3383 24.174 17.399 24.398 17.4706 24.622L16.6866 25.322C16.6131 25.3868 16.5618 25.473 16.54 25.5685C16.5183 25.6639 16.5271 25.7639 16.5652 25.854C16.8547 26.5437 17.2243 27.1968 17.6666 27.8C17.726 27.878 17.8084 27.9354 17.9023 27.9638C17.9961 27.9923 18.0965 27.9905 18.1892 27.9587L19.1739 27.6367C19.3279 27.8047 19.4959 27.9727 19.6639 28.1034L19.3419 29.0927C19.3004 29.1955 19.2969 29.3097 19.3319 29.4149C19.367 29.5201 19.4383 29.6094 19.5332 29.6667C20.1393 30.1236 20.7972 30.5073 21.4932 30.81C21.5834 30.8482 21.6833 30.857 21.7788 30.8352C21.8743 30.8135 21.9605 30.7622 22.0252 30.6887L22.7252 29.9047C22.9492 29.9732 23.1732 30.0338 23.3972 30.0867L23.6119 31.1087C23.6315 31.2038 23.6802 31.2904 23.7513 31.3565C23.8224 31.4225 23.9123 31.4648 24.0086 31.4774C24.7644 31.5769 25.53 31.5769 26.2859 31.4774C26.3821 31.4648 26.4721 31.4225 26.5432 31.3565C26.6143 31.2904 26.663 31.2038 26.6826 31.1087L26.8972 30.0867C27.1212 30.0369 27.3452 29.9763 27.5692 29.9047L28.2692 30.6887C28.334 30.7622 28.4202 30.8135 28.5156 30.8352C28.6111 30.857 28.711 30.8482 28.8012 30.81C29.488 30.5064 30.1365 30.1226 30.7332 29.6667C30.8112 29.6073 30.8685 29.5248 30.897 29.431C30.9255 29.3372 30.9237 29.2368 30.8919 29.144L30.5699 28.1594C30.7379 28.0054 30.9059 27.8374 31.0366 27.6927L32.0259 28.0147C32.1314 28.0542 32.2476 28.0543 32.3531 28.0148C32.4586 27.9753 32.5462 27.8991 32.5999 27.8C33.0567 27.1939 33.4405 26.5361 33.7432 25.84C33.7814 25.7499 33.7902 25.6499 33.7684 25.5545C33.7466 25.459 33.6954 25.3728 33.6219 25.308L32.8379 24.608C32.9063 24.384 32.967 24.16 33.0199 23.936L34.0419 23.7214C34.137 23.7018 34.2236 23.6531 34.2896 23.582C34.3557 23.5109 34.398 23.421 34.4106 23.3247C34.5101 22.5689 34.5101 21.8032 34.4106 21.0474C34.398 20.9511 34.3557 20.8612 34.2896 20.7901C34.2236 20.719 34.137 20.6703 34.0419 20.6507L33.0199 20.436C32.9686 20.212 32.9126 19.9694 32.8379 19.764L33.6219 19.064C33.6954 18.9993 33.7466 18.9131 33.7684 18.8176C33.7902 18.7221 33.7814 18.6222 33.7432 18.532C33.4396 17.8452 33.0558 17.1967 32.5999 16.6C32.5412 16.5157 32.4564 16.453 32.3585 16.4218C32.2607 16.3906 32.1552 16.3926 32.0586 16.4274ZM31.8392 19.792C31.9668 20.1618 32.0651 20.5409 32.1332 20.926C32.1498 21.0174 32.1934 21.1018 32.2582 21.1683C32.3231 21.2348 32.4063 21.2804 32.4972 21.2994L33.4866 21.5047C33.4866 21.7567 33.5192 21.9714 33.5192 22.2C33.5192 22.4287 33.5192 22.6434 33.4866 22.8954L32.4972 23.1007C32.4063 23.1196 32.3231 23.1653 32.2582 23.2318C32.1934 23.2983 32.1498 23.3827 32.1332 23.474C32.0611 23.8597 31.9581 24.2389 31.8252 24.608C31.7945 24.6955 31.7905 24.7902 31.8137 24.88C31.837 24.9697 31.8865 25.0505 31.9559 25.112L32.7119 25.7887C32.5142 26.2058 32.2816 26.6055 32.0166 26.9834L31.0599 26.666C30.9717 26.6379 30.8771 26.6366 30.7882 26.6624C30.6993 26.6882 30.6201 26.7398 30.5606 26.8107C30.3051 27.1082 30.0274 27.3859 29.7299 27.6414C29.659 27.7009 29.6073 27.7801 29.5816 27.869C29.5558 27.9579 29.5571 28.0525 29.5852 28.1407L29.9026 29.0974C29.5247 29.3624 29.125 29.595 28.7079 29.7927L28.0312 29.0367C27.9697 28.9673 27.8889 28.9178 27.7991 28.8946C27.7094 28.8713 27.6147 28.8753 27.5272 28.906C27.1581 29.039 26.7789 29.142 26.3932 29.214C26.3018 29.2307 26.2175 29.2742 26.151 29.339C26.0845 29.4039 26.0388 29.4871 26.0199 29.578L25.8146 30.5674C25.3491 30.6147 24.88 30.6147 24.4146 30.5674L24.2092 29.578C24.1903 29.4871 24.1446 29.4039 24.0781 29.339C24.0116 29.2742 23.9273 29.2307 23.8359 29.214C23.4502 29.142 23.071 29.039 22.7019 28.906C22.6144 28.8753 22.5197 28.8713 22.43 28.8946C22.3402 28.9178 22.2594 28.9673 22.1979 29.0367L21.5212 29.7927C21.1041 29.595 20.7045 29.3624 20.3266 29.0974L20.6439 28.1407C20.672 28.0525 20.6733 27.9579 20.6475 27.869C20.6218 27.7801 20.5701 27.7009 20.4992 27.6414C20.2017 27.3859 19.924 27.1082 19.6686 26.8107C19.6091 26.7398 19.5298 26.6882 19.4409 26.6624C19.352 26.6366 19.2574 26.6379 19.1692 26.666L18.2126 26.9834C17.9475 26.6055 17.7149 26.2058 17.5172 25.7887L18.2732 25.112C18.3426 25.0505 18.3921 24.9697 18.4154 24.88C18.4387 24.7902 18.4347 24.6955 18.4039 24.608C18.2842 24.2377 18.1938 23.8585 18.1332 23.474C18.1166 23.3827 18.0731 23.2983 18.0082 23.2318C17.9434 23.1653 17.8602 23.1196 17.7692 23.1007L16.7799 22.8954C16.7332 22.6667 16.7332 22.4194 16.7332 22.2C16.7332 21.9807 16.7332 21.7567 16.7659 21.5047L17.7552 21.2994C17.8462 21.2804 17.9294 21.2348 17.9942 21.1683C18.0591 21.1018 18.1026 21.0174 18.1192 20.926C18.1913 20.5404 18.2943 20.1612 18.4272 19.792C18.458 19.7046 18.462 19.6099 18.4387 19.5201C18.4154 19.4304 18.3659 19.3496 18.2966 19.288L17.5406 18.6114C17.7382 18.1943 17.9708 17.7946 18.2359 17.4167L19.1926 17.734C19.2807 17.7622 19.3753 17.7634 19.4642 17.7377C19.5531 17.7119 19.6324 17.6603 19.6919 17.5894C19.9474 17.2919 20.2251 17.0142 20.5226 16.7587C20.5935 16.6992 20.6451 16.62 20.6709 16.5311C20.6966 16.4421 20.6954 16.3476 20.6672 16.2594L20.3499 15.326C20.7278 15.061 21.1274 14.8284 21.5446 14.6307L22.2212 15.3867C22.2827 15.4561 22.3635 15.5056 22.4533 15.5289C22.5431 15.5521 22.6377 15.5481 22.7252 15.5174C23.0941 15.3813 23.4733 15.2752 23.8592 15.2C23.9506 15.1834 24.035 15.1399 24.1015 15.075C24.168 15.0102 24.2136 14.927 24.2326 14.836L24.4379 13.8467C24.9034 13.7994 25.3724 13.7994 25.8379 13.8467L26.0432 14.836C26.0622 14.927 26.1078 15.0102 26.1743 15.075C26.2408 15.1399 26.3252 15.1834 26.4166 15.2C26.8022 15.2721 27.1814 15.3751 27.5506 15.508C27.638 15.5388 27.7327 15.5428 27.8225 15.5195C27.9122 15.4963 27.993 15.4468 28.0546 15.3774L28.7312 14.6214C29.1483 14.8191 29.548 15.0517 29.9259 15.3167L29.6086 16.25C29.5804 16.3382 29.5792 16.4328 29.6049 16.5217C29.6307 16.6106 29.6823 16.6899 29.7532 16.7494C30.0507 17.0049 30.3284 17.2826 30.5839 17.58C30.6434 17.651 30.7226 17.7026 30.8115 17.7283C30.9005 17.7541 30.995 17.7528 31.0832 17.7247L32.0399 17.4074C32.3049 17.7853 32.5375 18.1849 32.7352 18.602L31.9792 19.2787C31.9064 19.3398 31.8539 19.4217 31.8289 19.5135C31.8039 19.6052 31.8075 19.7024 31.8392 19.792Z" fill="#153D5C"/>
<path d="M29.422 17.9113C28.764 17.2487 27.686 17.1273 26.384 17.5567C25.9512 17.7075 25.5326 17.8964 25.1333 18.1213C24.734 17.8964 24.3154 17.7075 23.8826 17.5567C22.5806 17.1273 21.5026 17.2487 20.8446 17.9113C20.1866 18.574 20.056 19.6473 20.49 20.9493C20.6408 21.3821 20.8297 21.8007 21.0546 22.2C20.8297 22.5993 20.6408 23.0179 20.49 23.4507C20.056 24.7527 20.182 25.8307 20.8446 26.4887C21.0608 26.6935 21.316 26.8527 21.595 26.957C21.874 27.0612 22.1711 27.1082 22.4686 27.0953C22.9456 27.0852 23.418 27.0001 23.8686 26.8433C24.3062 26.6933 24.7295 26.5043 25.1333 26.2787C25.5318 26.5116 25.9504 26.7084 26.384 26.8667C26.8346 27.0235 27.307 27.1085 27.784 27.1187C28.0815 27.1316 28.3786 27.0845 28.6576 26.9803C28.9366 26.8761 29.1918 26.7168 29.408 26.512C30.0706 25.854 30.1966 24.776 29.7626 23.474C29.6176 23.0337 29.4333 22.6073 29.212 22.2C29.4449 21.8015 29.6417 21.3829 29.8 20.9493C30.2106 19.6473 30.0846 18.5693 29.422 17.9113ZM21.4886 18.5693C21.6213 18.4525 21.7758 18.363 21.9432 18.3061C22.1106 18.2493 22.2876 18.2261 22.464 18.238C22.8411 18.2479 23.2144 18.3172 23.57 18.4433C23.7874 18.5176 24.0008 18.6033 24.2093 18.7C23.2116 19.4177 22.337 20.2923 21.6193 21.29C21.5352 21.0808 21.462 20.8674 21.4 20.6507C21.064 19.722 21.1106 18.9613 21.5026 18.5693H21.4886ZM23.57 25.9567C22.6366 26.2693 21.8806 26.2227 21.4886 25.8307C21.0966 25.4387 21.05 24.678 21.3626 23.7493C21.4422 23.5395 21.5326 23.3339 21.6333 23.1333C22.351 24.131 23.2256 25.0057 24.2233 25.7233C24.0144 25.8122 23.801 25.89 23.584 25.9567H23.57ZM23.4673 23.852C22.9699 23.3484 22.5258 22.7948 22.142 22.2C22.9198 21.0053 23.9386 19.9864 25.1333 19.2087C26.3279 19.9864 27.3468 21.0053 28.1246 22.2C27.3468 23.3946 26.3279 24.4135 25.1333 25.1913C24.5379 24.8031 23.9843 24.3543 23.4813 23.852H23.4673ZM28.75 25.8307C28.358 26.2227 27.5973 26.2693 26.6686 25.9567C26.4638 25.8812 26.2629 25.7956 26.0666 25.7C27.0541 24.9874 27.9207 24.1208 28.6333 23.1333C28.73 23.3418 28.8157 23.5552 28.89 23.7727C29.2026 24.678 29.156 25.4387 28.764 25.8307H28.75ZM28.876 20.6507C28.8017 20.8681 28.716 21.0815 28.6193 21.29C27.9129 20.2953 27.051 19.4208 26.0666 18.7C26.2679 18.6119 26.4735 18.534 26.6826 18.4667C27.0382 18.3405 27.4115 18.2712 27.7886 18.2613C27.965 18.2494 28.142 18.2726 28.3094 18.3295C28.4768 18.3863 28.6313 18.4758 28.764 18.5927C29.156 18.9613 29.2026 19.722 28.89 20.6507H28.876Z" fill="#153D5C"/>
<path d="M25.1336 21.5C24.9951 21.5 24.8598 21.5411 24.7447 21.618C24.6296 21.6949 24.5399 21.8042 24.4869 21.9321C24.4339 22.06 24.42 22.2008 24.447 22.3366C24.4741 22.4723 24.5407 22.5971 24.6386 22.695C24.7365 22.7929 24.8612 22.8595 24.997 22.8865C25.1328 22.9136 25.2736 22.8997 25.4015 22.8467C25.5294 22.7937 25.6387 22.704 25.7156 22.5889C25.7925 22.4738 25.8336 22.3384 25.8336 22.2C25.8336 22.0143 25.7598 21.8363 25.6286 21.705C25.4973 21.5738 25.3192 21.5 25.1336 21.5ZM25.1336 22.4333C25.0874 22.4333 25.0423 22.4196 25.004 22.394C24.9656 22.3684 24.9357 22.3319 24.918 22.2893C24.9004 22.2467 24.8957 22.1997 24.9047 22.1545C24.9137 22.1092 24.936 22.0676 24.9686 22.035C25.0012 22.0024 25.0428 21.9802 25.0881 21.9712C25.1333 21.9621 25.1803 21.9668 25.2229 21.9844C25.2655 22.0021 25.302 22.032 25.3276 22.0704C25.3532 22.1087 25.3669 22.1539 25.3669 22.2C25.3669 22.2619 25.3423 22.3212 25.2986 22.365C25.2548 22.4088 25.1955 22.4333 25.1336 22.4333Z" fill="#153D5C"/>
</svg>
