<svg width="50" height="50" viewBox="0 0 50 50" fill="none" xmlns="http://www.w3.org/2000/svg">
<path d="M17.67 18.6082C17.7555 18.6084 17.8398 18.5884 17.916 18.5498C17.9923 18.5112 18.0583 18.4551 18.1088 18.3861C18.8356 17.3775 19.7659 16.5325 20.8396 15.9056C21.9132 15.2787 23.1063 14.8838 24.342 14.7466C25.5777 14.6093 26.8284 14.7326 28.0134 15.1085C29.1985 15.4844 30.2916 16.1046 31.2221 16.9291C31.2755 16.9764 31.3376 17.0127 31.405 17.036C31.4724 17.0593 31.5437 17.0691 31.6149 17.0648C31.6861 17.0605 31.7557 17.0423 31.8198 17.0111C31.8839 16.9799 31.9413 16.9364 31.9886 16.883C32.0359 16.8297 32.0722 16.7675 32.0955 16.7002C32.1188 16.6328 32.1286 16.5614 32.1243 16.4903C32.12 16.4191 32.1018 16.3495 32.0706 16.2854C32.0394 16.2212 31.9959 16.1639 31.9425 16.1166C30.8992 15.1911 29.6735 14.4946 28.3444 14.0721C27.0153 13.6495 25.6124 13.5103 24.2262 13.6635C22.84 13.8166 21.5013 14.2586 20.2965 14.961C19.0916 15.6635 18.0474 16.6107 17.2313 17.7415C17.1722 17.8224 17.1367 17.918 17.1287 18.0179C17.1207 18.1177 17.1405 18.2178 17.186 18.307C17.2314 18.3962 17.3007 18.4711 17.3862 18.5233C17.4716 18.5755 17.5699 18.603 17.67 18.6028V18.6082Z" fill="#153D5C"/>
<path d="M27.6031 19.7348L23.6437 23.6943L23.2049 23.2177C23.0443 23.0358 22.8486 22.8882 22.6295 22.784C22.4104 22.6797 22.1724 22.6209 21.93 22.6111C21.6875 22.6012 21.4456 22.6405 21.2187 22.7266C20.9919 22.8127 20.7848 22.9439 20.6099 23.1121C20.4351 23.2804 20.2961 23.4823 20.2014 23.7057C20.1066 23.929 20.058 24.1693 20.0586 24.412C20.0592 24.6546 20.1088 24.8946 20.2046 25.1176C20.3003 25.3405 20.4402 25.5418 20.6158 25.7093L23.2374 28.3363C23.2881 28.3865 23.3481 28.4262 23.4141 28.4531C23.4801 28.4801 23.5507 28.4938 23.622 28.4934C23.6933 28.4938 23.764 28.4801 23.83 28.4531C23.8959 28.4262 23.956 28.3865 24.0066 28.3363L30.111 22.2427C30.2757 22.078 30.4063 21.8825 30.4954 21.6674C30.5845 21.4522 30.6304 21.2216 30.6304 20.9888C30.6304 20.7559 30.5845 20.5253 30.4954 20.3102C30.4063 20.095 30.2757 19.8995 30.111 19.7348C29.9463 19.5702 29.7508 19.4396 29.5357 19.3504C29.3205 19.2613 29.0899 19.2155 28.8571 19.2155C28.6242 19.2155 28.3936 19.2613 28.1785 19.3504C27.9633 19.4396 27.7678 19.5702 27.6031 19.7348ZM29.3419 21.479L23.622 27.188L21.385 24.9455C21.3188 24.8783 21.2666 24.7987 21.2312 24.7113C21.1958 24.6239 21.178 24.5304 21.1787 24.4361C21.1795 24.3417 21.1988 24.2485 21.2356 24.1617C21.2724 24.0748 21.3259 23.9961 21.3931 23.9299C21.4603 23.8638 21.5399 23.8115 21.6273 23.7761C21.7148 23.7407 21.8083 23.7229 21.9026 23.7237C21.9969 23.7244 22.0901 23.7437 22.177 23.7805C22.2638 23.8173 22.3426 23.8708 22.4087 23.9381L23.232 24.821C23.2813 24.8741 23.3407 24.9168 23.4067 24.9466C23.4728 24.9764 23.5442 24.9926 23.6166 24.9943C23.6888 24.9954 23.7605 24.9821 23.8275 24.9551C23.8944 24.9282 23.9553 24.8881 24.0066 24.8372L28.3398 20.504C28.4696 20.3756 28.6448 20.3037 28.8273 20.3037C29.0098 20.3037 29.185 20.3756 29.3148 20.504C29.379 20.5679 29.4299 20.6439 29.4647 20.7275C29.4994 20.8112 29.5173 20.9009 29.5173 20.9915C29.5173 21.0821 29.4994 21.1718 29.4647 21.2554C29.4299 21.3391 29.379 21.415 29.3148 21.479H29.3419Z" fill="#153D5C"/>
<path d="M40.6898 38.3189L39.6607 35.1989L40.6898 31.9003C40.7161 31.8171 40.7218 31.7288 40.7067 31.6429C40.6915 31.557 40.6558 31.4761 40.6026 31.407C40.5494 31.3378 40.4803 31.2826 40.4012 31.2458C40.3221 31.2091 40.2353 31.1921 40.1481 31.1961H37.9653V29.4466C37.9653 29.3029 37.9082 29.1652 37.8066 29.0636C37.7051 28.962 37.5673 28.9049 37.4236 28.9049H36.7899C38.0908 26.1083 38.3201 22.9315 37.4344 19.977C36.5487 17.0225 34.6094 14.4958 31.9845 12.8761C29.3596 11.2564 26.2316 10.6564 23.1936 11.1898C20.1557 11.7232 17.4192 13.3529 15.503 15.7699C13.7329 17.9951 12.7772 20.7589 12.7947 23.6022C12.7969 25.4341 13.1979 27.2437 13.9701 28.9049H13.3201C13.1765 28.9049 13.0387 28.962 12.9371 29.0636C12.8356 29.1652 12.7785 29.3029 12.7785 29.4466V31.1961H10.5686C10.4808 31.1918 10.3933 31.2088 10.3136 31.2458C10.2339 31.2828 10.1644 31.3386 10.1111 31.4085C10.0578 31.4783 10.0223 31.5601 10.0076 31.6467C9.99293 31.7333 9.99956 31.8222 10.0269 31.9057L11.056 35.1123L10.0269 38.3189C9.99956 38.4024 9.99293 38.4912 10.0076 38.5779C10.0223 38.6645 10.0578 38.7463 10.1111 38.8161C10.1644 38.8859 10.2339 38.9418 10.3136 38.9787C10.3933 39.0157 10.4808 39.0328 10.5686 39.0284H19.3216C19.4653 39.0284 19.6031 38.9714 19.7046 38.8698C19.8062 38.7682 19.8633 38.6304 19.8633 38.4868V36.7372H30.8805V38.4868C30.8805 38.6304 30.9376 38.7682 31.0391 38.8698C31.1407 38.9714 31.2785 39.0284 31.4221 39.0284H40.1752C40.2607 39.0284 40.345 39.0081 40.4211 38.9692C40.4973 38.9303 40.5631 38.874 40.6133 38.8048C40.6635 38.7355 40.6966 38.6554 40.7099 38.571C40.7232 38.4865 40.7163 38.4001 40.6898 38.3189ZM13.8618 23.6022C13.8604 22.0903 14.1571 20.5929 14.735 19.1958C15.313 17.7987 16.1608 16.5292 17.2298 15.4601C18.2989 14.391 19.5684 13.5433 20.9655 12.9653C22.3626 12.3874 23.86 12.0907 25.3719 12.0921C27.3463 12.0919 29.2875 12.6001 31.0085 13.5678C32.7295 14.5354 34.1724 15.9299 35.1982 17.6169C36.224 19.3039 36.7982 21.2266 36.8654 23.1998C36.9326 25.1731 36.4906 27.1304 35.582 28.8833H33.7458C34.7772 27.261 35.3169 25.3747 35.2996 23.4523C35.2823 21.53 34.7088 19.6537 33.6483 18.0503C33.6098 17.9896 33.5596 17.9372 33.5005 17.8961C33.4415 17.855 33.375 17.8261 33.3047 17.811C33.2344 17.796 33.1618 17.795 33.0912 17.8083C33.0205 17.8216 32.9532 17.8488 32.8932 17.8883C32.8331 17.9279 32.7816 17.979 32.7415 18.0386C32.7014 18.0983 32.6736 18.1654 32.6597 18.2359C32.6458 18.3064 32.6461 18.379 32.6605 18.4494C32.6749 18.5199 32.7032 18.5867 32.7438 18.6461C33.7586 20.1795 34.2719 21.9903 34.2127 23.8281C34.1535 25.666 33.5247 27.44 32.4134 28.9049H18.2113C17.3552 27.7667 16.7857 26.4391 16.551 25.0344C16.3162 23.6297 16.4231 22.1891 16.8625 20.8343C16.901 20.6996 16.8857 20.5551 16.8199 20.4314C16.7541 20.3077 16.643 20.2142 16.5097 20.1708C16.3765 20.1273 16.2316 20.1371 16.1055 20.1983C15.9794 20.2594 15.8818 20.367 15.8334 20.4985C15.3843 21.8931 15.2485 23.3697 15.4357 24.8228C15.623 26.2759 16.1287 27.6698 16.9167 28.9049H15.1834C14.3234 27.2692 13.87 25.4503 13.8618 23.6022ZM13.8618 29.9883H36.882V35.6539H13.8618V29.9883ZM18.78 37.9451H11.289L12.1448 35.2802C12.1792 35.1727 12.1792 35.0572 12.1448 34.9498L11.289 32.2849H12.7568V36.201C12.7568 36.3447 12.8139 36.4824 12.9155 36.584C13.0171 36.6856 13.1548 36.7426 13.2985 36.7426H18.78V37.9451ZM38.5774 35.3723L39.4277 37.9451H31.9638V36.7372H37.4236C37.5673 36.7372 37.7051 36.6802 37.8066 36.5786C37.9082 36.477 37.9653 36.3392 37.9653 36.1956V32.2849H39.4548L38.5936 35.0473C38.5539 35.153 38.5482 35.2686 38.5774 35.3777V35.3723Z" fill="#153D5C"/>
</svg>
