<svg width="50" height="50" viewBox="0 0 50 50" fill="none" xmlns="http://www.w3.org/2000/svg">
<path d="M41.9243 24.4369L36.1779 14.3257C36.0898 14.1807 35.9505 14.0741 35.7876 14.0268C35.6246 13.9796 35.4499 13.9952 35.2979 14.0705L32.6579 15.5753C32.5009 15.6656 32.3859 15.8144 32.3381 15.9891C32.2903 16.1639 32.3135 16.3504 32.4027 16.5081L32.9307 17.5729C32.5577 17.829 32.1034 17.9387 31.6547 17.8809C31.2374 17.8189 30.8255 17.7247 30.4227 17.5993C28.4867 17.0801 25.2571 16.2001 22.0891 17.5993C21.4834 17.8517 20.9219 18.1993 20.4259 18.6289C20.1355 18.6289 19.5459 18.5233 18.9387 18.4353C18.3137 18.1845 17.7474 17.807 17.2755 17.3265L17.6451 16.6753C17.7343 16.5176 17.7575 16.3311 17.7097 16.1563C17.6619 15.9816 17.5469 15.8328 17.3899 15.7425L14.7499 14.2377C14.6719 14.1931 14.5858 14.1646 14.4966 14.1541C14.4074 14.1435 14.3169 14.151 14.2307 14.1761C14.1437 14.1976 14.062 14.2368 13.9908 14.2913C13.9197 14.3458 13.8605 14.4145 13.8171 14.4929L8.0883 24.6129C8.04369 24.6909 8.01524 24.777 8.00466 24.8662C7.99407 24.9554 8.00157 25.0459 8.0267 25.1321C8.04819 25.2191 8.08742 25.3008 8.14193 25.372C8.19644 25.4431 8.26507 25.5023 8.3435 25.5457L10.9835 27.0505C11.0852 27.109 11.2006 27.1394 11.3179 27.1385C11.3792 27.147 11.4414 27.147 11.5027 27.1385C11.5897 27.117 11.6714 27.0778 11.7426 27.0233C11.8137 26.9687 11.8729 26.9001 11.9163 26.8217L12.5411 25.7305C13.0593 26.4139 13.6207 27.0635 14.2219 27.6753L14.0811 27.8777C13.8757 28.172 13.7651 28.522 13.7643 28.8809C13.7646 29.1594 13.8309 29.4338 13.9579 29.6816C14.0849 29.9294 14.2689 30.1436 14.4947 30.3065C14.7849 30.521 15.137 30.6353 15.4979 30.6321H15.5683C15.5417 30.8071 15.5417 30.9851 15.5683 31.1601C15.649 31.6145 15.905 32.019 16.2811 32.2865C16.5722 32.4993 16.9237 32.6134 17.2843 32.6121C17.4633 32.6127 17.6413 32.586 17.8123 32.5329C17.8614 32.7834 17.9643 33.0202 18.114 33.2269C18.2638 33.4336 18.4567 33.6053 18.6793 33.73C18.902 33.8548 19.1492 33.9296 19.4037 33.9493C19.6581 33.969 19.9139 33.9331 20.1531 33.8441C20.2536 34.2526 20.4971 34.6116 20.8395 34.8561C21.1317 35.0658 21.4831 35.1767 21.8427 35.1729H22.1419C22.3672 35.1368 22.5829 35.0559 22.7764 34.9349C22.9698 34.814 23.1371 34.6556 23.2683 34.4689V34.4161C24.2679 34.9411 25.3701 35.2414 26.4979 35.2961C26.8914 35.292 27.2813 35.2205 27.6507 35.0849C28.2778 34.8927 28.8051 34.4633 29.1203 33.8881H29.4107C29.9035 33.8913 30.3855 33.7439 30.7923 33.4657C31.2634 33.1286 31.5951 32.631 31.7251 32.0665C32.2745 32.0083 32.7826 31.748 33.1507 31.3361C33.4259 31.0246 33.6327 30.6589 33.7579 30.2625C34.0995 30.2319 34.4314 30.1327 34.7338 29.9709C35.0362 29.8091 35.3028 29.5881 35.5179 29.3209C35.6545 29.1112 35.7475 28.8761 35.7913 28.6296C35.8351 28.3832 35.829 28.1305 35.7731 27.8865C35.7284 27.6847 35.6512 27.4915 35.5443 27.3145C36.3474 26.9344 37.0566 26.3815 37.6211 25.6953L38.1315 26.5753C38.2214 26.7338 38.3699 26.8508 38.5451 26.9009C38.6064 26.9094 38.6686 26.9094 38.7299 26.9009C38.8467 26.8978 38.9611 26.8676 39.0643 26.8129L41.7043 25.3081C41.8628 25.2182 41.9798 25.0697 42.0299 24.8945C42.0512 24.7342 42.0137 24.5716 41.9243 24.4369ZM12.1275 24.6129L11.2475 26.1001L8.9507 24.8593L14.5123 15.1001L16.8091 16.4113L12.1275 24.6129ZM16.2107 29.3473C16.0743 29.5244 15.8756 29.643 15.655 29.679C15.4343 29.7149 15.2083 29.6656 15.0227 29.5409C14.8418 29.4055 14.7198 29.2058 14.6821 28.983C14.6445 28.7602 14.6939 28.5314 14.8203 28.3441L15.1371 27.8865L15.5419 27.3233C15.6775 27.1399 15.8789 27.0163 16.1038 26.9786C16.3287 26.9408 16.5595 26.9918 16.7475 27.1209C16.9132 27.2423 17.0312 27.4179 17.081 27.6172C17.1308 27.8165 17.1093 28.027 17.0203 28.2121L16.2107 29.3473ZM18.1115 31.1689L17.9971 31.3273C17.9445 31.4473 17.8657 31.5541 17.7666 31.6398C17.6674 31.7256 17.5504 31.788 17.424 31.8227C17.2976 31.8574 17.1651 31.8635 17.0361 31.8404C16.9071 31.8173 16.7848 31.7657 16.6783 31.6893C16.5718 31.6129 16.4837 31.5137 16.4204 31.399C16.3571 31.2842 16.3203 31.1567 16.3126 31.0259C16.3049 30.895 16.3265 30.7641 16.3759 30.6427C16.4252 30.5213 16.5011 30.4124 16.5979 30.3241L16.9147 29.8929L17.6363 28.8809L18.5867 27.5433C18.6471 27.4442 18.7265 27.358 18.8203 27.2897C18.9142 27.2214 19.0206 27.1724 19.1335 27.1454C19.2463 27.1184 19.3634 27.114 19.478 27.1325C19.5926 27.1509 19.7024 27.1918 19.8011 27.2529C19.8955 27.3174 19.9755 27.4007 20.0361 27.4976C20.0967 27.5946 20.1365 27.703 20.1531 27.8161C20.1884 28.0415 20.1348 28.2719 20.0035 28.4585L19.6867 28.9073L18.1115 31.1689ZM20.4435 32.3833L20.2323 32.6737C20.1789 32.7942 20.0991 32.9012 19.9988 32.9868C19.8985 33.0724 19.7803 33.1343 19.6529 33.168C19.5254 33.2018 19.392 33.2065 19.2625 33.1817C19.133 33.157 19.0108 33.1035 18.9047 33.0251C18.7987 32.9468 18.7116 32.8456 18.6499 32.7291C18.5883 32.6126 18.5535 32.4837 18.5484 32.352C18.5432 32.2202 18.5676 32.089 18.62 31.968C18.6723 31.847 18.7512 31.7393 18.8507 31.6529L20.4259 29.4353C20.5335 29.3125 20.673 29.2221 20.829 29.1741C20.985 29.1262 21.1513 29.1225 21.3093 29.1636C21.4672 29.2047 21.6106 29.2889 21.7235 29.4068C21.8363 29.5247 21.9142 29.6717 21.9483 29.8313C21.9704 29.9429 21.9685 30.0578 21.9427 30.1686C21.9169 30.2794 21.8678 30.3834 21.7987 30.4737L21.2707 31.2217L20.4435 32.3833ZM23.4003 32.7265L22.8459 33.4921L22.7755 33.5977L22.5555 33.8969C22.4173 34.039 22.2352 34.1303 22.0386 34.156C21.842 34.1817 21.6425 34.1403 21.4725 34.0384C21.3024 33.9366 21.1717 33.7803 21.1015 33.5949C21.0313 33.4095 21.0258 33.2058 21.0859 33.0169L21.1563 32.9025L21.9923 31.7321C22.1299 31.5564 22.3292 31.4395 22.5498 31.4052C22.7704 31.3709 22.9958 31.4217 23.1803 31.5473C23.3637 31.6829 23.4873 31.8843 23.525 32.1092C23.5628 32.3341 23.5117 32.5649 23.3827 32.7529L23.4003 32.7265ZM34.7523 28.8545C34.4161 29.2019 33.9593 29.4067 33.4763 29.4265L28.2755 26.1705C28.1774 26.1076 28.0584 26.0862 27.9446 26.111C27.8308 26.1357 27.7314 26.2046 27.6683 26.3025C27.6364 26.3512 27.6147 26.4059 27.6045 26.4633C27.5943 26.5206 27.5958 26.5794 27.6089 26.6362C27.6221 26.6929 27.6466 26.7464 27.681 26.7934C27.7154 26.8404 27.759 26.88 27.8091 26.9097L32.8779 30.0953C32.7876 30.3496 32.6469 30.583 32.4643 30.7817C32.3317 30.9219 32.1722 31.0339 31.9952 31.1111C31.8183 31.1882 31.6277 31.2288 31.4347 31.2305L26.8411 28.6609C26.7384 28.6037 26.6172 28.5897 26.5042 28.6219C26.3911 28.654 26.2955 28.7298 26.2383 28.8325C26.1811 28.9352 26.1671 29.0564 26.1992 29.1694C26.2314 29.2825 26.3072 29.3781 26.4099 29.4353L30.8099 31.8905C30.7334 32.2462 30.5261 32.5603 30.2291 32.7705C30.0403 32.8944 29.8276 32.9773 29.6048 33.0137C29.3819 33.05 29.1539 33.0392 28.9355 32.9817H28.8827C28.8555 32.9557 28.8261 32.9321 28.7947 32.9113L25.2747 31.1513C25.1721 31.1086 25.0572 31.1063 24.953 31.1448C24.8488 31.1833 24.763 31.2598 24.7129 31.3589C24.6628 31.4581 24.652 31.5725 24.6827 31.6793C24.7135 31.786 24.7835 31.8772 24.8787 31.9345L28.2491 33.6329C28.0376 33.9449 27.7278 34.1772 27.3691 34.2929C26.1588 34.5118 24.9101 34.2902 23.8491 33.6681L24.1307 33.2369C24.3978 32.859 24.5053 32.3911 24.4299 31.9345C24.3592 31.5449 24.1592 31.1905 23.8622 30.9286C23.5651 30.6667 23.1885 30.5127 22.7931 30.4913C22.8724 30.226 22.8904 29.9462 22.8459 29.6729C22.7674 29.2199 22.5147 28.8156 22.1419 28.5465C21.8243 28.32 21.4405 28.2055 21.0507 28.2209C21.077 28.0518 21.077 27.8796 21.0507 27.7105C20.9869 27.3746 20.8267 27.0646 20.5896 26.8183C20.3525 26.572 20.0488 26.4001 19.7156 26.3235C19.3824 26.247 19.0341 26.2692 18.7133 26.3873C18.3925 26.5055 18.1131 26.7145 17.9091 26.9889L17.8299 27.0945C17.7092 26.8204 17.5141 26.5857 17.2667 26.4169C16.8893 26.1534 16.4237 26.0482 15.9697 26.1239C15.5157 26.1995 15.1094 26.45 14.8379 26.8217L14.7675 26.9097C14.1369 26.2621 13.549 25.5742 13.0075 24.8505L16.8443 18.1097C17.4076 18.6695 18.095 19.0886 18.8507 19.3329L19.7307 19.4561C19.272 20.048 18.9477 20.7326 18.7803 21.4625C18.7021 21.7879 18.7087 22.1279 18.7997 22.4499C18.8906 22.772 19.0627 23.0653 19.2995 23.3017C19.5253 23.5299 19.8047 23.6979 20.1122 23.7901C20.4197 23.8824 20.7454 23.896 21.0595 23.8297C21.7303 23.6938 22.3335 23.33 22.7667 22.8001L23.6467 21.6297L24.8875 21.3041C28.3563 22.8562 31.5649 24.9339 34.4003 27.4641H34.4531C34.4786 27.4944 34.5083 27.5211 34.5411 27.5433C34.7204 27.6752 34.843 27.8702 34.8843 28.0889C34.9148 28.2188 34.9188 28.3536 34.8962 28.4851C34.8735 28.6167 34.8246 28.7423 34.7523 28.8545ZM34.8667 26.6633C31.9671 24.0851 28.6797 21.9796 25.1251 20.4241C25.0439 20.4065 24.9599 20.4065 24.8787 20.4241C24.8203 20.4158 24.7611 20.4158 24.7027 20.4241L23.3387 20.7849C23.1929 20.8267 23.0637 20.9128 22.9691 21.0313L22.0891 22.2457C21.7786 22.6136 21.3544 22.8675 20.8835 22.9673C20.7107 23.0037 20.5316 22.9961 20.3625 22.9454C20.1934 22.8947 20.0397 22.8024 19.9155 22.6769C19.7842 22.5437 19.6887 22.3795 19.6379 22.1994C19.5871 22.0194 19.5827 21.8295 19.6251 21.6473C19.8193 20.7936 20.2745 20.0216 20.9275 19.4385C21.4008 19.0181 21.9386 18.6764 22.5203 18.4265C25.3891 17.1681 28.4427 17.9953 30.2643 18.4881C30.7155 18.629 31.1776 18.732 31.6459 18.7961C32.2637 18.8619 32.8852 18.7127 33.4059 18.3737L37.1195 24.9033C36.5492 25.6939 35.7644 26.3046 34.8579 26.6633H34.8667ZM38.7739 26.0121L37.9467 24.5601L34.0659 17.7401L33.2299 16.2705L35.5179 14.9329L41.0619 24.7009L38.7739 26.0121Z" fill="#153D5C"/>
</svg>
