<svg width="50" height="50" viewBox="0 0 50 50" fill="none" xmlns="http://www.w3.org/2000/svg">
<path d="M37.8044 37.1206V24.3544C37.8044 22.3995 36.1978 20.8093 34.2227 20.8093H30.86C29.028 20.8093 27.5151 22.1782 27.3053 23.9361H24.508V21.3904C24.508 19.4363 22.9022 17.8466 20.9276 17.8466H17.5653C15.5911 17.8466 13.9849 19.4363 13.9849 21.3904V37.1202H5V38H45V37.1202H37.8044V37.1206ZM30.86 21.6891H34.2227C35.7076 21.6891 36.9156 22.8847 36.9156 24.3544V37.1206H28.1667V24.3544C28.1667 22.8847 29.3751 21.6891 30.86 21.6891ZM19.2222 33.6723V35.797H17.7884V33.6723C17.7884 32.0359 19.1333 30.7047 20.7867 30.7047H22.3364V32.1239H20.7867C19.924 32.1234 19.2222 32.818 19.2222 33.6723ZM23.2258 30.7047H25.8724V32.1239H23.2258V30.7047ZM25.8724 33.0032V33.5069H26.7613V29.3406H25.8724V29.825H24.508V27.5744H27.2778V37.1206H24.508V33.0036H25.8724V33.0032ZM27.2778 24.8158V26.6942H24.508V24.8158H27.2778ZM14.8738 21.3904C14.8738 19.9216 16.0813 18.7264 17.5653 18.7264H20.9276C22.4116 18.7264 23.6191 19.9216 23.6191 21.3904V29.8245H23.2258V29.3402H22.3369V29.8245H20.7871C18.644 29.8245 16.9 31.5507 16.9 33.6719V35.7966H16.4507V36.6763H20.66V35.7966H20.1111V33.6719C20.1111 33.3028 20.4142 33.0028 20.7871 33.0028H22.3369V33.5065H23.2258V33.0028H23.6191V37.1198H14.8738V21.3904ZM22.3369 21.3904H23.2258C23.2258 20.7543 22.9533 20.1428 22.4773 19.7122C22.0524 19.3277 21.5022 19.1161 20.9276 19.1161V19.9959C21.2796 19.9959 21.6173 20.1257 21.8778 20.3614C22.1693 20.6254 22.3369 21.0006 22.3369 21.3904ZM22.3369 27.8186H23.2258V22.2341H22.3369V27.8186ZM35.632 24.3544V31.8142H36.5209V24.3544C36.5209 23.5986 36.1418 22.8935 35.5071 22.469L35.0098 23.1979C35.3991 23.4583 35.632 23.8907 35.632 24.3544ZM35.632 34.355H36.5209V32.8233H35.632V34.355ZM6.83644 35.7741H6.33867V36.6539H10.9582V35.7741H10.512V33.9389H11.2378V31.1477H10.512V28.657C10.512 28.0601 11.0027 27.574 11.6062 27.574H12.584V28.0236H13.4729V23.6149H12.584V23.9361H11.6062C8.97644 23.9361 6.83689 26.0537 6.83689 28.657V31.1477H6.13911V33.9389H6.836V35.7741H6.83644ZM9.62267 35.7741H7.72489V33.9389H9.62267V35.7741ZM7.028 32.0275H10.3484V33.0591H7.028V32.0275ZM7.72533 28.657C7.72533 26.5394 9.46622 24.8158 11.6058 24.8158H12.5836V26.6942H11.6058C10.5124 26.6942 9.62267 27.5749 9.62267 28.657V31.1477H7.72489V28.657H7.72533ZM39.2484 32.9227H39.4831C39.856 32.9227 40.1591 33.2227 40.1591 33.5918V35.7974H39.6693V36.6772H43.8782V35.7974H43.3702V33.5914C43.3702 31.4702 41.6262 29.7445 39.4831 29.7445H39.2484V29.3406H38.3596V33.5069H39.2484V32.9227ZM39.4831 30.6242C41.1364 30.6242 42.4813 31.9549 42.4813 33.5914V35.797H41.0476V33.5914C41.0476 32.7375 40.3458 32.0425 39.4827 32.0425H39.248V30.6238H39.4831V30.6242ZM18.0276 17.4185H20.3111V17.4181H21.0262V16.5383H20.304L20.2982 15.8222H25.4711V16.4992H28.6778V15.8213L31.324 15.8142V19.5023H30.6062V20.3821H31.324V20.3826H33.6036V20.3821H34.3218V19.5023H33.6036V15.8142C33.6036 14.575 32.5844 13.5664 31.3324 13.5664H28.6778V12.7204H27.5191V12.2607H26.6302V12.7204H25.4711V13.5664H20.2987C19.0467 13.5664 18.028 14.5746 18.028 15.8142V16.5383H17.3111V17.4181L18.0276 17.4185ZM31.332 14.4457C32.0942 14.4457 32.7142 15.0594 32.7142 15.8138V19.5019H32.2124V15.8138C32.2124 15.333 31.8173 14.9424 31.332 14.9424H28.6773V14.4462H31.332V14.4457ZM26.36 13.5998H27.7889V15.6189H26.36V13.5998ZM18.9164 15.8138C18.9164 15.0594 19.5364 14.4457 20.2982 14.4457H25.4711V14.9419H20.2987C19.8156 14.9419 19.4222 15.333 19.4222 15.8134V16.5374H18.9164V15.8138ZM29.2849 11H24.9V11.8798H29.2849V11Z" fill="#153D5C"/>
</svg>
