<svg width="50" height="50" viewBox="0 0 50 50" fill="none" xmlns="http://www.w3.org/2000/svg">
<path d="M34.9856 31.9628C34.9854 31.9623 34.9849 31.9621 34.9847 31.9616L31.3098 24.3942C32.3617 23.4544 33.2665 22.3061 33.9453 20.9714C34.0847 20.6973 33.9752 20.3626 33.7012 20.2242C33.4272 20.0837 33.0912 20.1957 32.9525 20.4678C32.3888 21.5759 31.6475 22.5323 30.7982 23.3407L27.7685 17.1023C28.3182 16.4316 28.6734 15.5944 28.7069 14.6637C28.7683 12.9191 27.7196 11.3967 26.1995 10.7499L26.1571 6.5509C26.1557 6.40296 26.0952 6.26247 25.9898 6.15867C25.8844 6.05624 25.7205 5.99307 25.5941 6.00061L23.5399 6.02435C23.2325 6.0277 22.9857 6.27876 22.9891 6.58553L23.0311 10.7407C22.5808 10.9233 22.1573 11.1744 21.791 11.5149C20.9873 12.2621 20.5229 13.2773 20.4841 14.3732C20.4506 15.3066 20.7466 16.1699 21.2504 16.8789L17.6955 23.0933C17.0075 22.3924 16.3981 21.5884 15.9081 20.6721C15.7619 20.4013 15.424 20.2989 15.154 20.4434C14.8827 20.5879 14.7801 20.9252 14.9249 21.1959C15.5161 22.3015 16.2723 23.2602 17.1275 24.0865L14.1192 29.3454C14.043 29.4769 14.0253 29.6345 14.0689 29.7804L14.9315 32.6595L13.6596 34.8821C13.5066 35.1488 13.5998 35.4881 13.867 35.6401C13.954 35.6903 14.0484 35.7134 14.1423 35.7134C14.3361 35.7134 14.5238 35.6129 14.6264 35.4331L16.0176 33.0023C16.0178 33.0018 16.0178 33.0015 16.0181 33.0011L19.9727 26.087C21.1413 26.6488 22.4021 26.9777 23.7047 27.066L23.7154 28.1387C23.7181 28.4441 23.9669 28.6891 24.2723 28.6891C24.2743 28.6891 24.2756 28.6891 24.2777 28.6891C24.5857 28.6863 24.8325 28.4346 24.8291 28.1279L24.8188 27.0866C26.057 27.0313 27.2573 26.748 28.3815 26.2638L31.0582 31.7754C31.1316 31.9267 31.2697 32.0373 31.4343 32.0746L34.1001 32.6875L35.2127 34.979C35.3085 35.1772 35.5071 35.2925 35.7145 35.2925C35.7954 35.2925 35.8784 35.2749 35.9566 35.2369C36.2333 35.1033 36.3496 34.7707 36.215 34.4944L34.9856 31.9628ZM26.9169 17.8969L29.9212 24.0837C29.5899 24.3337 29.2471 24.5603 28.8907 24.7641L25.8105 18.4219C26.2069 18.2983 26.5809 18.1277 26.9169 17.8969ZM24.1083 7.12989L25.0487 7.11908L25.0827 10.4625C24.9682 10.4487 24.8586 10.42 24.7414 10.4158C24.5396 10.4127 24.3407 10.4367 24.1422 10.46L24.1083 7.12989ZM22.5505 12.3281C23.1102 11.8083 23.8316 11.5253 24.5924 11.5253C24.6284 11.5253 24.6652 11.5259 24.7019 11.5273C26.3548 11.5856 27.6515 12.9748 27.593 14.6245C27.5339 16.2742 26.1713 17.5752 24.489 17.5106C22.836 17.4523 21.5387 16.0625 21.5978 14.4127C21.6258 13.614 21.9645 12.8736 22.5505 12.3281ZM22.0486 17.7248C22.3713 17.9809 22.7331 18.1831 23.1249 18.3341L19.5456 24.5919C19.1946 24.3749 18.8583 24.1311 18.5341 23.8685L22.0486 17.7248ZM15.6946 31.3249L15.2044 29.6895L17.9781 24.8406C18.3057 25.0983 18.6401 25.3448 18.9913 25.5613L15.6946 31.3249ZM24.8076 25.9747L24.7998 25.1924C24.7964 24.8842 24.5319 24.6094 24.2375 24.642C23.9294 24.6448 23.6827 24.8964 23.686 25.2032L23.6934 25.9466C22.5877 25.8523 21.5208 25.5761 20.5296 25.1131L24.2575 18.5956C24.3227 18.601 24.3836 18.6195 24.4497 18.6219C24.4993 18.6233 24.5476 18.6247 24.5966 18.6247C24.621 18.6247 24.6438 18.6181 24.6682 18.6176L27.8948 25.2617C26.9175 25.6769 25.8787 25.9223 24.8076 25.9747ZM31.9442 31.0514L29.3765 25.7643C29.7342 25.5632 30.0802 25.3435 30.4154 25.1009L33.4762 31.4035L31.9442 31.0514Z" fill="#153D5C"/>
<path d="M24.5223 16.6053C24.5468 16.606 24.5712 16.6066 24.595 16.6066C25.7169 16.6066 26.6478 15.7169 26.6873 14.5912C26.7268 13.4416 25.8223 12.4732 24.6692 12.4311C23.4915 12.4013 22.5457 13.2951 22.5042 14.4453C22.4647 15.5962 23.3698 16.5652 24.5223 16.6053ZM24.5957 13.5421C24.6072 13.5421 24.6188 13.5421 24.6297 13.5428C25.1688 13.5618 25.5925 14.0151 25.5734 14.5533C25.5551 15.0907 25.0893 15.5304 24.5603 15.4938C24.2992 15.485 24.0578 15.375 23.8796 15.1844C23.7015 14.9937 23.6083 14.7447 23.6178 14.4847C23.637 13.9581 24.0729 13.5421 24.5957 13.5421Z" fill="#153D5C"/>
<path d="M39.0591 28.1578C38.7518 28.1578 38.5023 28.4068 38.5023 28.7136L38.4982 29.0482C38.4907 29.3549 38.7342 29.6093 39.0421 29.6168C39.0462 29.6168 39.051 29.6168 39.0551 29.6168C39.357 29.6168 39.6045 29.3765 39.612 29.074L39.616 28.7136C39.616 28.4068 39.3665 28.1578 39.0591 28.1578Z" fill="#153D5C"/>
<path d="M37.6414 35.1082C37.3674 34.9657 37.0321 35.0723 36.89 35.3437C36.7771 35.5603 36.6589 35.7733 36.5358 35.9836C36.3807 36.249 36.4712 36.5889 36.737 36.7436C36.8248 36.7946 36.9213 36.819 37.0164 36.819C37.2082 36.819 37.3951 36.7206 37.4985 36.5428C37.6297 36.3176 37.7562 36.0895 37.8772 35.8581C38.0201 35.5852 37.914 35.25 37.6414 35.1082Z" fill="#153D5C"/>
<path d="M38.8081 31.519C38.5069 31.4485 38.209 31.6378 38.1404 31.9371C38.086 32.1746 38.0262 32.4101 37.9602 32.6428C37.8773 32.9387 38.05 33.2454 38.3458 33.3289C38.3968 33.3425 38.447 33.3493 38.4967 33.3493C38.7401 33.3493 38.9638 33.1891 39.0331 32.9441C39.1032 32.6937 39.1685 32.4406 39.2269 32.1855C39.295 31.8862 39.1079 31.5874 38.8081 31.519Z" fill="#153D5C"/>
<path d="M18.2067 41.0466C17.9959 40.9265 17.7878 40.8016 17.5839 40.6706C17.3241 40.505 16.9794 40.5803 16.8142 40.8375C16.6475 41.0961 16.723 41.4402 16.9815 41.6057C17.2031 41.7476 17.4275 41.8833 17.656 42.0129C17.7424 42.0624 17.8375 42.0855 17.9307 42.0855C18.1244 42.0855 18.3128 41.985 18.4155 41.8045C18.5678 41.538 18.4746 41.1986 18.2067 41.0466Z" fill="#153D5C"/>
<path d="M14.8117 38.3329C14.6036 38.1049 14.2521 38.0886 14.025 38.2955C13.7973 38.5018 13.7809 38.8534 13.9876 39.0807C14.1637 39.2741 14.3453 39.4634 14.5308 39.6466C14.6395 39.7544 14.781 39.8082 14.9231 39.8082C15.0666 39.8082 15.2094 39.7532 15.3182 39.6439C15.5351 39.4261 15.5338 39.0738 15.3155 38.8581C15.1436 38.6871 14.9756 38.5127 14.8117 38.3329Z" fill="#153D5C"/>
<path d="M12.7325 35.3592C12.5903 35.0878 12.2558 34.9812 11.9812 35.1237C11.7085 35.2655 11.6024 35.6008 11.7452 35.8735C11.8662 36.1056 11.9934 36.3343 12.126 36.5589C12.23 36.7346 12.4156 36.8323 12.6067 36.8323C12.7026 36.8323 12.7998 36.8079 12.889 36.7557C13.1542 36.5997 13.2418 36.259 13.0861 35.9943C12.963 35.7861 12.8453 35.575 12.7325 35.3592Z" fill="#153D5C"/>
<path d="M11.4784 31.9554C11.409 31.6562 11.1126 31.4695 10.8107 31.5374C10.5109 31.6059 10.3239 31.9045 10.3919 32.2037C10.451 32.4588 10.5156 32.7127 10.587 32.9638C10.6564 33.208 10.8794 33.3675 11.1229 33.3675C11.1732 33.3675 11.2241 33.3608 11.2751 33.3465C11.5709 33.2631 11.7429 32.9556 11.6586 32.6597C11.5926 32.4277 11.5321 32.193 11.4784 31.9554Z" fill="#153D5C"/>
<path d="M25.1749 42.782L24.8078 42.7874L24.4481 42.7827C24.1129 42.7569 23.8837 43.0168 23.8762 43.3235C23.868 43.6303 24.1101 43.886 24.4181 43.8943L24.8078 43.899L25.2048 43.8936C25.5122 43.8854 25.7549 43.6296 25.7467 43.3228C25.7386 43.0161 25.5115 42.7853 25.1749 42.782Z" fill="#153D5C"/>
<path d="M21.5719 42.3923C21.3359 42.334 21.1028 42.2688 20.8709 42.1976C20.5765 42.1005 20.2643 42.2702 20.1746 42.564C20.0835 42.8572 20.2473 43.1686 20.5418 43.2589C20.7926 43.3369 21.0463 43.4075 21.3026 43.4713C21.3482 43.4828 21.3931 43.4876 21.438 43.4876C21.6875 43.4876 21.9146 43.3186 21.9778 43.0662C22.052 42.7683 21.8704 42.4663 21.5719 42.3923Z" fill="#153D5C"/>
<path d="M32.0385 40.6674C31.8345 40.7983 31.6265 40.9232 31.4157 41.0434C31.1478 41.1954 31.0546 41.5347 31.2069 41.8014C31.3095 41.9819 31.498 42.0823 31.6917 42.0823C31.7849 42.0823 31.8801 42.0593 31.9664 42.0097C32.1948 41.8801 32.4193 41.7444 32.6396 41.6039C32.8987 41.4383 32.9741 41.0942 32.8082 40.8357C32.641 40.5764 32.2969 40.5018 32.0385 40.6674Z" fill="#153D5C"/>
<path d="M34.8097 38.3268C34.6459 38.5066 34.4779 38.6811 34.3052 38.8527C34.0869 39.0686 34.0856 39.4207 34.3024 39.6386C34.4112 39.7478 34.554 39.8028 34.6975 39.8028C34.8396 39.8028 34.9811 39.7492 35.0898 39.6412C35.2762 39.4573 35.4577 39.268 35.6337 39.0747C35.8404 38.8473 35.8241 38.4958 35.5963 38.2895C35.368 38.0825 35.0158 38.0988 34.8097 38.3268Z" fill="#153D5C"/>
<path d="M28.7517 42.1949C28.5199 42.2662 28.286 42.3314 28.05 42.391C27.7515 42.4657 27.5706 42.7683 27.646 43.0656C27.7093 43.318 27.9364 43.4856 28.1852 43.4856C28.2308 43.4856 28.2764 43.4802 28.322 43.4686C28.5769 43.4048 28.8299 43.3342 29.0794 43.2575C29.3731 43.1673 29.5383 42.8558 29.4479 42.5626C29.3576 42.2682 29.0413 42.1006 28.7517 42.1949Z" fill="#153D5C"/>
<path d="M10.5739 29.6169C10.8819 29.6095 11.1253 29.355 11.1178 29.0483L11.1138 28.7137C11.1138 28.407 10.8643 28.158 10.5569 28.158C10.2495 28.158 10 28.407 10 28.7137L10.004 29.0741C10.0115 29.3768 10.259 29.6169 10.5609 29.6169C10.565 29.6169 10.5698 29.6169 10.5739 29.6169Z" fill="#153D5C"/>
</svg>
