<svg width="42" height="42" viewBox="0 0 42 42" fill="none" xmlns="http://www.w3.org/2000/svg">
<path d="M16.4205 17.711L16.5905 17.8808C16.7604 18.0506 16.9983 18.1524 17.3041 18.1524C17.644 18.1524 18.0857 18.0506 18.5615 17.8129L19.9548 18.5259L19.547 18.8993C19.4111 19.0351 18.7314 19.7141 18.2557 20.2234C17.9838 20.529 17.7119 20.8345 17.4401 21.1401L15.0272 24.2296L10.2355 22.7697L8.57031 24.4333L17.576 33.4303L19.2412 31.7667L17.7799 26.9796L20.8724 24.5691C21.1783 24.3315 21.5181 24.0599 21.79 23.7543C22.2657 23.279 22.9794 22.566 23.1153 22.4642L23.5231 22.0568L24.1009 23.2111C23.6591 24.1617 23.5911 24.8407 23.9649 25.2142L24.1348 25.3839C24.3048 25.5537 24.5766 25.6556 24.8485 25.6556C25.0184 25.6556 25.1543 25.6216 25.3243 25.5877L29.4363 33.6001L30.7617 32.276C31.5433 31.4951 31.7812 30.2389 31.3734 29.0506L29.6742 22.4642L30.5238 21.6493C30.7277 21.4456 30.8636 21.1401 30.8976 20.8685C30.9316 20.5629 30.8296 20.2574 30.5917 20.0537L29.5043 18.8993C29.2664 18.6617 28.9605 18.5938 28.6547 18.5938L28.3148 17.2357L32.4948 13.0598C33.0386 12.5166 33.6843 11.498 34.0581 10.5814C34.5678 9.35913 34.5678 8.40851 34.0581 7.93319C32.9366 6.81281 29.946 8.47641 28.9265 9.49493L24.7465 13.7048L23.3192 13.3314C23.3532 13.0258 23.2513 12.7203 23.0474 12.4826L21.9599 11.3962C21.756 11.1925 21.4501 11.0567 21.1443 11.0906C20.8384 11.1246 20.5665 11.2264 20.3287 11.4641L19.4111 12.3808L12.9882 10.7172C11.7648 10.2758 10.5074 10.5135 9.72575 11.2943L8.40039 12.6184L16.2506 16.6246C16.1487 17.032 16.1827 17.4394 16.4205 17.711ZM12.7503 11.498L25.0184 14.6555L29.5382 10.14C30.014 9.66469 30.8976 9.08752 31.7132 8.78197C32.7327 8.37455 33.2764 8.40851 33.4464 8.57826C33.6163 8.74801 33.6503 9.29123 33.2425 10.3098C32.9026 11.1246 32.3589 12.0073 31.8831 12.4826L27.3633 16.9981L30.5238 29.2883C30.8296 30.205 30.6937 31.0877 30.1499 31.6649L29.6742 32.1402L23.761 20.5969L22.5036 21.8531C22.3677 21.9889 21.688 22.6679 21.2122 23.1432C20.9404 23.4148 20.6685 23.6525 20.3626 23.8901L16.7944 26.6741L18.2557 31.563L17.576 32.242L9.79372 24.4333L10.4734 23.7543L15.367 25.2142L18.1537 21.6493C18.3916 21.3438 18.6295 21.0722 18.9013 20.8006C19.3771 20.3253 20.0568 19.6123 20.1927 19.5104L21.4501 18.2543L9.86169 12.3468L10.3375 11.8715C10.8812 11.3283 11.7988 11.1925 12.7503 11.498ZM21.2122 11.9394C21.2462 11.9394 21.3142 11.9394 21.3482 11.9733L22.4357 13.0598C22.4357 13.0598 22.4357 13.0598 22.4357 13.0937L20.3966 12.5845L20.9404 12.0412C21.0083 11.9733 21.1103 11.9394 21.2122 11.9394C21.1783 11.9394 21.2122 11.9394 21.2122 11.9394ZM30.014 20.7666C30.014 20.8685 29.946 20.9364 29.8781 21.0043L29.4023 21.4796L28.8926 19.5444L29.946 20.6308C30.014 20.6648 30.014 20.7327 30.014 20.7666ZM24.7465 24.8068L24.6106 24.671C24.5766 24.6031 24.5766 24.4333 24.6446 24.2636L24.9504 24.8407C24.8485 24.8068 24.7805 24.8068 24.7465 24.8068ZM17.2022 17.2697L17.0662 17.1339C17.0662 17.0999 17.0662 17.066 17.0662 17.032L17.508 17.2697C17.3721 17.2697 17.2701 17.2697 17.2022 17.2697Z" fill="#153D5C"/>
</svg>
