<svg width="50" height="50" viewBox="0 0 50 50" fill="none" xmlns="http://www.w3.org/2000/svg">
<path d="M35.396 25.1295C35.396 19.4688 30.79 14.8639 25.1299 14.8639C19.4692 14.8639 14.8643 19.4688 14.8643 25.1295C14.8643 30.7896 19.4692 35.3957 25.1299 35.3957C30.79 35.3957 35.396 30.7896 35.396 25.1295ZM25.1299 34.5027C19.9614 34.5027 15.7561 30.2985 15.7561 25.1295C15.7561 19.961 19.9614 15.7557 25.1299 15.7557C30.2989 15.7557 34.5031 19.9611 34.5031 25.1295C34.5031 30.2985 30.2989 34.5027 25.1299 34.5027Z" fill="#153D5C"/>
<path d="M38.2594 25.1294C38.2594 17.8899 32.3695 12 25.1294 12C17.8899 12 12 17.8899 12 25.1294C12 32.3695 17.8899 38.2594 25.1294 38.2594C25.3755 38.2594 25.5753 38.059 25.5753 37.8129C25.5753 37.5668 25.3755 37.3665 25.1294 37.3665C18.3815 37.3665 12.8918 31.8774 12.8918 25.1295C12.8918 18.3815 18.3815 12.8918 25.1294 12.8918C31.8773 12.8918 37.3665 18.3815 37.3665 25.1294C37.3665 29.563 35.0199 33.5304 31.2176 35.7137L31.5659 34.7389C31.6487 34.507 31.5278 34.2511 31.2959 34.1683C31.0618 34.0856 30.8081 34.2065 30.7253 34.4384L29.9359 36.6477C29.9302 36.6635 29.9328 36.6796 29.929 36.6956C29.9257 36.709 29.9172 36.7198 29.9152 36.7338C29.9131 36.7482 29.9182 36.7614 29.9174 36.7756C29.9159 36.8079 29.9172 36.8383 29.9224 36.8696C29.9268 36.8963 29.9329 36.9212 29.942 36.9463C29.9523 36.975 29.9649 37.0009 29.9808 37.0269C29.9946 37.0495 30.0093 37.0699 30.0269 37.0897C30.0473 37.1127 30.0693 37.1324 30.0944 37.1511C30.1163 37.1674 30.1389 37.1807 30.1639 37.193C30.1789 37.2003 30.1898 37.2125 30.2059 37.2183C30.2243 37.2247 30.2427 37.2239 30.261 37.2279C30.272 37.2303 30.2806 37.2373 30.2919 37.239L32.6233 37.5809C32.645 37.5842 32.6668 37.5863 32.6886 37.5863C32.9053 37.5863 33.0959 37.4263 33.1285 37.2041C33.1645 36.9613 32.9957 36.7348 32.7518 36.6989L31.6343 36.535C35.7409 34.1991 38.2594 29.9039 38.2594 25.1294Z" fill="#153D5C"/>
<path d="M25.1295 19.4329C25.3756 19.4329 25.5754 19.2331 25.5754 18.987V16.9927C25.5754 16.7466 25.3756 16.5468 25.1295 16.5468C24.8834 16.5468 24.6836 16.7466 24.6836 16.9927V18.987C24.6837 19.2331 24.8835 19.4329 25.1295 19.4329Z" fill="#153D5C"/>
<path d="M21.4473 17.8599C21.3254 17.6476 21.0515 17.5741 20.8381 17.6971C20.6252 17.8202 20.5517 18.093 20.6753 18.3064L21.6721 20.0334C21.7543 20.176 21.9046 20.2561 22.0587 20.2561C22.1344 20.2561 22.2112 20.2371 22.2814 20.1962C22.4943 20.0732 22.5678 19.8004 22.4442 19.587L21.4473 17.8599Z" fill="#153D5C"/>
<path d="M20.033 21.6721L18.306 20.6753C18.0926 20.5511 17.8187 20.6246 17.6967 20.8381C17.5732 21.0515 17.6467 21.3243 17.8595 21.4473L19.5865 22.4442C19.6568 22.485 19.7335 22.504 19.8092 22.504C19.9633 22.504 20.1136 22.424 20.1958 22.2813C20.3194 22.0679 20.2459 21.7952 20.033 21.6721Z" fill="#153D5C"/>
<path d="M19.433 25.1294C19.433 24.8833 19.2332 24.6835 18.9871 24.6835H16.9928C16.7467 24.6835 16.5469 24.8833 16.5469 25.1294C16.5469 25.3755 16.7467 25.5753 16.9928 25.5753H18.9871C19.2332 25.5753 19.433 25.3755 19.433 25.1294Z" fill="#153D5C"/>
<path d="M19.5866 27.8136L17.8595 28.811C17.6467 28.934 17.5731 29.2073 17.6968 29.4208C17.779 29.5634 17.9293 29.644 18.0833 29.644C18.159 29.644 18.2358 29.6244 18.306 29.5841L20.033 28.5867C20.2459 28.4636 20.3194 28.1903 20.1958 27.9769C20.0733 27.7646 19.8 27.6916 19.5866 27.8136Z" fill="#153D5C"/>
<path d="M22.2814 30.0621C22.0669 29.939 21.7936 30.012 21.6721 30.2254L20.6753 31.9525C20.5517 32.1659 20.6252 32.4392 20.838 32.5622C20.9083 32.6025 20.985 32.6221 21.0607 32.6221C21.2148 32.6221 21.3651 32.5415 21.4473 32.3989L22.4442 30.6719C22.5678 30.4585 22.4943 30.1852 22.2814 30.0621Z" fill="#153D5C"/>
<path d="M25.1295 30.8254C24.8834 30.8254 24.6836 31.0258 24.6836 31.2719V33.2657C24.6836 33.5118 24.8834 33.7121 25.1295 33.7121C25.3756 33.7121 25.5754 33.5117 25.5754 33.2657V31.2719C25.5754 31.0258 25.3756 30.8254 25.1295 30.8254Z" fill="#153D5C"/>
<path d="M28.5868 30.2255C28.4627 30.012 28.1905 29.9401 27.977 30.0621C27.7636 30.1852 27.6906 30.4585 27.8137 30.6719L28.8111 32.3989C28.8939 32.5415 29.0441 32.6221 29.1977 32.6221C29.2739 32.6221 29.3502 32.6025 29.4209 32.5622C29.6343 32.4392 29.7073 32.1659 29.5843 31.9525L28.5868 30.2255Z" fill="#153D5C"/>
<path d="M32.3985 28.811L30.6715 27.8136C30.4581 27.6916 30.1848 27.7635 30.0617 27.9769C29.9387 28.1903 30.0117 28.4636 30.2251 28.5867L31.9521 29.5841C32.0229 29.6244 32.0991 29.644 32.1753 29.644C32.3289 29.644 32.4791 29.5634 32.5619 29.4208C32.6849 29.2073 32.6119 28.934 32.3985 28.811Z" fill="#153D5C"/>
<path d="M33.2654 24.6836H31.2716C31.0255 24.6836 30.8252 24.8834 30.8252 25.1295C30.8252 25.3756 31.0256 25.5754 31.2716 25.5754H33.2654C33.5115 25.5754 33.7118 25.3756 33.7118 25.1295C33.7118 24.8834 33.5115 24.6836 33.2654 24.6836Z" fill="#153D5C"/>
<path d="M30.4483 22.504C30.5245 22.504 30.6008 22.485 30.6715 22.4442L32.3985 21.4473C32.6119 21.3243 32.6849 21.0515 32.5619 20.838C32.4388 20.6252 32.1655 20.5511 31.9521 20.6753L30.2251 21.6721C30.0117 21.7952 29.9387 22.068 30.0617 22.2814C30.1445 22.424 30.2948 22.504 30.4483 22.504Z" fill="#153D5C"/>
<path d="M29.4209 17.6971C29.2064 17.5746 28.9353 17.6465 28.8111 17.8599L27.8137 19.5869C27.6906 19.8003 27.7636 20.0731 27.977 20.1962C28.0478 20.237 28.124 20.256 28.2003 20.256C28.3538 20.256 28.5041 20.176 28.5868 20.0333L29.5843 18.3063C29.7073 18.0929 29.6343 17.8202 29.4209 17.6971Z" fill="#153D5C"/>
<path d="M25.5754 24.1552V20.5828C25.5754 20.3366 25.3756 20.1368 25.1295 20.1368C24.8834 20.1368 24.6836 20.3366 24.6836 20.5828V24.1552C24.3131 24.3255 24.0526 24.695 24.0526 25.1294C24.0526 25.2531 24.0847 25.3675 24.1231 25.4782L22.7862 26.7628C22.6087 26.9327 22.6033 27.2158 22.7737 27.3933C22.8614 27.4837 22.9784 27.5305 23.0955 27.5305C23.2066 27.5305 23.3182 27.4891 23.4047 27.4053L24.7355 26.1268C24.858 26.1753 24.9897 26.2063 25.1295 26.2063C25.7243 26.2063 26.2065 25.7242 26.2065 25.1294C26.2065 24.695 25.946 24.3255 25.5754 24.1552Z" fill="#153D5C"/>
</svg>
