<svg width="50" height="50" viewBox="0 0 50 50" fill="none" xmlns="http://www.w3.org/2000/svg">
<path d="M24.9998 12C17.8315 12 12 17.8315 12 24.9998C12 32.168 17.8315 38 24.9998 38C32.168 38 38 32.168 38 24.9998C38 17.8315 32.168 12 24.9998 12ZM37.3639 24.6859H30.9707C30.9531 22.9817 30.7932 21.3667 30.5128 19.8977C32.2208 19.5935 33.9078 19.1448 35.5567 18.5551C36.6562 20.3497 37.3078 22.4452 37.3639 24.6859ZM35.2031 18.0123C33.627 18.5673 32.0165 18.9933 30.386 19.2833C29.7285 16.2918 28.563 13.9708 27.1175 12.8127C30.463 13.3924 33.352 15.318 35.2031 18.0123ZM19.6562 24.6859C19.6751 23.0315 19.8421 21.4466 20.1279 19.9998C21.7413 20.253 23.3701 20.3865 24.9994 20.3865C26.6286 20.3865 28.2575 20.2526 29.8708 19.9994C30.1567 21.4466 30.3237 23.0315 30.3425 24.6859H19.6562ZM30.3429 25.3137C30.3241 26.9676 30.1571 28.5525 29.8717 29.9993C26.6441 29.4929 23.3555 29.4933 20.1283 29.9997C19.8425 28.5525 19.6755 26.9676 19.6567 25.3137H30.3429ZM29.7411 19.3846C26.5998 19.8739 23.3998 19.8739 20.2585 19.3846C21.16 15.4117 22.9688 12.6278 24.9998 12.6278C27.0308 12.6278 28.8396 15.4117 29.7411 19.3846ZM22.8821 12.8127C21.4366 13.9708 20.271 16.2918 19.6131 19.2833C17.9826 18.9937 16.3722 18.5677 14.7961 18.0127C16.6471 15.3184 19.5365 13.3924 22.8821 12.8127ZM14.4428 18.5556C16.0914 19.1452 17.7788 19.5939 19.4867 19.8981C19.2063 21.3671 19.0465 22.9817 19.0285 24.6859H12.6357C12.6918 22.4452 13.3434 20.3497 14.4428 18.5556ZM12.6357 25.3137H19.0289C19.0465 27.0178 19.2063 28.6329 19.4872 30.1014C17.7792 30.4057 16.0922 30.8548 14.4433 31.444C13.3434 29.6499 12.6918 27.5544 12.6357 25.3137ZM14.7969 31.9873C16.3726 31.4323 17.983 31.0058 19.6136 30.7162C20.2715 33.7073 21.437 36.0284 22.8825 37.1868C19.5365 36.6072 16.6476 34.6816 14.7969 31.9873ZM20.2585 30.6145C23.3998 30.1249 26.5998 30.1249 29.7411 30.6145C28.8396 34.5875 27.0308 37.3722 24.9998 37.3722C22.9688 37.3722 21.16 34.5879 20.2585 30.6145ZM27.1175 37.1868C28.563 36.0284 29.7285 33.7078 30.3864 30.7158C32.017 31.0054 33.6278 31.4319 35.2039 31.9864C33.3524 34.6812 30.4635 36.6072 27.1175 37.1868ZM35.5572 31.4432C33.9082 30.8539 32.2208 30.4057 30.5128 30.101C30.7932 28.632 30.9531 27.0178 30.9707 25.3137H37.3639C37.3078 27.5544 36.6566 29.649 35.5572 31.4432Z" fill="#153D5C"/>
<path fill-rule="evenodd" clip-rule="evenodd" d="M11.7998 24.9998C11.7998 17.7211 17.7209 11.8 24.9996 11.8C32.2783 11.8 38.1998 17.7211 38.1998 24.9998C38.1998 32.2786 32.2783 38.2 24.9996 38.2C17.7209 38.2 11.7998 32.2785 11.7998 24.9998ZM37.3637 24.686C37.362 24.6192 37.3598 24.5525 37.3571 24.486C37.2683 22.3206 36.6232 20.2963 35.5565 18.5552C33.971 19.1222 32.3502 19.5588 30.7094 19.8621C30.6439 19.8742 30.5783 19.8861 30.5126 19.8978C30.5251 19.963 30.5373 20.0286 30.5493 20.0944C30.807 21.5104 30.9537 23.0575 30.9705 24.686H37.3637ZM37.1569 24.486H31.1678C31.1415 22.9194 30.9954 21.429 30.7461 20.0587C32.3441 19.7633 33.9233 19.3423 35.4696 18.7982C36.4676 20.4772 37.0707 22.4157 37.1569 24.486ZM35.2029 18.0124C35.1637 17.9553 35.124 17.8986 35.0839 17.8422C33.304 15.342 30.6191 13.531 27.511 12.8876C27.3805 12.8606 27.2492 12.8357 27.1173 12.8128C27.2182 12.8937 27.3179 12.9803 27.416 13.0723C28.7232 14.2984 29.7743 16.5009 30.3858 19.2834C30.3858 19.2834 30.3858 19.2834 30.3858 19.2834C31.9488 19.0054 33.4934 18.6024 35.007 18.0806C35.0723 18.0581 35.1377 18.0354 35.2029 18.0124ZM34.8868 17.9105C33.1951 15.5581 30.6864 13.8335 27.7803 13.1519C28.9932 14.4198 29.9544 16.4997 30.539 19.0524C32.0085 18.7813 33.4613 18.3989 34.8868 17.9105ZM19.656 24.686H30.3423C30.3415 24.6192 30.3405 24.5525 30.3393 24.486C30.3098 22.9039 30.145 21.3883 29.8706 19.9995C28.2573 20.2527 26.6284 20.3866 24.9992 20.3866C23.3699 20.3866 21.7411 20.2531 20.1277 19.9999C19.8534 21.3883 19.6886 22.9039 19.659 24.486C19.6578 24.5525 19.6568 24.6192 19.656 24.686ZM19.8591 24.486C19.8872 22.9878 20.0376 21.5506 20.2876 20.2269C21.8482 20.4625 23.4233 20.5866 24.9992 20.5866C26.5751 20.5866 28.1501 20.4621 29.7108 20.2264C29.9607 21.5506 30.1111 22.9878 30.1393 24.486H19.8591ZM19.6565 25.3137C19.6573 25.3805 19.6582 25.4472 19.6595 25.5137C19.689 27.0954 19.8538 28.611 20.1281 29.9998C23.3553 29.4934 26.6439 29.493 29.8715 29.9994C30.1454 28.611 30.3102 27.0954 30.3397 25.5137C30.341 25.4472 30.3419 25.3805 30.3427 25.3137H19.6565ZM30.1397 25.5137H19.8595C19.8876 27.0115 20.038 28.4487 20.288 29.7729C23.4107 29.3024 26.5884 29.302 29.7116 29.7724C29.9612 28.4486 30.1115 27.0115 30.1397 25.5137ZM29.7409 19.3847C29.7261 19.3192 29.711 19.2541 29.6956 19.1893C28.7798 15.3208 26.9972 12.6278 24.9996 12.6278C23.002 12.6278 21.2194 15.3208 20.3036 19.1893C20.2882 19.2541 20.2731 19.3192 20.2583 19.3847C20.3243 19.395 20.3904 19.405 20.4565 19.4149C23.4681 19.8638 26.5311 19.8638 29.5427 19.4149C29.6088 19.405 29.6749 19.395 29.7409 19.3847ZM29.4972 19.2194C29.0508 17.3402 28.4004 15.7533 27.629 14.6296C26.8251 13.4587 25.9176 12.8278 24.9996 12.8278C24.0816 12.8278 23.1741 13.4587 22.3702 14.6296C21.5988 15.7533 20.9484 17.3402 20.502 19.2194C23.4835 19.6623 26.5157 19.6623 29.4972 19.2194ZM22.8819 12.8128C22.7499 12.8357 22.6187 12.8606 22.4882 12.8876C19.3801 13.5311 16.6948 15.3424 14.9149 17.8426C14.8748 17.899 14.8351 17.9557 14.7959 18.0128C14.8611 18.0358 14.9264 18.0585 14.9918 18.081C16.5054 18.6028 18.0499 19.0058 19.6129 19.2834C20.2249 16.5009 21.276 14.2984 22.5832 13.0723C22.6813 12.9803 22.7809 12.8937 22.8819 12.8128ZM22.2189 13.1519C21.006 14.4198 20.0447 16.4997 19.4598 19.0524C17.9903 18.7817 16.5375 18.3993 15.112 17.9109C16.8037 15.5585 19.3127 13.8336 22.2189 13.1519ZM14.5296 18.7987C16.0756 19.3427 17.655 19.7637 19.2531 20.0591C19.0038 21.4294 18.8577 22.9195 18.831 24.486H12.8423C12.9285 22.4157 13.5316 20.4772 14.5296 18.7987ZM19.0282 24.686C19.0454 23.0575 19.1922 21.5108 19.4499 20.0948C19.4619 20.029 19.4741 19.9634 19.4865 19.8982C19.4209 19.8865 19.3553 19.8746 19.2898 19.8625C17.649 19.5592 16.0278 19.1226 14.4427 18.5556C13.376 20.2963 12.7309 22.3206 12.6421 24.486C12.6394 24.5525 12.6372 24.6192 12.6355 24.686H19.0282ZM12.6355 25.3137C12.6372 25.3805 12.6394 25.4472 12.6421 25.5137C12.7309 27.6791 13.376 29.7034 14.4431 31.4441C16.0286 30.8775 17.6494 30.4405 19.2902 30.1372C19.3557 30.1251 19.4213 30.1132 19.487 30.1015C19.4745 30.0362 19.4623 29.9707 19.4503 29.9049C19.1922 28.4892 19.0455 26.9422 19.0287 25.3137H12.6355ZM12.8423 25.5137H18.8314C18.8577 27.0802 19.0038 28.5706 19.2535 29.9406C17.6554 30.236 16.0763 30.6574 14.53 31.2011C13.5316 29.5225 12.9285 27.584 12.8423 25.5137ZM14.9926 31.919C14.9272 31.9416 14.862 31.9643 14.7967 31.9873C14.8359 32.0444 14.8756 32.1011 14.9157 32.1575C16.6953 34.6577 19.3802 36.4687 22.4887 37.1121C22.6192 37.1391 22.7504 37.164 22.8823 37.1869C22.7814 37.106 22.6818 37.0194 22.5837 36.9274C21.2765 35.701 20.2253 33.4985 19.6134 30.7163C19.6133 30.7163 19.6134 30.7163 19.6134 30.7163C18.0504 30.9939 16.5058 31.3973 14.9926 31.919ZM15.1128 32.0892C16.8042 34.4416 19.3129 36.1663 22.2195 36.8479C21.0065 35.5797 20.0452 33.4997 19.4602 30.9472C17.9908 31.218 16.538 31.6008 15.1128 32.0892ZM20.4565 30.5843C20.3904 30.5942 20.3243 30.6043 20.2583 30.6146C20.2731 30.68 20.2882 30.7452 20.3036 30.8099C21.2194 34.6789 23.002 37.3723 24.9996 37.3723C26.9972 37.3723 28.7798 34.6785 29.6956 30.8099C29.711 30.7452 29.7261 30.68 29.7409 30.6146C29.6749 30.6043 29.6088 30.5942 29.5427 30.5843C26.5311 30.135 23.4681 30.135 20.4565 30.5843ZM20.502 30.7798C20.9484 32.6593 21.5988 34.2464 22.3702 35.3702C23.1741 36.5413 24.0816 37.1723 24.9996 37.1723C25.9176 37.1723 26.8251 36.5412 27.6289 35.3701C28.4004 34.2462 29.0508 32.6591 29.4972 30.7798C26.5157 30.3365 23.4835 30.3365 20.502 30.7798ZM27.4159 36.9274C27.3178 37.0194 27.2182 37.106 27.1173 37.1869C27.2492 37.164 27.3804 37.1391 27.5109 37.1121C30.6194 36.4687 33.3044 34.6573 35.0847 32.1567C35.1248 32.1003 35.1645 32.0435 35.2037 31.9865C35.1385 31.9635 35.0732 31.9408 35.0078 31.9182C33.4942 31.3969 31.9493 30.9935 30.3862 30.7159C29.7743 33.4989 28.7231 35.7011 27.4159 36.9274ZM27.7801 36.8479C30.6867 36.1662 33.1955 34.4412 34.8876 32.0884C33.462 31.6003 32.0088 31.2176 30.5394 30.9468C29.9544 33.5 28.9931 35.5798 27.7801 36.8479ZM35.47 31.2002C36.468 29.5217 37.0707 27.5839 37.1569 25.5137H31.1678C31.1415 27.0802 30.9954 28.57 30.7461 29.9402C32.3441 30.2359 33.9236 30.6566 35.47 31.2002ZM30.7094 30.1368C32.3502 30.4404 33.9714 30.8766 35.557 31.4432C36.6236 29.7026 37.2684 27.6791 37.3571 25.5137C37.3598 25.4472 37.362 25.3805 37.3637 25.3137H30.9705C30.9537 26.9422 30.807 28.4885 30.5493 29.9045C30.5373 29.9703 30.5251 30.0358 30.5126 30.1011C30.5783 30.1128 30.6439 30.1247 30.7094 30.1368ZM11.9998 24.9998C11.9998 17.8316 17.8313 12 24.9996 12C32.1679 12 37.9998 17.8316 37.9998 24.9998C37.9998 32.1681 32.1679 38 24.9996 38C17.8313 38 11.9998 32.1681 11.9998 24.9998Z" fill="#153D5C"/>
</svg>
