<svg width="57" height="61" viewBox="0 0 57 61" fill="none" xmlns="http://www.w3.org/2000/svg">
<g opacity="0.8">
<path d="M47.019 35.8958C43.689 35.8958 40.755 37.6292 39.071 40.2473L29.496 36.6743C29.506 36.507 29.514 36.3377 29.514 36.1663C29.514 31.9301 26.072 28.4804 21.842 28.4804C21.342 28.4804 20.851 28.5314 20.379 28.6246L15.203 17.4098C17.496 15.6443 18.92 12.8158 18.92 9.70377C18.979 4.60984 14.684 0.366577 9.60001 0.366577C4.311 0.366577 0 4.60984 0 9.84204C0 15.0742 4.244 19.1782 9.31801 19.3175C10.083 19.3175 10.829 19.2233 11.543 19.051L16.719 30.2738C15.037 31.6856 13.963 33.8047 13.963 36.1663C13.963 37.8636 14.528 39.2784 15.375 40.5529L10.57 45.6448C9.63001 45.232 8.59101 44.9985 7.50401 44.9985C3.441 45.0667 0 48.4623 0 52.7967C0 57.1312 3.441 60.4346 7.62501 60.4837C11.855 60.4837 15.296 57.039 15.296 52.7967C15.296 51.0383 14.703 49.4181 13.709 48.1256L18.395 43.0557C19.419 43.6208 20.653 43.9044 21.782 43.8513C24.487 43.8513 26.871 42.4395 28.238 40.3114L37.636 43.706C37.553 44.211 37.508 44.729 37.508 45.254C37.508 50.348 41.743 54.5902 46.825 54.7265C52.038 54.7265 56.279 50.4772 56.279 45.254C56.474 40.2583 52.239 36.014 47.157 35.8958H47.019Z" fill="white"/>
<path d="M47.019 35.8958C43.689 35.8958 40.755 37.6292 39.071 40.2473L29.496 36.6743C29.506 36.507 29.514 36.3377 29.514 36.1663C29.514 31.9301 26.072 28.4804 21.842 28.4804C21.342 28.4804 20.851 28.5314 20.379 28.6246L15.203 17.4098C17.496 15.6443 18.92 12.8158 18.92 9.70377C18.979 4.60984 14.684 0.366577 9.60001 0.366577C4.311 0.366577 0 4.60984 0 9.84204C0 15.0742 4.244 19.1782 9.31801 19.3175C10.083 19.3175 10.829 19.2233 11.543 19.051L16.719 30.2738C15.037 31.6856 13.963 33.8047 13.963 36.1663C13.963 37.8636 14.528 39.2784 15.375 40.5529L10.57 45.6448C9.63001 45.232 8.59101 44.9985 7.50401 44.9985C3.441 45.0667 0 48.4623 0 52.7967C0 57.1312 3.441 60.4346 7.62501 60.4837C11.855 60.4837 15.296 57.039 15.296 52.7967C15.296 51.0383 14.703 49.4181 13.709 48.1256L18.395 43.0557C19.419 43.6208 20.653 43.9044 21.782 43.8513C24.487 43.8513 26.871 42.4395 28.238 40.3114L37.636 43.706C37.553 44.211 37.508 44.729 37.508 45.254C37.508 50.348 41.743 54.5902 46.825 54.7265C52.038 54.7265 56.279 50.4772 56.279 45.254C56.474 40.2583 52.239 36.014 47.157 35.8958H47.019Z" fill="url(#paint0_linear)"/>
<path d="M47.019 35.8958C43.689 35.8958 40.755 37.6292 39.071 40.2473L29.496 36.6743C29.506 36.507 29.514 36.3377 29.514 36.1663C29.514 31.9301 26.072 28.4804 21.842 28.4804C21.342 28.4804 20.851 28.5314 20.379 28.6246L15.203 17.4098C17.496 15.6443 18.92 12.8158 18.92 9.70377C18.979 4.60984 14.684 0.366577 9.60001 0.366577C4.311 0.366577 0 4.60984 0 9.84204C0 15.0742 4.244 19.1782 9.31801 19.3175C10.083 19.3175 10.829 19.2233 11.543 19.051L16.719 30.2738C15.037 31.6856 13.963 33.8047 13.963 36.1663C13.963 37.8636 14.528 39.2784 15.375 40.5529L10.57 45.6448C9.63001 45.232 8.59101 44.9985 7.50401 44.9985C3.441 45.0667 0 48.4623 0 52.7967C0 57.1312 3.441 60.4346 7.62501 60.4837C11.855 60.4837 15.296 57.039 15.296 52.7967C15.296 51.0383 14.703 49.4181 13.709 48.1256L18.395 43.0557C19.419 43.6208 20.653 43.9044 21.782 43.8513C24.487 43.8513 26.871 42.4395 28.238 40.3114L37.636 43.706C37.553 44.211 37.508 44.729 37.508 45.254C37.508 50.348 41.743 54.5902 46.825 54.7265C52.038 54.7265 56.279 50.4772 56.279 45.254C56.474 40.2583 52.239 36.014 47.157 35.8958H47.019Z" fill="url(#paint1_linear)"/>
</g>
<defs>
<linearGradient id="paint0_linear" x1="28.1428" y1="0.366577" x2="28.1428" y2="60.4837" gradientUnits="userSpaceOnUse">
<stop stop-color="white"/>
<stop offset="1" stop-color="white" stop-opacity="0"/>
</linearGradient>
<linearGradient id="paint1_linear" x1="28.1428" y1="0.366577" x2="28.1428" y2="60.4837" gradientUnits="userSpaceOnUse">
<stop stop-color="#028088"/>
<stop offset="1" stop-color="white" stop-opacity="0"/>
</linearGradient>
</defs>
</svg>
