<svg width="52" height="52" viewBox="0 0 52 52" fill="none" xmlns="http://www.w3.org/2000/svg">
<path d="M26.2486 1.02539C12.5039 1.02539 1.32227 12.207 1.32227 25.9517C1.32227 39.6965 12.5039 50.8789 26.2486 50.8789C39.9934 50.8789 51.1758 39.6965 51.1758 25.9517C51.1758 12.207 39.9934 1.02539 26.2486 1.02539ZM49.956 25.3499H37.6975C37.6638 22.0822 37.3572 18.9855 36.8196 16.1688C40.0945 15.5854 43.3292 14.7252 46.491 13.5945C48.599 17.0355 49.8485 21.0535 49.956 25.3499ZM45.8129 12.5537C42.7908 13.6178 39.7029 14.4347 36.5764 14.9908C35.3157 9.25473 33.0809 4.80423 30.3091 2.58379C36.7241 3.69521 42.2635 7.38738 45.8129 12.5537ZM16.0027 25.3499C16.0388 22.1777 16.359 19.1388 16.9071 16.3646C20.0006 16.8501 23.1238 17.1061 26.2478 17.1061C29.3718 17.1061 32.4951 16.8493 35.5886 16.3638C36.1367 19.1388 36.4569 22.1777 36.493 25.3499H16.0027ZM36.4938 26.5536C36.4577 29.725 36.1375 32.7639 35.5902 35.5381C29.4015 34.5671 23.0957 34.5679 16.9079 35.5389C16.3598 32.7639 16.0396 29.725 16.0035 26.5536H36.4938ZM35.3398 15.185C29.3165 16.1231 23.1808 16.1231 17.1574 15.185C18.886 7.56714 22.3542 2.2291 26.2486 2.2291C30.143 2.2291 33.6113 7.56714 35.3398 15.185ZM22.1881 2.58379C19.4164 4.80423 17.1815 9.25473 15.92 14.9908C12.7936 14.4355 9.70568 13.6186 6.68357 12.5545C10.2329 7.38818 15.7732 3.69521 22.1881 2.58379ZM6.00629 13.5953C9.16722 14.726 12.4028 15.5862 15.6777 16.1696C15.14 18.9863 14.8335 22.0822 14.799 25.3499H2.54122C2.64875 21.0535 3.8982 17.0355 6.00629 13.5953ZM2.54122 26.5536H14.7998C14.8335 29.8213 15.14 32.918 15.6785 35.7339C12.4036 36.3173 9.16883 37.1783 6.00709 38.3082C3.8982 34.868 2.64875 30.85 2.54122 26.5536ZM6.68518 39.3498C9.70648 38.2857 12.7944 37.468 15.9208 36.9127C17.1823 42.648 19.4172 47.0985 22.1889 49.3197C15.7732 48.2083 10.2337 44.5161 6.68518 39.3498ZM17.1574 36.7177C23.1808 35.7788 29.3165 35.7788 35.3398 36.7177C33.6113 44.3356 30.143 49.6752 26.2486 49.6752C22.3542 49.6752 18.886 44.3364 17.1574 36.7177ZM30.3091 49.3197C33.0809 47.0985 35.3157 42.6488 36.5772 36.9119C39.7037 37.4672 42.7924 38.2849 45.8145 39.3482C42.2643 44.5153 36.7249 48.2083 30.3091 49.3197ZM46.4918 38.3066C43.33 37.1767 40.0945 36.3173 36.8196 35.7331C37.3572 32.9164 37.6638 29.8213 37.6975 26.5536H49.956C49.8485 30.85 48.5999 34.8664 46.4918 38.3066Z" fill="white"/>
<path fill-rule="evenodd" clip-rule="evenodd" d="M0.939453 25.9505C0.939453 11.994 12.2928 0.640625 26.2493 0.640625C40.2058 0.640625 51.56 11.9939 51.56 25.9505C51.56 39.907 40.2058 51.2611 26.2493 51.2611C12.2928 51.2611 0.939453 39.907 0.939453 25.9505ZM49.9567 25.3486C49.9535 25.2205 49.9493 25.0927 49.9441 24.9651C49.7739 20.8131 48.5369 16.9316 46.4916 13.5932C43.4514 14.6805 40.3436 15.5176 37.1976 16.0991C37.0719 16.1223 36.9461 16.1451 36.8203 16.1675C36.8441 16.2927 36.8676 16.4183 36.8905 16.5446C37.3846 19.2597 37.666 22.2261 37.6982 25.3486H49.9567ZM49.5602 24.9651H38.0765C38.026 21.9614 37.746 19.1035 37.2679 16.4761C40.332 15.9097 43.36 15.1024 46.325 14.0592C48.2386 17.2785 49.3949 20.9956 49.5602 24.9651ZM45.8135 12.5524C45.7384 12.443 45.6623 12.3342 45.5853 12.2261C42.1725 7.43217 37.0243 3.95972 31.0648 2.72603C30.8146 2.67422 30.5629 2.62636 30.3098 2.58251C30.5034 2.73763 30.6944 2.90363 30.8827 3.08019C33.389 5.43103 35.4045 9.65415 36.5771 14.9895C36.5771 14.9895 36.5771 14.9895 36.5771 14.9895C39.5741 14.4564 42.5357 13.6837 45.4379 12.6833C45.5632 12.6401 45.6884 12.5965 45.8135 12.5524ZM45.2074 12.357C41.9637 7.84654 37.1535 4.53965 31.5811 3.23268C33.9068 5.66378 35.7499 9.65194 36.8707 14.5466C39.6884 14.0267 42.4741 13.2935 45.2074 12.357ZM16.0034 25.3486H36.4936C36.4922 25.2206 36.4903 25.0927 36.4879 24.9651C36.4313 21.9315 36.1152 19.0255 35.5893 16.3625C32.4957 16.848 29.3725 17.1048 26.2485 17.1048C23.1245 17.1048 20.0013 16.8488 16.9077 16.3633C16.3818 19.0255 16.0657 21.9315 16.0091 24.9651C16.0067 25.0927 16.0048 25.2206 16.0034 25.3486ZM16.3927 24.9651C16.4466 22.0926 16.735 19.3368 17.2142 16.7985C20.2067 17.2504 23.2268 17.4883 26.2485 17.4883C29.2703 17.4883 32.2903 17.2497 35.2827 16.7978C35.762 19.3367 36.0504 22.0925 36.1043 24.9651H16.3927ZM16.0042 26.5523C16.0057 26.6804 16.0075 26.8082 16.0099 26.9358C16.0665 29.9687 16.3826 32.8747 16.9085 35.5376C23.0964 34.5666 29.4022 34.5658 35.5909 35.5368C36.1161 32.8747 36.4321 29.9687 36.4887 26.9358C36.4911 26.8082 36.4929 26.6804 36.4944 26.5523H16.0042ZM36.1051 26.9358H16.3935C16.4474 29.8077 16.7358 32.5635 17.2151 35.1025C23.2028 34.2003 29.2958 34.1996 35.2843 35.1017C35.7629 32.5634 36.0512 29.8077 36.1051 26.9358ZM35.3405 15.1837C35.312 15.0582 35.2831 14.9334 35.2537 14.8091C33.4976 7.39144 30.0795 2.22782 26.2493 2.22782C22.4191 2.22782 19.001 7.39144 17.2449 14.8091C17.2155 14.9334 17.1866 15.0582 17.1581 15.1837C17.2848 15.2034 17.4115 15.2227 17.5382 15.2416C23.3127 16.1025 29.1859 16.1025 34.9604 15.2416C35.0871 15.2227 35.2138 15.2034 35.3405 15.1837ZM34.8732 14.8669C34.0172 11.2635 32.7702 8.22079 31.2909 6.06612C29.7496 3.82098 28.0096 2.61131 26.2493 2.61131C24.489 2.61131 22.749 3.82098 21.2077 6.06612C19.7284 8.22079 18.4814 11.2635 17.6254 14.8669C23.3423 15.7161 29.1563 15.7161 34.8732 14.8669ZM22.1888 2.58251C21.9357 2.62636 21.684 2.67422 21.4338 2.72603C15.4742 3.95978 10.3254 7.43294 6.91247 12.2269C6.83551 12.335 6.75944 12.4438 6.68425 12.5532C6.80935 12.5973 6.93457 12.6409 7.0599 12.6841C9.96208 13.6845 12.9237 14.4572 15.9207 14.9895C17.0941 9.65417 19.1096 5.43104 21.6159 3.08019C21.8042 2.90363 21.9952 2.73763 22.1888 2.58251ZM20.9175 3.23269C18.5917 5.66381 16.7486 9.65201 15.6271 14.5467C12.8094 14.0275 10.0238 13.2943 7.29037 12.3578C10.5342 7.84729 15.345 4.53976 20.9175 3.23269ZM6.17359 14.06C9.13795 15.1032 12.1665 15.9105 15.2307 16.4769C14.7526 19.1043 14.4725 21.9615 14.4214 24.9651H2.93836C3.10367 20.9956 4.26 17.2786 6.17359 14.06ZM14.7996 25.3486C14.8325 22.2261 15.114 19.2604 15.6081 16.5454C15.631 16.4191 15.6545 16.2935 15.6783 16.1683C15.5525 16.1459 15.4267 16.1231 15.301 16.0999C12.1549 15.5184 9.04644 14.6813 6.00697 13.594C3.96172 16.9317 2.72468 20.8131 2.55455 24.9651C2.54932 25.0927 2.5451 25.2205 2.5419 25.3486H14.7996ZM2.5419 26.5523C2.5451 26.6804 2.54932 26.8082 2.55455 26.9358C2.72468 31.0878 3.96174 34.9693 6.00777 38.3069C9.04801 37.2205 12.1558 36.3826 15.3018 35.8011C15.4275 35.7778 15.5533 35.755 15.6791 35.7326C15.6552 35.6075 15.6318 35.4818 15.6088 35.3556C15.114 32.6412 14.8327 29.6748 14.8004 26.5523H2.5419ZM2.93836 26.9358H14.4221C14.4726 29.9394 14.7526 32.7973 15.2314 35.4241C12.1672 35.9905 9.1393 36.7985 6.17439 37.841C4.26006 34.6225 3.10367 30.9054 2.93836 26.9358ZM7.06147 39.2176C6.93615 39.2608 6.81095 39.3045 6.68586 39.3485C6.76102 39.458 6.83709 39.5667 6.91403 39.6749C10.3262 44.4689 15.4745 47.9414 21.4348 49.175C21.685 49.2268 21.9366 49.2746 22.1896 49.3184C21.996 49.1633 21.8051 48.9973 21.617 48.8208C19.1105 46.4694 17.0949 42.2462 15.9215 36.9114C15.9215 36.9114 15.9215 36.9114 15.9215 36.9114C12.9245 37.4437 9.96291 38.2172 7.06147 39.2176ZM7.29189 39.5439C10.5351 44.0545 15.3454 47.3615 20.9186 48.6684C18.5928 46.2368 16.7495 42.2486 15.6279 37.3543C12.8103 37.8735 10.0247 38.6073 7.29189 39.5439ZM17.5382 36.6585C17.4114 36.6774 17.2848 36.6967 17.1581 36.7164C17.1866 36.8419 17.2155 36.9668 17.2449 37.091C19.001 44.5095 22.4191 49.6739 26.2493 49.6739C30.0795 49.6739 33.4976 44.5088 35.2537 37.091C35.2831 36.9668 35.312 36.8419 35.3405 36.7164C35.2138 36.6967 35.0872 36.6774 34.9604 36.6584C29.1859 35.7969 23.3127 35.7969 17.5382 36.6585ZM17.6253 37.0332C18.4814 40.637 19.7284 43.6802 21.2077 45.8351C22.7491 48.0806 24.489 49.2904 26.2493 49.2904C28.0095 49.2904 29.7495 48.0804 31.2909 45.8349C32.7702 43.6798 34.0172 40.6366 34.8733 37.0332C29.1563 36.1833 23.3423 36.1833 17.6253 37.0332ZM30.8825 48.8208C30.6943 48.9973 30.5034 49.1633 30.3098 49.3184C30.5628 49.2746 30.8144 49.2268 31.0646 49.175C37.025 47.9413 42.1733 44.468 45.5869 39.6733C45.6639 39.5651 45.74 39.4564 45.8152 39.3469C45.69 39.3029 45.5648 39.2593 45.4395 39.2161C42.5372 38.2164 39.5749 37.4429 36.5779 36.9106C35.4045 42.2469 33.3889 46.4695 30.8825 48.8208ZM31.5808 48.6684C37.154 47.3614 41.9644 44.0538 45.209 39.5424C42.4755 38.6065 39.6891 37.8727 36.8715 37.3535C35.7499 42.2491 33.9067 46.2369 31.5808 48.6684ZM46.3258 37.8394C48.2393 34.6209 49.395 30.9053 49.5602 26.9358H38.0765C38.026 29.9394 37.746 32.796 37.2678 35.4234C40.332 35.9903 43.3607 36.797 46.3258 37.8394ZM37.1976 35.8004C40.3437 36.3824 43.4522 37.2189 46.4924 38.3053C48.5377 34.9677 49.774 31.0877 49.9441 26.9358C49.9493 26.8082 49.9535 26.6804 49.9567 26.5523H37.6982C37.666 29.6748 37.3846 32.6398 36.8905 35.3548C36.8676 35.481 36.8441 35.6067 36.8203 35.7318C36.9461 35.7542 37.0719 35.7771 37.1976 35.8004ZM1.32294 25.9505C1.32294 12.2057 12.5046 1.02411 26.2493 1.02411C39.994 1.02411 51.1765 12.2057 51.1765 25.9505C51.1765 39.6952 39.994 50.8776 26.2493 50.8776C12.5046 50.8776 1.32294 39.6952 1.32294 25.9505Z" fill="white"/>
</svg>
