<svg width="15" height="20" viewBox="0 0 15 20" fill="none" xmlns="http://www.w3.org/2000/svg">
<path d="M0.309893 10.2532C0.319964 10.5819 0.489558 10.896 0.785845 11.1348L11.2301 19.4322C11.5515 19.6854 11.9914 19.8311 12.4533 19.8373C12.9153 19.8436 13.3617 19.7099 13.6947 19.4656C14.0277 19.2212 14.22 18.8862 14.2297 18.5339C14.2393 18.1815 14.0653 17.8407 13.7459 17.586L4.45768 10.2117L13.7459 2.83745C14.0653 2.58278 14.2393 2.24192 14.2297 1.8896C14.22 1.53727 14.0277 1.20222 13.6947 0.957888C13.3617 0.713554 12.9153 0.57988 12.4533 0.586148C11.9914 0.592417 11.5515 0.73812 11.2301 0.991333L0.785845 9.28868C0.626222 9.41714 0.501887 9.56865 0.420151 9.73429C0.338416 9.89994 0.300928 10.0764 0.309893 10.2532Z"/>
</svg>
