<svg width="60" height="61" viewBox="0 0 60 61" fill="none" xmlns="http://www.w3.org/2000/svg">
<g opacity="0.8">
<path fill-rule="evenodd" clip-rule="evenodd" d="M45.6313 0.366577H57.1573L60 60.4837H42.6314L42.6314 60.4838H0V28.8434L18.9467 19.3509V28.8434L37.8947 19.3509V28.8434H42.4575L42.5 27.9203L45.6313 0.366577ZM6.31534 54.1554H12.6313V47.8271H6.31534V54.1554ZM6.31534 41.4994H12.6313V35.1711H6.31534V41.4994ZM18.9467 54.1554H25.2627V47.8271H18.9467V54.1554ZM18.9467 41.4994H25.2627V35.1711H18.9467V41.4994ZM31.5787 54.1554H37.8947V47.8271H31.5787V54.1554ZM31.5787 41.4994H37.8947V35.1711H31.5787V41.4994Z" fill="white"/>
<path fill-rule="evenodd" clip-rule="evenodd" d="M45.6313 0.366577H57.1573L60 60.4837H42.6314L42.6314 60.4838H0V28.8434L18.9467 19.3509V28.8434L37.8947 19.3509V28.8434H42.4575L42.5 27.9203L45.6313 0.366577ZM6.31534 54.1554H12.6313V47.8271H6.31534V54.1554ZM6.31534 41.4994H12.6313V35.1711H6.31534V41.4994ZM18.9467 54.1554H25.2627V47.8271H18.9467V54.1554ZM18.9467 41.4994H25.2627V35.1711H18.9467V41.4994ZM31.5787 54.1554H37.8947V47.8271H31.5787V54.1554ZM31.5787 41.4994H37.8947V35.1711H31.5787V41.4994Z" fill="url(#paint0_linear)"/>
<path fill-rule="evenodd" clip-rule="evenodd" d="M45.6313 0.366577H57.1573L60 60.4837H42.6314L42.6314 60.4838H0V28.8434L18.9467 19.3509V28.8434L37.8947 19.3509V28.8434H42.4575L42.5 27.9203L45.6313 0.366577ZM6.31534 54.1554H12.6313V47.8271H6.31534V54.1554ZM6.31534 41.4994H12.6313V35.1711H6.31534V41.4994ZM18.9467 54.1554H25.2627V47.8271H18.9467V54.1554ZM18.9467 41.4994H25.2627V35.1711H18.9467V41.4994ZM31.5787 54.1554H37.8947V47.8271H31.5787V54.1554ZM31.5787 41.4994H37.8947V35.1711H31.5787V41.4994Z" fill="url(#paint1_linear)"/>
</g>
<defs>
<linearGradient id="paint0_linear" x1="22.1053" y1="19.3509" x2="22.1053" y2="60.4838" gradientUnits="userSpaceOnUse">
<stop stop-color="white"/>
<stop offset="1" stop-color="white" stop-opacity="0"/>
</linearGradient>
<linearGradient id="paint1_linear" x1="30" y1="0.366577" x2="30" y2="60.4838" gradientUnits="userSpaceOnUse">
<stop stop-color="#028088"/>
<stop offset="1" stop-color="white" stop-opacity="0"/>
</linearGradient>
</defs>
</svg>
