<svg width="25" height="18" viewBox="0 0 25 18" fill="none" xmlns="http://www.w3.org/2000/svg">
<path d="M11.0168 11.5886L11.0168 11.5887C11.4265 11.9925 11.9641 12.1937 12.4999 12.1937C13.0357 12.1937 13.5733 11.9925 13.983 11.5887L13.983 11.5886L15.4443 10.1477L22.2815 16.1678H2.77419L9.46898 10.0623L11.0168 11.5886ZM13.2308 10.8153L13.2307 10.8154C12.8286 11.2122 12.1718 11.2125 11.7691 10.8153L11.7691 10.8153L2.65926 1.83222H22.3406L13.2308 10.8153ZM1.2875 17.25H23.7125C24.0122 17.25 24.25 17.005 24.25 16.7089V1.29111C24.25 0.995005 24.0122 0.75 23.7125 0.75H1.2875C0.987802 0.75 0.75 0.995006 0.75 1.29111V16.7089C0.75 17.005 0.987803 17.25 1.2875 17.25ZM23.175 2.52458V15.5165L16.2147 9.38803L23.175 2.52458ZM1.825 2.52472L8.69955 9.30361L1.825 15.573V2.52472Z" fill="#049990" stroke="#149F97" stroke-width="0.5"/>
</svg>
