<svg width="23" height="23" viewBox="0 0 23 23" fill="none" xmlns="http://www.w3.org/2000/svg">
<path d="M15.5456 13.6114L15.5456 13.6114L15.5455 13.6116L15.5454 13.6116L15.5448 13.6122L15.5424 13.6147L15.5328 13.6242L15.4963 13.6606L15.3659 13.7907L14.969 14.1865L14.5682 14.5857C14.5 14.6536 14.4487 14.7045 14.4183 14.7347C14.3971 14.7557 14.3861 14.7667 14.3865 14.7664L14.3864 14.7664C14.2081 14.926 14.0962 14.9723 14.0292 14.9842C13.9731 14.9942 13.8887 14.9862 13.7343 14.9181L8.08135 9.26509C8.01116 9.10895 8.00524 9.02992 8.01576 8.97085C8.02999 8.89099 8.08305 8.7594 8.28485 8.54948L9.38842 7.44591C9.71667 7.11766 10.092 6.66058 10.092 5.97392C10.092 5.32312 9.7645 4.86938 9.38842 4.4933L6.34899 1.45387C5.97677 1.08165 5.46808 0.737019 4.85429 0.750373L4.85428 0.750373C4.51951 0.75767 4.23975 0.830193 3.99317 0.962122C3.74891 1.09281 3.54997 1.27504 3.36774 1.48329L3.55588 1.64792L3.36774 1.48329L1.43356 3.69379C0.897323 4.30662 0.75 5.16589 0.75 5.97392C0.75 7.3523 1.24915 9.07667 2.20112 10.9098C3.15507 12.7467 4.57175 14.7084 6.42715 16.5642L6.42719 16.5642C8.28293 18.4196 10.2468 19.8384 12.0858 20.7945C13.9209 21.7486 15.6475 22.25 17.0261 22.25C17.8341 22.25 18.6934 22.1027 19.3062 21.5664L21.5167 19.6323L21.3521 19.4441L21.5167 19.6323C21.7259 19.4492 21.9079 19.2478 22.0384 19.0015C22.1699 18.7532 22.2423 18.4717 22.2496 18.1371V18.1371C22.263 17.5222 21.9171 17.022 21.5461 16.651L21.3694 16.8278L21.5461 16.651L18.5067 13.6116L18.3299 13.7883M15.5456 13.6114L15.7222 13.7883C16.0376 13.473 16.4419 13.158 17.0261 13.158C17.5798 13.158 17.9732 13.4317 18.3299 13.7883M15.5456 13.6114C15.8753 13.2818 16.3406 12.908 17.0261 12.908C17.6769 12.908 18.1306 13.2355 18.5067 13.6116L18.3299 13.7883M15.5456 13.6114L18.3299 13.7883M4.88244 1.80288L4.88244 1.80288C5.06853 1.79882 5.32098 1.91873 5.59824 2.19599L8.63766 5.23542C8.79955 5.39731 8.8961 5.50802 8.95576 5.61474C9.01026 5.71223 9.03935 5.8166 9.03935 5.97392C9.03935 6.26204 8.91975 6.42171 8.63766 6.70379L7.53242 7.80904L7.53239 7.80901L7.52913 7.81239C7.24527 8.1071 7.04374 8.41904 6.97952 8.77954L6.97936 8.78046C6.90185 9.22508 7.03 9.59215 7.22271 9.89132L7.23719 9.91381L7.2561 9.93272L13.0587 15.7353L13.0769 15.7535L13.0985 15.7676C13.4206 15.9786 13.8708 16.0757 14.2079 16.0212L14.2079 16.0212L14.2119 16.0205C14.5332 15.9632 14.816 15.7968 15.0821 15.5606L15.0824 15.5603C15.1042 15.5409 15.4142 15.2325 15.7053 14.9425L16.1121 14.5373L16.2454 14.4044L16.2828 14.3672L16.2926 14.3574L16.2951 14.3549L16.2957 14.3543L16.2959 14.3541L16.2959 14.3541L16.1194 14.177L16.2959 14.354L16.2962 14.3538C16.5745 14.0755 16.7352 13.9607 17.0261 13.9607H17.0261C17.1856 13.9607 17.2878 13.9886 17.3821 14.0406C17.4858 14.0979 17.5939 14.1917 17.756 14.3538L20.7954 17.3932C21.0742 17.6721 21.2011 17.9328 21.1971 18.1176C21.192 18.3512 21.1668 18.4513 21.1271 18.5245C21.0831 18.6055 21.0074 18.6818 20.8248 18.8416L18.6143 20.7758C18.3033 21.0479 17.722 21.1974 17.0261 21.1974C15.8961 21.1974 14.3308 20.7535 12.5894 19.8509C10.853 18.9508 8.96027 17.6042 7.1779 15.8221C5.39589 14.0397 4.04923 12.1469 3.1492 10.4106C2.24652 8.66922 1.80262 7.10385 1.80262 5.97392C1.80262 5.27796 1.95222 4.69665 2.22431 4.3857L2.03617 4.22107L2.22431 4.3857L4.15849 2.1752L3.97035 2.01058L4.1585 2.1752C4.31825 1.99263 4.39457 1.91689 4.47561 1.87289C4.54875 1.83317 4.64887 1.80796 4.88244 1.80288Z" fill="#049990" stroke="#149F97" stroke-width="0.5"/>
</svg>
