<svg width="57" height="63" viewBox="0 0 57 63" fill="none" xmlns="http://www.w3.org/2000/svg">
<path d="M20.7607 35.9034C22.2616 34.3995 22.9242 32.3944 22.8056 30.4267C20.8431 30.3092 18.8406 30.9717 17.3396 32.4756C15.8387 33.9795 15.1762 35.9859 15.2947 37.9523C17.2598 38.071 19.261 37.4072 20.7607 35.9034Z" fill="url(#paint0_linear)"/>
<path d="M23.8331 40.8886C21.1881 38.3396 17.1095 38.1646 14.1475 40.196C14.0065 37.9158 13.3852 35.3144 11.6709 32.9292L9.51371 34.2543C10.9835 35.7594 11.9342 38.1384 12.5393 40.3535C9.56362 38.1659 5.35775 38.2784 2.64782 40.8886C0.455678 43.0862 0.0177483 46.0502 0.000281029 48.5817C-0.0471302 55.416 5.91046 65.833 13.2405 62.1127C20.5705 65.833 26.5281 55.416 26.4794 48.5817C26.4632 46.0502 26.0253 43.0862 23.8331 40.8886Z" fill="url(#paint1_linear)"/>
<rect x="39" width="11" height="3" fill="url(#paint2_linear)"/>
<path fill-rule="evenodd" clip-rule="evenodd" d="M31 61H57V11L52.5 5.5H36L31 12V61ZM33 14L38 8H40.5V23L33 29V14Z" fill="url(#paint3_linear)"/>
<defs>
<linearGradient id="paint0_linear" x1="19.0502" y1="30.4135" x2="19.0502" y2="37.9658" gradientUnits="userSpaceOnUse">
<stop stop-color="#26B7B4"/>
<stop offset="1" stop-color="white"/>
</linearGradient>
<linearGradient id="paint1_linear" x1="13.2399" y1="32.9292" x2="13.2399" y2="62.8934" gradientUnits="userSpaceOnUse">
<stop stop-color="#26B7B4"/>
<stop offset="1" stop-color="white"/>
</linearGradient>
<linearGradient id="paint2_linear" x1="44.5" y1="0" x2="44.5" y2="3" gradientUnits="userSpaceOnUse">
<stop stop-color="#2AC7BE"/>
<stop offset="1" stop-color="white"/>
</linearGradient>
<linearGradient id="paint3_linear" x1="44" y1="5.5" x2="44" y2="61" gradientUnits="userSpaceOnUse">
<stop stop-color="#2AC7BE"/>
<stop offset="1" stop-color="white"/>
</linearGradient>
</defs>
</svg>
