<svg width="44" height="54" viewBox="0 0 44 54" fill="none" xmlns="http://www.w3.org/2000/svg">
<g opacity="0.8">
<path fill-rule="evenodd" clip-rule="evenodd" d="M27.9641 3.53222L26.6647 8.4743H16.4066L15.0987 3.53222C14.999 3.16146 14.9858 2.77267 15.0601 2.39598C15.1345 2.01929 15.2944 1.66481 15.5275 1.36002C15.7606 1.05523 16.0607 0.808315 16.4043 0.638408C16.748 0.4685 17.1261 0.380165 17.5094 0.380249H25.5534C25.9367 0.380165 26.3148 0.4685 26.6585 0.638408C27.0021 0.808315 27.3022 1.05523 27.5353 1.36002C27.7684 1.66481 27.9283 2.01929 28.0027 2.39598C28.077 2.77267 28.0638 3.16146 27.9641 3.53222ZM42.8127 37.9297C42.6072 37.9555 42.4077 38.0163 42.2228 38.1096C40.3448 39.076 38.2637 39.5794 36.1524 39.5779C34.0412 39.5764 31.9608 39.0701 30.0841 38.101L18.9711 32.3624C16.8172 31.2461 14.4461 30.6141 12.0233 30.5106C9.60042 30.407 7.18421 30.8344 4.9432 31.7628L2.33594 32.8164C3.08212 31.7131 3.98658 30.726 5.02014 29.8871L15.2098 21.5361C15.286 21.4737 15.3477 21.3954 15.3905 21.3066C15.4333 21.2179 15.4563 21.1208 15.4578 21.0222V16.654C15.6993 16.7062 15.9458 16.7321 16.1929 16.7311H26.981C27.1934 16.7328 27.4053 16.7127 27.6136 16.6711V21.0222C27.6134 21.1202 27.6348 21.217 27.6761 21.3059C27.7175 21.3947 27.7779 21.4733 27.8529 21.5361L38.0512 29.8871C39.1812 30.8034 40.1593 31.8933 40.9491 33.1161C41.7305 34.3083 42.3083 35.6224 42.6588 37.0047C42.7357 37.313 42.7956 37.6214 42.8469 37.9297H42.8127ZM16.1931 14.7268H26.9898C27.475 14.7268 27.9403 14.5337 28.2833 14.19C28.6264 13.8462 28.8192 13.38 28.8192 12.8939V12.0374C28.8192 11.5513 28.6264 11.0851 28.2833 10.7413C27.9403 10.3976 27.475 10.2045 26.9898 10.2045H16.1931C15.708 10.2045 15.2426 10.3976 14.8996 10.7413C14.5565 11.0851 14.3638 11.5513 14.3638 12.0374V12.8939C14.3638 13.38 14.5565 13.8462 14.8996 14.19C15.2426 14.5337 15.708 14.7268 16.1931 14.7268ZM8.37145 38.9232C7.96195 38.9198 7.56066 39.0383 7.21841 39.2636C6.87615 39.4889 6.60834 39.811 6.44889 40.1889C6.28945 40.5668 6.24554 40.9837 6.32273 41.3866C6.39992 41.7896 6.59474 42.1606 6.8825 42.4525C7.17027 42.7444 7.53804 42.9442 7.93922 43.0266C8.34041 43.1089 8.75696 43.0701 9.13611 42.915C9.51526 42.76 9.83995 42.4957 10.0691 42.1556C10.2982 41.8155 10.4214 41.4149 10.4231 41.0046C10.4254 40.4563 10.2108 39.9295 9.82624 39.5394C9.44172 39.1493 8.91863 38.9278 8.37145 38.9232ZM15.3666 46.4932C15.5986 46.3379 15.8713 46.255 16.1502 46.255C16.5243 46.255 16.8831 46.4039 17.1476 46.6689C17.4121 46.934 17.5607 47.2934 17.5607 47.6682C17.5607 47.9478 17.478 48.221 17.323 48.4534C17.168 48.6858 16.9477 48.8669 16.69 48.9739C16.4323 49.0809 16.1487 49.1089 15.8751 49.0543C15.6015 48.9998 15.3501 48.8652 15.1529 48.6676C14.9556 48.4699 14.8213 48.2181 14.7668 47.944C14.7124 47.6698 14.7404 47.3857 14.8471 47.1274C14.9539 46.8692 15.1347 46.6485 15.3666 46.4932ZM29.2894 39.3344L18.1764 33.5958C16.2395 32.5944 14.1081 32.0281 11.9304 31.9364C9.75282 31.8447 7.58142 32.2298 5.5675 33.0648L1.01974 34.8806C0.773066 35.4751 0.572998 36.0879 0.421352 36.7135C-0.0895573 38.7066 -0.136504 40.7908 0.284135 42.805C0.704775 44.8192 1.58175 46.7096 2.84736 48.3303C4.11296 49.951 5.73335 51.2586 7.58343 52.1522C9.43351 53.0457 11.4638 53.5014 13.5175 53.484H29.5544C32.4399 53.5217 35.2597 52.62 37.5899 50.9144C39.7199 49.3069 41.3287 47.1049 42.2146 44.5848C42.8068 42.9182 43.0766 41.1537 43.0096 39.3858C40.8936 40.474 38.5493 41.0416 36.1708 41.0416C33.7924 41.0416 31.4481 40.474 29.3321 39.3858L29.2894 39.3344ZM8.37138 44.7904C7.62337 44.7938 6.89118 44.5746 6.26758 44.1607C5.64398 43.7468 5.15703 43.1567 4.86843 42.4653C4.57983 41.7738 4.50256 41.0121 4.64641 40.2766C4.79027 39.5411 5.14877 38.865 5.6765 38.3338C6.20423 37.8026 6.87744 37.4404 7.61085 37.2929C8.34425 37.1454 9.10483 37.2194 9.79624 37.5054C10.4877 37.7914 11.0788 38.2767 11.4947 38.8996C11.9106 39.5225 12.1327 40.2551 12.1327 41.0046C12.1327 41.5025 12.0347 41.9955 11.8443 42.4554C11.6538 42.9152 11.3748 43.333 11.023 43.6846C10.6712 44.0363 10.2537 44.3149 9.7943 44.5047C9.34016 44.6923 8.85392 44.7893 8.36282 44.7904H8.37138ZM16.1248 50.786C15.5077 50.786 14.9044 50.6026 14.3913 50.2591C13.8782 49.9156 13.4783 49.4273 13.2421 48.8561C13.006 48.2848 12.9442 47.6562 13.0646 47.0498C13.185 46.4434 13.4821 45.8863 13.9185 45.4491C14.3549 45.0119 14.9108 44.7141 15.5161 44.5935C16.1213 44.4729 16.7487 44.5348 17.3188 44.7714C17.889 45.008 18.3763 45.4087 18.7191 45.9228C19.062 46.437 19.245 47.0414 19.245 47.6597C19.2427 48.4881 18.9133 49.282 18.3286 49.8678C17.7439 50.4536 16.9516 50.7837 16.1248 50.786ZM29.2295 50.0579C28.5918 50.0579 27.9683 49.8683 27.4382 49.5131C26.908 49.1579 26.495 48.6531 26.2513 48.0626C26.0076 47.4721 25.9443 46.8224 26.0693 46.1958C26.1944 45.5692 26.5022 44.9938 26.9537 44.5426C27.4053 44.0913 27.9803 43.7845 28.6061 43.6609C29.2318 43.5372 29.88 43.6024 30.4688 43.8481C31.0575 44.0938 31.5602 44.509 31.9133 45.0412C32.2664 45.5733 32.454 46.1985 32.4523 46.8375C32.4523 47.2611 32.3689 47.6806 32.2068 48.0719C32.0447 48.4631 31.8072 48.8185 31.5078 49.1177C31.2085 49.4169 30.8531 49.6539 30.4622 49.8153C30.0712 49.9766 29.6523 50.0591 29.2295 50.0579ZM28.3888 45.6111C28.6376 45.4446 28.9301 45.3557 29.2294 45.3557C29.63 45.3579 30.0135 45.5183 30.2968 45.8022C30.5801 46.086 30.7402 46.4703 30.7424 46.8717C30.7424 47.1715 30.6537 47.4646 30.4874 47.7139C30.3212 47.9632 30.0849 48.1576 29.8084 48.2723C29.5319 48.387 29.2277 48.4171 28.9342 48.3586C28.6407 48.3001 28.3711 48.1557 28.1595 47.9437C27.9479 47.7316 27.8038 47.4615 27.7454 47.1674C27.687 46.8734 27.717 46.5685 27.8315 46.2915C27.946 46.0145 28.1399 45.7777 28.3888 45.6111Z" fill="white"/>
<path fill-rule="evenodd" clip-rule="evenodd" d="M27.9641 3.53222L26.6647 8.4743H16.4066L15.0987 3.53222C14.999 3.16146 14.9858 2.77267 15.0601 2.39598C15.1345 2.01929 15.2944 1.66481 15.5275 1.36002C15.7606 1.05523 16.0607 0.808315 16.4043 0.638408C16.748 0.4685 17.1261 0.380165 17.5094 0.380249H25.5534C25.9367 0.380165 26.3148 0.4685 26.6585 0.638408C27.0021 0.808315 27.3022 1.05523 27.5353 1.36002C27.7684 1.66481 27.9283 2.01929 28.0027 2.39598C28.077 2.77267 28.0638 3.16146 27.9641 3.53222ZM42.8127 37.9297C42.6072 37.9555 42.4077 38.0163 42.2228 38.1096C40.3448 39.076 38.2637 39.5794 36.1524 39.5779C34.0412 39.5764 31.9608 39.0701 30.0841 38.101L18.9711 32.3624C16.8172 31.2461 14.4461 30.6141 12.0233 30.5106C9.60042 30.407 7.18421 30.8344 4.9432 31.7628L2.33594 32.8164C3.08212 31.7131 3.98658 30.726 5.02014 29.8871L15.2098 21.5361C15.286 21.4737 15.3477 21.3954 15.3905 21.3066C15.4333 21.2179 15.4563 21.1208 15.4578 21.0222V16.654C15.6993 16.7062 15.9458 16.7321 16.1929 16.7311H26.981C27.1934 16.7328 27.4053 16.7127 27.6136 16.6711V21.0222C27.6134 21.1202 27.6348 21.217 27.6761 21.3059C27.7175 21.3947 27.7779 21.4733 27.8529 21.5361L38.0512 29.8871C39.1812 30.8034 40.1593 31.8933 40.9491 33.1161C41.7305 34.3083 42.3083 35.6224 42.6588 37.0047C42.7357 37.313 42.7956 37.6214 42.8469 37.9297H42.8127ZM16.1931 14.7268H26.9898C27.475 14.7268 27.9403 14.5337 28.2833 14.19C28.6264 13.8462 28.8192 13.38 28.8192 12.8939V12.0374C28.8192 11.5513 28.6264 11.0851 28.2833 10.7413C27.9403 10.3976 27.475 10.2045 26.9898 10.2045H16.1931C15.708 10.2045 15.2426 10.3976 14.8996 10.7413C14.5565 11.0851 14.3638 11.5513 14.3638 12.0374V12.8939C14.3638 13.38 14.5565 13.8462 14.8996 14.19C15.2426 14.5337 15.708 14.7268 16.1931 14.7268ZM8.37145 38.9232C7.96195 38.9198 7.56066 39.0383 7.21841 39.2636C6.87615 39.4889 6.60834 39.811 6.44889 40.1889C6.28945 40.5668 6.24554 40.9837 6.32273 41.3866C6.39992 41.7896 6.59474 42.1606 6.8825 42.4525C7.17027 42.7444 7.53804 42.9442 7.93922 43.0266C8.34041 43.1089 8.75696 43.0701 9.13611 42.915C9.51526 42.76 9.83995 42.4957 10.0691 42.1556C10.2982 41.8155 10.4214 41.4149 10.4231 41.0046C10.4254 40.4563 10.2108 39.9295 9.82624 39.5394C9.44172 39.1493 8.91863 38.9278 8.37145 38.9232ZM15.3666 46.4932C15.5986 46.3379 15.8713 46.255 16.1502 46.255C16.5243 46.255 16.8831 46.4039 17.1476 46.6689C17.4121 46.934 17.5607 47.2934 17.5607 47.6682C17.5607 47.9478 17.478 48.221 17.323 48.4534C17.168 48.6858 16.9477 48.8669 16.69 48.9739C16.4323 49.0809 16.1487 49.1089 15.8751 49.0543C15.6015 48.9998 15.3501 48.8652 15.1529 48.6676C14.9556 48.4699 14.8213 48.2181 14.7668 47.944C14.7124 47.6698 14.7404 47.3857 14.8471 47.1274C14.9539 46.8692 15.1347 46.6485 15.3666 46.4932ZM29.2894 39.3344L18.1764 33.5958C16.2395 32.5944 14.1081 32.0281 11.9304 31.9364C9.75282 31.8447 7.58142 32.2298 5.5675 33.0648L1.01974 34.8806C0.773066 35.4751 0.572998 36.0879 0.421352 36.7135C-0.0895573 38.7066 -0.136504 40.7908 0.284135 42.805C0.704775 44.8192 1.58175 46.7096 2.84736 48.3303C4.11296 49.951 5.73335 51.2586 7.58343 52.1522C9.43351 53.0457 11.4638 53.5014 13.5175 53.484H29.5544C32.4399 53.5217 35.2597 52.62 37.5899 50.9144C39.7199 49.3069 41.3287 47.1049 42.2146 44.5848C42.8068 42.9182 43.0766 41.1537 43.0096 39.3858C40.8936 40.474 38.5493 41.0416 36.1708 41.0416C33.7924 41.0416 31.4481 40.474 29.3321 39.3858L29.2894 39.3344ZM8.37138 44.7904C7.62337 44.7938 6.89118 44.5746 6.26758 44.1607C5.64398 43.7468 5.15703 43.1567 4.86843 42.4653C4.57983 41.7738 4.50256 41.0121 4.64641 40.2766C4.79027 39.5411 5.14877 38.865 5.6765 38.3338C6.20423 37.8026 6.87744 37.4404 7.61085 37.2929C8.34425 37.1454 9.10483 37.2194 9.79624 37.5054C10.4877 37.7914 11.0788 38.2767 11.4947 38.8996C11.9106 39.5225 12.1327 40.2551 12.1327 41.0046C12.1327 41.5025 12.0347 41.9955 11.8443 42.4554C11.6538 42.9152 11.3748 43.333 11.023 43.6846C10.6712 44.0363 10.2537 44.3149 9.7943 44.5047C9.34016 44.6923 8.85392 44.7893 8.36282 44.7904H8.37138ZM16.1248 50.786C15.5077 50.786 14.9044 50.6026 14.3913 50.2591C13.8782 49.9156 13.4783 49.4273 13.2421 48.8561C13.006 48.2848 12.9442 47.6562 13.0646 47.0498C13.185 46.4434 13.4821 45.8863 13.9185 45.4491C14.3549 45.0119 14.9108 44.7141 15.5161 44.5935C16.1213 44.4729 16.7487 44.5348 17.3188 44.7714C17.889 45.008 18.3763 45.4087 18.7191 45.9228C19.062 46.437 19.245 47.0414 19.245 47.6597C19.2427 48.4881 18.9133 49.282 18.3286 49.8678C17.7439 50.4536 16.9516 50.7837 16.1248 50.786ZM29.2295 50.0579C28.5918 50.0579 27.9683 49.8683 27.4382 49.5131C26.908 49.1579 26.495 48.6531 26.2513 48.0626C26.0076 47.4721 25.9443 46.8224 26.0693 46.1958C26.1944 45.5692 26.5022 44.9938 26.9537 44.5426C27.4053 44.0913 27.9803 43.7845 28.6061 43.6609C29.2318 43.5372 29.88 43.6024 30.4688 43.8481C31.0575 44.0938 31.5602 44.509 31.9133 45.0412C32.2664 45.5733 32.454 46.1985 32.4523 46.8375C32.4523 47.2611 32.3689 47.6806 32.2068 48.0719C32.0447 48.4631 31.8072 48.8185 31.5078 49.1177C31.2085 49.4169 30.8531 49.6539 30.4622 49.8153C30.0712 49.9766 29.6523 50.0591 29.2295 50.0579ZM28.3888 45.6111C28.6376 45.4446 28.9301 45.3557 29.2294 45.3557C29.63 45.3579 30.0135 45.5183 30.2968 45.8022C30.5801 46.086 30.7402 46.4703 30.7424 46.8717C30.7424 47.1715 30.6537 47.4646 30.4874 47.7139C30.3212 47.9632 30.0849 48.1576 29.8084 48.2723C29.5319 48.387 29.2277 48.4171 28.9342 48.3586C28.6407 48.3001 28.3711 48.1557 28.1595 47.9437C27.9479 47.7316 27.8038 47.4615 27.7454 47.1674C27.687 46.8734 27.717 46.5685 27.8315 46.2915C27.946 46.0145 28.1399 45.7777 28.3888 45.6111Z" fill="url(#paint0_linear)"/>
<path fill-rule="evenodd" clip-rule="evenodd" d="M27.9641 3.53222L26.6647 8.4743H16.4066L15.0987 3.53222C14.999 3.16146 14.9858 2.77267 15.0601 2.39598C15.1345 2.01929 15.2944 1.66481 15.5275 1.36002C15.7606 1.05523 16.0607 0.808315 16.4043 0.638408C16.748 0.4685 17.1261 0.380165 17.5094 0.380249H25.5534C25.9367 0.380165 26.3148 0.4685 26.6585 0.638408C27.0021 0.808315 27.3022 1.05523 27.5353 1.36002C27.7684 1.66481 27.9283 2.01929 28.0027 2.39598C28.077 2.77267 28.0638 3.16146 27.9641 3.53222ZM42.8127 37.9297C42.6072 37.9555 42.4077 38.0163 42.2228 38.1096C40.3448 39.076 38.2637 39.5794 36.1524 39.5779C34.0412 39.5764 31.9608 39.0701 30.0841 38.101L18.9711 32.3624C16.8172 31.2461 14.4461 30.6141 12.0233 30.5106C9.60042 30.407 7.18421 30.8344 4.9432 31.7628L2.33594 32.8164C3.08212 31.7131 3.98658 30.726 5.02014 29.8871L15.2098 21.5361C15.286 21.4737 15.3477 21.3954 15.3905 21.3066C15.4333 21.2179 15.4563 21.1208 15.4578 21.0222V16.654C15.6993 16.7062 15.9458 16.7321 16.1929 16.7311H26.981C27.1934 16.7328 27.4053 16.7127 27.6136 16.6711V21.0222C27.6134 21.1202 27.6348 21.217 27.6761 21.3059C27.7175 21.3947 27.7779 21.4733 27.8529 21.5361L38.0512 29.8871C39.1812 30.8034 40.1593 31.8933 40.9491 33.1161C41.7305 34.3083 42.3083 35.6224 42.6588 37.0047C42.7357 37.313 42.7956 37.6214 42.8469 37.9297H42.8127ZM16.1931 14.7268H26.9898C27.475 14.7268 27.9403 14.5337 28.2833 14.19C28.6264 13.8462 28.8192 13.38 28.8192 12.8939V12.0374C28.8192 11.5513 28.6264 11.0851 28.2833 10.7413C27.9403 10.3976 27.475 10.2045 26.9898 10.2045H16.1931C15.708 10.2045 15.2426 10.3976 14.8996 10.7413C14.5565 11.0851 14.3638 11.5513 14.3638 12.0374V12.8939C14.3638 13.38 14.5565 13.8462 14.8996 14.19C15.2426 14.5337 15.708 14.7268 16.1931 14.7268ZM8.37145 38.9232C7.96195 38.9198 7.56066 39.0383 7.21841 39.2636C6.87615 39.4889 6.60834 39.811 6.44889 40.1889C6.28945 40.5668 6.24554 40.9837 6.32273 41.3866C6.39992 41.7896 6.59474 42.1606 6.8825 42.4525C7.17027 42.7444 7.53804 42.9442 7.93922 43.0266C8.34041 43.1089 8.75696 43.0701 9.13611 42.915C9.51526 42.76 9.83995 42.4957 10.0691 42.1556C10.2982 41.8155 10.4214 41.4149 10.4231 41.0046C10.4254 40.4563 10.2108 39.9295 9.82624 39.5394C9.44172 39.1493 8.91863 38.9278 8.37145 38.9232ZM15.3666 46.4932C15.5986 46.3379 15.8713 46.255 16.1502 46.255C16.5243 46.255 16.8831 46.4039 17.1476 46.6689C17.4121 46.934 17.5607 47.2934 17.5607 47.6682C17.5607 47.9478 17.478 48.221 17.323 48.4534C17.168 48.6858 16.9477 48.8669 16.69 48.9739C16.4323 49.0809 16.1487 49.1089 15.8751 49.0543C15.6015 48.9998 15.3501 48.8652 15.1529 48.6676C14.9556 48.4699 14.8213 48.2181 14.7668 47.944C14.7124 47.6698 14.7404 47.3857 14.8471 47.1274C14.9539 46.8692 15.1347 46.6485 15.3666 46.4932ZM29.2894 39.3344L18.1764 33.5958C16.2395 32.5944 14.1081 32.0281 11.9304 31.9364C9.75282 31.8447 7.58142 32.2298 5.5675 33.0648L1.01974 34.8806C0.773066 35.4751 0.572998 36.0879 0.421352 36.7135C-0.0895573 38.7066 -0.136504 40.7908 0.284135 42.805C0.704775 44.8192 1.58175 46.7096 2.84736 48.3303C4.11296 49.951 5.73335 51.2586 7.58343 52.1522C9.43351 53.0457 11.4638 53.5014 13.5175 53.484H29.5544C32.4399 53.5217 35.2597 52.62 37.5899 50.9144C39.7199 49.3069 41.3287 47.1049 42.2146 44.5848C42.8068 42.9182 43.0766 41.1537 43.0096 39.3858C40.8936 40.474 38.5493 41.0416 36.1708 41.0416C33.7924 41.0416 31.4481 40.474 29.3321 39.3858L29.2894 39.3344ZM8.37138 44.7904C7.62337 44.7938 6.89118 44.5746 6.26758 44.1607C5.64398 43.7468 5.15703 43.1567 4.86843 42.4653C4.57983 41.7738 4.50256 41.0121 4.64641 40.2766C4.79027 39.5411 5.14877 38.865 5.6765 38.3338C6.20423 37.8026 6.87744 37.4404 7.61085 37.2929C8.34425 37.1454 9.10483 37.2194 9.79624 37.5054C10.4877 37.7914 11.0788 38.2767 11.4947 38.8996C11.9106 39.5225 12.1327 40.2551 12.1327 41.0046C12.1327 41.5025 12.0347 41.9955 11.8443 42.4554C11.6538 42.9152 11.3748 43.333 11.023 43.6846C10.6712 44.0363 10.2537 44.3149 9.7943 44.5047C9.34016 44.6923 8.85392 44.7893 8.36282 44.7904H8.37138ZM16.1248 50.786C15.5077 50.786 14.9044 50.6026 14.3913 50.2591C13.8782 49.9156 13.4783 49.4273 13.2421 48.8561C13.006 48.2848 12.9442 47.6562 13.0646 47.0498C13.185 46.4434 13.4821 45.8863 13.9185 45.4491C14.3549 45.0119 14.9108 44.7141 15.5161 44.5935C16.1213 44.4729 16.7487 44.5348 17.3188 44.7714C17.889 45.008 18.3763 45.4087 18.7191 45.9228C19.062 46.437 19.245 47.0414 19.245 47.6597C19.2427 48.4881 18.9133 49.282 18.3286 49.8678C17.7439 50.4536 16.9516 50.7837 16.1248 50.786ZM29.2295 50.0579C28.5918 50.0579 27.9683 49.8683 27.4382 49.5131C26.908 49.1579 26.495 48.6531 26.2513 48.0626C26.0076 47.4721 25.9443 46.8224 26.0693 46.1958C26.1944 45.5692 26.5022 44.9938 26.9537 44.5426C27.4053 44.0913 27.9803 43.7845 28.6061 43.6609C29.2318 43.5372 29.88 43.6024 30.4688 43.8481C31.0575 44.0938 31.5602 44.509 31.9133 45.0412C32.2664 45.5733 32.454 46.1985 32.4523 46.8375C32.4523 47.2611 32.3689 47.6806 32.2068 48.0719C32.0447 48.4631 31.8072 48.8185 31.5078 49.1177C31.2085 49.4169 30.8531 49.6539 30.4622 49.8153C30.0712 49.9766 29.6523 50.0591 29.2295 50.0579ZM28.3888 45.6111C28.6376 45.4446 28.9301 45.3557 29.2294 45.3557C29.63 45.3579 30.0135 45.5183 30.2968 45.8022C30.5801 46.086 30.7402 46.4703 30.7424 46.8717C30.7424 47.1715 30.6537 47.4646 30.4874 47.7139C30.3212 47.9632 30.0849 48.1576 29.8084 48.2723C29.5319 48.387 29.2277 48.4171 28.9342 48.3586C28.6407 48.3001 28.3711 48.1557 28.1595 47.9437C27.9479 47.7316 27.8038 47.4615 27.7454 47.1674C27.687 46.8734 27.717 46.5685 27.8315 46.2915C27.946 46.0145 28.1399 45.7777 28.3888 45.6111Z" fill="url(#paint1_linear)"/>
</g>
<defs>
<linearGradient id="paint0_linear" x1="29.2294" y1="45.3556" x2="29.2294" y2="48.3877" gradientUnits="userSpaceOnUse">
<stop stop-color="white"/>
<stop offset="1" stop-color="white" stop-opacity="0"/>
</linearGradient>
<linearGradient id="paint1_linear" x1="21.5098" y1="0.380249" x2="21.5098" y2="53.4851" gradientUnits="userSpaceOnUse">
<stop stop-color="#028088"/>
<stop offset="1" stop-color="white" stop-opacity="0"/>
</linearGradient>
</defs>
</svg>
