<svg width="55" height="57" viewBox="0 0 55 57" fill="none" xmlns="http://www.w3.org/2000/svg">
<g opacity="0.8">
<path fill-rule="evenodd" clip-rule="evenodd" d="M43.703 1.79759C43.309 1.80461 42.997 2.17232 42.565 2.73041C42.102 3.33058 41.398 4.23334 40.339 3.74138C39.271 3.24642 38.744 2.60216 38.134 1.85571L38.1305 1.85143C37.7113 1.33948 37.2358 0.758667 36.462 0.0742327C36.461 0.0732307 36.288 -0.0510115 35.64 0.024135C31.893 0.454975 22.152 6.14908 19.605 9.39742C16.5901 13.2395 13.0026 10.7979 10.1162 8.83348L10.113 8.83131C9.46497 8.39045 8.85197 7.97364 8.25697 7.62396C8.15397 7.56384 8.05597 7.54079 7.88597 7.60993C5.98697 8.40648 3.40897 15.8229 2.04297 20.9069H53.52C53.596 20.7916 53.679 20.6143 53.673 20.3698C53.664 19.954 53.387 19.0573 51.636 17.7297C50.1212 16.5803 48.6942 16.2433 47.7482 16.0199L47.746 16.0193C46.967 15.836 46.293 15.6767 46.127 15.0084C45.951 14.302 46.506 13.7208 47.726 12.6498C50.508 10.205 50.991 9.41846 46.412 3.9057C44.875 2.0571 44.023 1.77455 43.703 1.79759ZM1.82227 48.6289C1.82227 44.3786 5.27327 40.9199 9.51627 40.9199C13.7583 40.9199 17.2103 44.3786 17.2103 48.6289C17.2103 52.8792 13.7583 56.3379 9.51627 56.3379C5.27327 56.3379 1.82227 52.8792 1.82227 48.6289ZM37.71 48.6289C37.71 44.3786 41.162 40.9199 45.404 40.9199C49.647 40.9199 53.098 44.3786 53.098 48.6289C53.098 52.8792 49.646 56.3379 45.404 56.3379C41.162 56.3379 37.71 52.8792 37.71 48.6289ZM45.404 39.4169C40.589 39.4169 36.632 43.1482 36.248 47.8764H18.671C18.286 43.1492 14.331 39.4169 9.515 39.4169C8.234 39.4169 7.013 39.6814 5.904 40.1594L0 22.4108H54.919L49.015 40.1594C47.906 39.6834 46.685 39.4169 45.404 39.4169ZM44.96 25.9146C44.546 25.9146 44.21 26.2513 44.21 26.6661V34.8069C44.21 35.2217 44.546 35.5584 44.96 35.5584C45.374 35.5584 45.71 35.2217 45.71 34.8069V26.6661C45.71 26.2513 45.374 25.9146 44.96 25.9146ZM9.96 35.5584C10.374 35.5584 10.71 35.2217 10.71 34.8069V26.6661C10.71 26.2513 10.374 25.9146 9.96 25.9146C9.546 25.9146 9.21 26.2513 9.21 26.6661V34.8069C9.21 35.2217 9.546 35.5584 9.96 35.5584ZM37.96 25.9146C37.546 25.9146 37.21 26.2513 37.21 26.6661V34.8069C37.21 35.2217 37.546 35.5584 37.96 35.5584C38.374 35.5584 38.71 35.2217 38.71 34.8069V26.6661C38.71 26.2513 38.374 25.9146 37.96 25.9146ZM30.96 25.9146C30.546 25.9146 30.21 26.2513 30.21 26.6661V34.8069C30.21 35.2217 30.546 35.5584 30.96 35.5584C31.374 35.5584 31.71 35.2217 31.71 34.8069V26.6661C31.71 26.2513 31.374 25.9146 30.96 25.9146ZM23.96 25.9146C23.546 25.9146 23.21 26.2513 23.21 26.6661V34.8069C23.21 35.2217 23.546 35.5584 23.96 35.5584C24.374 35.5584 24.71 35.2217 24.71 34.8069V26.6661C24.71 26.2513 24.374 25.9146 23.96 25.9146ZM16.21 34.8069C16.21 35.2217 16.546 35.5584 16.96 35.5584C17.374 35.5584 17.71 35.2217 17.71 34.8069V26.6661C17.71 26.2513 17.374 25.9146 16.96 25.9146C16.546 25.9146 16.21 26.2513 16.21 26.6661V34.8069Z" fill="white"/>
<path fill-rule="evenodd" clip-rule="evenodd" d="M43.703 1.79759C43.309 1.80461 42.997 2.17232 42.565 2.73041C42.102 3.33058 41.398 4.23334 40.339 3.74138C39.271 3.24642 38.744 2.60216 38.134 1.85571L38.1305 1.85143C37.7113 1.33948 37.2358 0.758667 36.462 0.0742327C36.461 0.0732307 36.288 -0.0510115 35.64 0.024135C31.893 0.454975 22.152 6.14908 19.605 9.39742C16.5901 13.2395 13.0026 10.7979 10.1162 8.83348L10.113 8.83131C9.46497 8.39045 8.85197 7.97364 8.25697 7.62396C8.15397 7.56384 8.05597 7.54079 7.88597 7.60993C5.98697 8.40648 3.40897 15.8229 2.04297 20.9069H53.52C53.596 20.7916 53.679 20.6143 53.673 20.3698C53.664 19.954 53.387 19.0573 51.636 17.7297C50.1212 16.5803 48.6942 16.2433 47.7482 16.0199L47.746 16.0193C46.967 15.836 46.293 15.6767 46.127 15.0084C45.951 14.302 46.506 13.7208 47.726 12.6498C50.508 10.205 50.991 9.41846 46.412 3.9057C44.875 2.0571 44.023 1.77455 43.703 1.79759ZM1.82227 48.6289C1.82227 44.3786 5.27327 40.9199 9.51627 40.9199C13.7583 40.9199 17.2103 44.3786 17.2103 48.6289C17.2103 52.8792 13.7583 56.3379 9.51627 56.3379C5.27327 56.3379 1.82227 52.8792 1.82227 48.6289ZM37.71 48.6289C37.71 44.3786 41.162 40.9199 45.404 40.9199C49.647 40.9199 53.098 44.3786 53.098 48.6289C53.098 52.8792 49.646 56.3379 45.404 56.3379C41.162 56.3379 37.71 52.8792 37.71 48.6289ZM45.404 39.4169C40.589 39.4169 36.632 43.1482 36.248 47.8764H18.671C18.286 43.1492 14.331 39.4169 9.515 39.4169C8.234 39.4169 7.013 39.6814 5.904 40.1594L0 22.4108H54.919L49.015 40.1594C47.906 39.6834 46.685 39.4169 45.404 39.4169ZM44.96 25.9146C44.546 25.9146 44.21 26.2513 44.21 26.6661V34.8069C44.21 35.2217 44.546 35.5584 44.96 35.5584C45.374 35.5584 45.71 35.2217 45.71 34.8069V26.6661C45.71 26.2513 45.374 25.9146 44.96 25.9146ZM9.96 35.5584C10.374 35.5584 10.71 35.2217 10.71 34.8069V26.6661C10.71 26.2513 10.374 25.9146 9.96 25.9146C9.546 25.9146 9.21 26.2513 9.21 26.6661V34.8069C9.21 35.2217 9.546 35.5584 9.96 35.5584ZM37.96 25.9146C37.546 25.9146 37.21 26.2513 37.21 26.6661V34.8069C37.21 35.2217 37.546 35.5584 37.96 35.5584C38.374 35.5584 38.71 35.2217 38.71 34.8069V26.6661C38.71 26.2513 38.374 25.9146 37.96 25.9146ZM30.96 25.9146C30.546 25.9146 30.21 26.2513 30.21 26.6661V34.8069C30.21 35.2217 30.546 35.5584 30.96 35.5584C31.374 35.5584 31.71 35.2217 31.71 34.8069V26.6661C31.71 26.2513 31.374 25.9146 30.96 25.9146ZM23.96 25.9146C23.546 25.9146 23.21 26.2513 23.21 26.6661V34.8069C23.21 35.2217 23.546 35.5584 23.96 35.5584C24.374 35.5584 24.71 35.2217 24.71 34.8069V26.6661C24.71 26.2513 24.374 25.9146 23.96 25.9146ZM16.21 34.8069C16.21 35.2217 16.546 35.5584 16.96 35.5584C17.374 35.5584 17.71 35.2217 17.71 34.8069V26.6661C17.71 26.2513 17.374 25.9146 16.96 25.9146C16.546 25.9146 16.21 26.2513 16.21 26.6661V34.8069Z" fill="url(#paint0_linear)"/>
<path fill-rule="evenodd" clip-rule="evenodd" d="M43.703 1.79759C43.309 1.80461 42.997 2.17232 42.565 2.73041C42.102 3.33058 41.398 4.23334 40.339 3.74138C39.271 3.24642 38.744 2.60216 38.134 1.85571L38.1305 1.85143C37.7113 1.33948 37.2358 0.758667 36.462 0.0742327C36.461 0.0732307 36.288 -0.0510115 35.64 0.024135C31.893 0.454975 22.152 6.14908 19.605 9.39742C16.5901 13.2395 13.0026 10.7979 10.1162 8.83348L10.113 8.83131C9.46497 8.39045 8.85197 7.97364 8.25697 7.62396C8.15397 7.56384 8.05597 7.54079 7.88597 7.60993C5.98697 8.40648 3.40897 15.8229 2.04297 20.9069H53.52C53.596 20.7916 53.679 20.6143 53.673 20.3698C53.664 19.954 53.387 19.0573 51.636 17.7297C50.1212 16.5803 48.6942 16.2433 47.7482 16.0199L47.746 16.0193C46.967 15.836 46.293 15.6767 46.127 15.0084C45.951 14.302 46.506 13.7208 47.726 12.6498C50.508 10.205 50.991 9.41846 46.412 3.9057C44.875 2.0571 44.023 1.77455 43.703 1.79759ZM1.82227 48.6289C1.82227 44.3786 5.27327 40.9199 9.51627 40.9199C13.7583 40.9199 17.2103 44.3786 17.2103 48.6289C17.2103 52.8792 13.7583 56.3379 9.51627 56.3379C5.27327 56.3379 1.82227 52.8792 1.82227 48.6289ZM37.71 48.6289C37.71 44.3786 41.162 40.9199 45.404 40.9199C49.647 40.9199 53.098 44.3786 53.098 48.6289C53.098 52.8792 49.646 56.3379 45.404 56.3379C41.162 56.3379 37.71 52.8792 37.71 48.6289ZM45.404 39.4169C40.589 39.4169 36.632 43.1482 36.248 47.8764H18.671C18.286 43.1492 14.331 39.4169 9.515 39.4169C8.234 39.4169 7.013 39.6814 5.904 40.1594L0 22.4108H54.919L49.015 40.1594C47.906 39.6834 46.685 39.4169 45.404 39.4169ZM44.96 25.9146C44.546 25.9146 44.21 26.2513 44.21 26.6661V34.8069C44.21 35.2217 44.546 35.5584 44.96 35.5584C45.374 35.5584 45.71 35.2217 45.71 34.8069V26.6661C45.71 26.2513 45.374 25.9146 44.96 25.9146ZM9.96 35.5584C10.374 35.5584 10.71 35.2217 10.71 34.8069V26.6661C10.71 26.2513 10.374 25.9146 9.96 25.9146C9.546 25.9146 9.21 26.2513 9.21 26.6661V34.8069C9.21 35.2217 9.546 35.5584 9.96 35.5584ZM37.96 25.9146C37.546 25.9146 37.21 26.2513 37.21 26.6661V34.8069C37.21 35.2217 37.546 35.5584 37.96 35.5584C38.374 35.5584 38.71 35.2217 38.71 34.8069V26.6661C38.71 26.2513 38.374 25.9146 37.96 25.9146ZM30.96 25.9146C30.546 25.9146 30.21 26.2513 30.21 26.6661V34.8069C30.21 35.2217 30.546 35.5584 30.96 35.5584C31.374 35.5584 31.71 35.2217 31.71 34.8069V26.6661C31.71 26.2513 31.374 25.9146 30.96 25.9146ZM23.96 25.9146C23.546 25.9146 23.21 26.2513 23.21 26.6661V34.8069C23.21 35.2217 23.546 35.5584 23.96 35.5584C24.374 35.5584 24.71 35.2217 24.71 34.8069V26.6661C24.71 26.2513 24.374 25.9146 23.96 25.9146ZM16.21 34.8069C16.21 35.2217 16.546 35.5584 16.96 35.5584C17.374 35.5584 17.71 35.2217 17.71 34.8069V26.6661C17.71 26.2513 17.374 25.9146 16.96 25.9146C16.546 25.9146 16.21 26.2513 16.21 26.6661V34.8069Z" fill="url(#paint1_linear)"/>
</g>
<defs>
<linearGradient id="paint0_linear" x1="27.4595" y1="22.4107" x2="27.4595" y2="47.8764" gradientUnits="userSpaceOnUse">
<stop stop-color="white"/>
<stop offset="1" stop-color="white" stop-opacity="0"/>
</linearGradient>
<linearGradient id="paint1_linear" x1="27.4595" y1="0" x2="27.4595" y2="56.3379" gradientUnits="userSpaceOnUse">
<stop stop-color="#028088"/>
<stop offset="1" stop-color="white" stop-opacity="0"/>
</linearGradient>
</defs>
</svg>
