<svg width="68" height="93" viewBox="0 0 68 93" fill="none" xmlns="http://www.w3.org/2000/svg">
<path d="M53.5912 49.178V27.5864C53.5912 24.28 51.133 21.5905 48.1111 21.5905H42.9662C40.1632 21.5905 37.8485 23.9058 37.5275 26.8788H33.2476V22.5733C33.2476 19.2684 30.7908 16.5796 27.7696 16.5796H22.6253C19.6048 16.5796 17.1473 19.2684 17.1473 22.5733V49.1772H3.40039V50.6652H64.6004V49.1772H53.5912V49.178ZM42.9662 23.0785H48.1111C50.3829 23.0785 52.2312 25.1006 52.2312 27.5864V49.178H38.8454V27.5864C38.8454 25.1006 40.6943 23.0785 42.9662 23.0785ZM25.1604 43.3458V46.9393H22.9667V43.3458C22.9667 40.5781 25.0244 38.3267 27.554 38.3267H29.9251V40.7269H27.554C26.2341 40.7261 25.1604 41.9009 25.1604 43.3458ZM31.2858 38.3267H35.3352V40.7269H31.2858V38.3267ZM35.3352 42.2141V43.066H36.6952V36.0196H35.3352V36.8387H33.2476V33.0324H37.4854V49.178H33.2476V42.2149H35.3352V42.2141ZM37.4854 28.3668V31.5437H33.2476V28.3668H37.4854ZM18.5073 22.5733C18.5073 20.0891 20.3548 18.0676 22.6253 18.0676H27.7696C30.0401 18.0676 31.8876 20.0891 31.8876 22.5733V36.838H31.2858V36.0188H29.9258V36.838H27.5547C24.2757 36.838 21.6074 39.7575 21.6074 43.345V46.9385H20.9199V48.4265H27.3602V46.9385H26.5204V43.345C26.5204 42.7208 26.9841 42.2134 27.5547 42.2134H29.9258V43.0653H31.2858V42.2134H31.8876V49.1765H18.5073V22.5733ZM29.9258 22.5733H31.2858C31.2858 21.4975 30.869 20.4633 30.1407 19.7349C29.4906 19.0847 28.6488 18.7268 27.7696 18.7268V20.2148C28.3081 20.2148 28.8249 20.4343 29.2234 20.8331C29.6695 21.2795 29.9258 21.9141 29.9258 22.5733ZM29.9258 33.4454H31.2858V24.0003H29.9258V33.4454ZM50.2673 27.5864V40.2031H51.6273V27.5864C51.6273 26.3082 51.0473 25.1155 50.0763 24.3976L49.3153 25.6304C49.911 26.0708 50.2673 26.8022 50.2673 27.5864ZM50.2673 44.5005H51.6273V41.9098H50.2673V44.5005ZM6.21015 46.9006H5.44855V48.3886H12.5165V46.9006H11.8338V43.7966H12.9442V39.0759H11.8338V34.8634C11.8338 33.8538 12.5845 33.0317 13.5079 33.0317H15.0039V33.7921H16.3639V26.3357H15.0039V26.8788H13.5079C9.48435 26.8788 6.21083 30.4604 6.21083 34.8634V39.0759H5.14323V43.7966H6.20947V46.9006H6.21015ZM10.4731 46.9006H7.56947V43.7966H10.4731V46.9006ZM6.50323 40.5639H11.5835V42.3086H6.50323V40.5639ZM7.57015 34.8634C7.57015 31.2818 10.2337 28.3668 13.5072 28.3668H15.0032V31.5437H13.5072C11.8344 31.5437 10.4731 33.0332 10.4731 34.8634V39.0759H7.56947V34.8634H7.57015ZM55.8005 42.078H56.1595C56.7301 42.078 57.1938 42.5854 57.1938 43.2096V46.94H56.4445V48.428H62.8841V46.94H62.1068V43.2089C62.1068 39.6213 59.4385 36.7026 56.1595 36.7026H55.8005V36.0196H54.4405V43.066H55.8005V42.078ZM56.1595 38.1906C58.6891 38.1906 60.7468 40.4412 60.7468 43.2089V46.9393H58.5531V43.2089C58.5531 41.7648 57.4794 40.5892 56.1589 40.5892H55.7998V38.1898H56.1595V38.1906ZM23.3326 15.8557H26.8264V15.855H27.9205V14.367H26.8155L26.8067 13.1557H34.7212V14.3007H39.6274V13.1542L43.6761 13.1423V19.38H42.5779V20.868H43.6761V20.8688H47.1638V20.868H48.2627V19.38H47.1638V13.1423C47.1638 11.0465 45.6046 9.3405 43.689 9.3405H39.6274V7.90978H37.8546V7.1323H36.4946V7.90978H34.7212V9.3405H26.8074C24.8918 9.3405 23.3332 11.0457 23.3332 13.1423V14.367H22.2364V15.855L23.3326 15.8557ZM43.6883 10.8278C44.8545 10.8278 45.8032 11.8656 45.8032 13.1416V19.3793H45.0354V13.1416C45.0354 12.3284 44.4309 11.6677 43.6883 11.6677H39.6267V10.8285H43.6883V10.8278ZM36.0812 9.39704H38.2674V12.812H36.0812V9.39704ZM24.6925 13.1416C24.6925 11.8656 25.6411 10.8278 26.8067 10.8278H34.7212V11.667H26.8074C26.0682 11.667 25.4664 12.3284 25.4664 13.1408V14.3655H24.6925V13.1416ZM40.5563 5H33.8474V6.488H40.5563V5Z" fill="#028088"/>
</svg>
