<svg width="45" height="56" viewBox="0 0 45 56" fill="none" xmlns="http://www.w3.org/2000/svg">
<mask id="path-1-outside-1" maskUnits="userSpaceOnUse" x="0.335938" y="0.156494" width="45" height="44" fill="black">
<rect fill="white" x="0.335938" y="0.156494" width="45" height="44"/>
<path d="M44.0457 17.3787C43.5643 15.6544 42.8438 13.4046 41.5299 11.298C41.4188 11.1198 41.2023 11.0376 40.9993 11.0964L36.9652 12.2766C36.8865 12.167 36.8063 12.0578 36.7243 11.949C35.6963 10.5901 34.4879 9.39778 33.1299 8.40004L34.2699 4.61351C34.292 4.53978 34.3112 4.46651 34.3313 4.39231L34.3557 4.30038C34.4106 4.09924 34.3248 3.88644 34.1457 3.77911C32.1831 2.59938 30.2068 1.79671 28.1045 1.32491C27.9052 1.27871 27.6995 1.36924 27.5963 1.54518C26.9565 2.63764 26.3734 3.72591 25.8376 4.73951L25.5788 5.23138C25.4457 5.20944 25.3121 5.18844 25.1776 5.16978C23.5487 4.94064 21.9048 4.93971 20.2857 5.16698L18.2677 1.40331C18.1688 1.21851 17.9588 1.12144 17.7512 1.16811C15.7951 1.60678 13.8615 2.36278 11.6654 3.54718C11.476 3.64984 11.3809 3.86778 11.4352 4.07591C11.7906 5.42598 12.1988 6.74011 12.6549 8.17278C12.5007 8.28058 12.3479 8.39118 12.1965 8.50504C10.8385 9.52331 9.64602 10.7184 8.64759 12.0624L4.82868 10.8841C4.36649 10.7404 4.13727 10.8244 3.88602 11.2229C3.34087 12.0844 2.92837 12.8819 2.62602 13.6617L2.59087 13.7527C2.54352 13.8759 2.49712 13.9996 2.43899 14.12C2.04243 14.945 1.74196 15.834 1.54462 16.7636C1.44102 17.255 1.53806 17.4646 1.97962 17.6993L5.45821 19.5454C5.43243 19.6966 5.40946 19.8483 5.38743 20.0014C5.15259 21.6599 5.15681 23.3324 5.39962 24.9774C4.14056 25.6172 2.84259 26.279 1.57649 26.9818C1.38759 27.0868 1.29477 27.307 1.35337 27.5152L1.50337 28.0528C1.61821 28.4662 1.73118 28.8722 1.85071 29.2773C1.94587 29.5974 2.03587 29.8854 2.1704 30.17C2.55196 30.976 2.94149 31.7488 3.27149 32.3979C3.40415 32.6597 3.54993 32.915 3.69712 33.1749L3.8879 33.5132C3.99384 33.7032 4.21696 33.7946 4.42649 33.7363L8.48681 32.5836C8.56884 32.698 8.65181 32.8109 8.73712 32.9238C9.79274 34.321 11.0377 35.5409 12.4412 36.5536C12.0052 37.9144 11.5881 39.2682 11.2004 40.5842C11.1399 40.7881 11.2257 41.0056 11.4076 41.1157C13.1649 42.1722 15.1341 42.9936 17.4287 43.6282C17.4704 43.6394 17.5126 43.645 17.5543 43.645C17.7231 43.645 17.8834 43.554 17.9668 43.4005L20.1559 39.3657C20.1929 39.2976 20.2121 39.2215 20.2121 39.144V33.1012C20.2121 33.0853 20.2046 33.0718 20.2027 33.0564C20.1995 33.0246 20.1934 32.9943 20.184 32.964C20.1746 32.9346 20.1643 32.9084 20.1502 32.8823C20.1367 32.8566 20.1207 32.8338 20.1015 32.8109C20.0809 32.7857 20.0588 32.7638 20.0335 32.7432C20.0213 32.7334 20.0143 32.7199 20.0012 32.7115C18.3085 31.5994 17.2543 29.5713 17.2501 27.419C17.2449 24.8678 18.6371 22.6184 20.702 21.7266L20.7123 27.413C20.7127 27.5371 20.762 27.6556 20.8501 27.7424C20.9382 27.8302 21.0568 27.8787 21.181 27.8787C21.1815 27.8787 21.1815 27.8787 21.182 27.8787L24.0802 27.8731C24.339 27.8726 24.5485 27.6636 24.5481 27.4055L24.5382 21.7192C26.6063 22.6035 28.006 24.8477 28.0107 27.3994C28.0149 29.5853 27.0306 31.5434 25.3777 32.6382C25.3651 32.6471 25.3576 32.6602 25.3463 32.6695C25.3206 32.69 25.299 32.712 25.2784 32.7376C25.2596 32.7605 25.2437 32.7838 25.2296 32.809C25.2156 32.8352 25.2048 32.8613 25.1963 32.8902C25.1865 32.921 25.1804 32.9514 25.1771 32.9831C25.1757 32.998 25.1682 33.0116 25.1682 33.027V39.1618C25.1682 39.2388 25.1874 39.3144 25.224 39.3825L27.3685 43.3674C27.4496 43.5176 27.6451 43.6133 27.8167 43.6147C27.8579 43.6161 27.9202 43.6194 28.0079 43.6007L28.2029 43.5545C28.3801 43.5134 28.5577 43.4714 28.7326 43.4187C30.1824 42.9744 31.659 42.3724 33.1206 41.6295C33.2832 41.5474 33.4463 41.468 33.6104 41.3887L33.8766 41.2594C33.9034 41.2464 33.9615 41.2067 33.9845 41.189L34.0295 41.1558C34.2006 41.0322 34.2676 40.8105 34.1931 40.6136L34.1551 40.5188C34.1406 40.4824 34.1241 40.447 34.1148 40.4138C33.7201 38.941 33.3638 37.7048 33.0038 36.5582C33.0915 36.4957 33.1777 36.4322 33.264 36.3683C34.6731 35.3113 35.9021 34.0662 36.9221 32.663L40.7696 33.881C40.8249 33.8973 40.8821 33.9113 40.9309 33.923L40.9796 33.9351C41.1812 33.9888 41.3959 33.9034 41.5032 33.7246C42.7431 31.6685 43.5549 29.6693 43.9857 27.6122C44.0284 27.4102 43.9327 27.2053 43.7504 27.1068L40.0393 25.1016C40.051 25.025 40.0627 24.9485 40.074 24.8715C40.3102 23.2069 40.3046 21.5264 40.0581 19.8716L43.8109 17.9172C44.0073 17.815 44.1048 17.5906 44.0457 17.3787ZM39.3263 19.2001C39.1463 19.2939 39.0474 19.4918 39.0812 19.691C39.3638 21.3594 39.3854 23.058 39.1473 24.7394C39.121 24.9182 39.0924 25.0955 39.0615 25.2742C39.0273 25.4716 39.1234 25.6686 39.3001 25.7638L42.9948 27.7602C42.5926 29.4934 41.8988 31.1934 40.8826 32.9374L36.8804 31.6699C36.6845 31.6083 36.4702 31.6797 36.3531 31.8491C35.3523 33.2864 34.1232 34.5562 32.701 35.623C32.5318 35.7495 32.3593 35.8713 32.1868 35.9912C32.0185 36.1084 31.9459 36.3207 32.0082 36.5153C32.3912 37.7142 32.7652 38.9998 33.1843 40.558C33.0217 40.6369 32.8595 40.7158 32.6963 40.7979C31.2817 41.517 29.8552 42.099 28.4588 42.5269C28.3206 42.5689 28.1795 42.602 28.0388 42.6347L26.1067 39.0451V33.2668C27.894 31.9756 28.9534 29.8042 28.9487 27.398C28.9426 24.1934 26.9888 21.4018 24.197 20.6104C24.1801 20.6057 24.1627 20.6108 24.1454 20.608C24.1192 20.6034 24.0962 20.5926 24.0685 20.5926C24.0681 20.5926 24.0681 20.5926 24.0676 20.5926C24.0507 20.5926 24.0362 20.6006 24.0193 20.6024C23.9926 20.6052 23.9692 20.6108 23.9434 20.6178C23.9012 20.63 23.8632 20.6468 23.8267 20.6692C23.8135 20.6771 23.7976 20.678 23.7854 20.6874C23.7774 20.6934 23.7746 20.7032 23.7671 20.7093C23.7315 20.7396 23.7034 20.776 23.679 20.8162C23.6682 20.833 23.6542 20.847 23.6457 20.8652C23.6176 20.9249 23.5998 20.9902 23.5998 21.0607L23.6101 26.9416L21.6493 26.9454L21.6385 21.0644C21.6385 20.994 21.6202 20.9286 21.5917 20.8689C21.5832 20.8512 21.5701 20.8381 21.5598 20.8213C21.534 20.7812 21.5063 20.7443 21.4698 20.714C21.4623 20.7079 21.4595 20.6981 21.4515 20.692C21.4393 20.6827 21.4234 20.6822 21.4102 20.6738C21.3741 20.6519 21.3362 20.6351 21.294 20.6234C21.2677 20.616 21.2438 20.6108 21.2162 20.608C21.2002 20.6062 21.1866 20.5987 21.1698 20.5987C21.1693 20.5987 21.1693 20.5987 21.1688 20.5987C21.1417 20.5987 21.1182 20.6099 21.092 20.6141C21.0746 20.6169 21.0568 20.6118 21.0399 20.6169C18.2509 21.4191 16.3065 24.2172 16.3131 27.4223C16.3177 29.793 17.4479 32.0348 19.2746 33.3434V39.0264L17.3204 42.6254C15.3957 42.0677 13.7148 41.3691 12.2026 40.4974C12.5902 39.1935 13.0056 37.8546 13.4387 36.512C13.502 36.3165 13.4288 36.1032 13.2596 35.9861C11.822 34.9916 10.5526 33.7722 9.48571 32.3606C9.33993 32.1678 9.20118 31.9742 9.06477 31.7772C8.95087 31.6125 8.74415 31.5392 8.55009 31.5929L4.52493 32.7353L4.51227 32.7129C4.37212 32.4665 4.23384 32.2229 4.10774 31.9746C3.78009 31.3306 3.39477 30.5648 3.01837 29.7696C2.91149 29.5452 2.83368 29.2927 2.75024 29.0108C2.63212 28.6114 2.52056 28.2096 2.40712 27.8008L2.35556 27.616C3.54759 26.964 4.76821 26.3434 5.95227 25.7418L6.12899 25.6522C6.31087 25.5598 6.41212 25.3606 6.3779 25.1594C6.09899 23.499 6.0779 21.8064 6.31556 20.1292C6.35165 19.8763 6.3929 19.6257 6.44024 19.377C6.47821 19.1763 6.38118 18.9747 6.20024 18.8786L2.47321 16.9008C2.65556 16.0636 2.92837 15.2628 3.28462 14.5208C3.35352 14.378 3.41118 14.2296 3.46743 14.0826L3.50071 13.9954C3.77212 13.2968 4.14196 12.5767 4.62946 11.7974L8.69118 13.0508C8.88665 13.1101 9.09524 13.0396 9.21243 12.8754C10.1945 11.4982 11.3884 10.2779 12.7613 9.24891C12.9934 9.07438 13.2291 8.90778 13.4687 8.74724C13.6417 8.63151 13.7171 8.41638 13.6543 8.21898C13.2006 6.79751 12.7927 5.50298 12.4379 4.19398C14.2932 3.21864 15.954 2.56531 17.6115 2.15931L19.6135 5.89544C19.7073 6.07184 19.9056 6.16984 20.102 6.13764C21.7351 5.87631 23.3987 5.86091 25.0468 6.09331C25.2835 6.12644 25.5184 6.16611 25.7532 6.20858C25.9524 6.24311 26.1563 6.14604 26.2515 5.96498L26.6677 5.17304C27.1492 4.26211 27.6695 3.29098 28.2334 2.31378C30.0038 2.74544 31.6862 3.43004 33.3563 4.39791L32.1362 8.44951C32.0785 8.64131 32.1498 8.84851 32.3143 8.96424C33.7056 9.94518 34.937 11.1384 35.9748 12.5095C36.1177 12.699 36.2551 12.8908 36.3896 13.084C36.5049 13.2496 36.7135 13.3224 36.9071 13.2664L40.9182 12.0932C41.9687 13.8684 42.6024 15.743 43.0402 17.2653L39.3263 19.2001Z"/>
</mask>
<path d="M44.0457 17.3787C43.5643 15.6544 42.8438 13.4046 41.5299 11.298C41.4188 11.1198 41.2023 11.0376 40.9993 11.0964L36.9652 12.2766C36.8865 12.167 36.8063 12.0578 36.7243 11.949C35.6963 10.5901 34.4879 9.39778 33.1299 8.40004L34.2699 4.61351C34.292 4.53978 34.3112 4.46651 34.3313 4.39231L34.3557 4.30038C34.4106 4.09924 34.3248 3.88644 34.1457 3.77911C32.1831 2.59938 30.2068 1.79671 28.1045 1.32491C27.9052 1.27871 27.6995 1.36924 27.5963 1.54518C26.9565 2.63764 26.3734 3.72591 25.8376 4.73951L25.5788 5.23138C25.4457 5.20944 25.3121 5.18844 25.1776 5.16978C23.5487 4.94064 21.9048 4.93971 20.2857 5.16698L18.2677 1.40331C18.1688 1.21851 17.9588 1.12144 17.7512 1.16811C15.7951 1.60678 13.8615 2.36278 11.6654 3.54718C11.476 3.64984 11.3809 3.86778 11.4352 4.07591C11.7906 5.42598 12.1988 6.74011 12.6549 8.17278C12.5007 8.28058 12.3479 8.39118 12.1965 8.50504C10.8385 9.52331 9.64602 10.7184 8.64759 12.0624L4.82868 10.8841C4.36649 10.7404 4.13727 10.8244 3.88602 11.2229C3.34087 12.0844 2.92837 12.8819 2.62602 13.6617L2.59087 13.7527C2.54352 13.8759 2.49712 13.9996 2.43899 14.12C2.04243 14.945 1.74196 15.834 1.54462 16.7636C1.44102 17.255 1.53806 17.4646 1.97962 17.6993L5.45821 19.5454C5.43243 19.6966 5.40946 19.8483 5.38743 20.0014C5.15259 21.6599 5.15681 23.3324 5.39962 24.9774C4.14056 25.6172 2.84259 26.279 1.57649 26.9818C1.38759 27.0868 1.29477 27.307 1.35337 27.5152L1.50337 28.0528C1.61821 28.4662 1.73118 28.8722 1.85071 29.2773C1.94587 29.5974 2.03587 29.8854 2.1704 30.17C2.55196 30.976 2.94149 31.7488 3.27149 32.3979C3.40415 32.6597 3.54993 32.915 3.69712 33.1749L3.8879 33.5132C3.99384 33.7032 4.21696 33.7946 4.42649 33.7363L8.48681 32.5836C8.56884 32.698 8.65181 32.8109 8.73712 32.9238C9.79274 34.321 11.0377 35.5409 12.4412 36.5536C12.0052 37.9144 11.5881 39.2682 11.2004 40.5842C11.1399 40.7881 11.2257 41.0056 11.4076 41.1157C13.1649 42.1722 15.1341 42.9936 17.4287 43.6282C17.4704 43.6394 17.5126 43.645 17.5543 43.645C17.7231 43.645 17.8834 43.554 17.9668 43.4005L20.1559 39.3657C20.1929 39.2976 20.2121 39.2215 20.2121 39.144V33.1012C20.2121 33.0853 20.2046 33.0718 20.2027 33.0564C20.1995 33.0246 20.1934 32.9943 20.184 32.964C20.1746 32.9346 20.1643 32.9084 20.1502 32.8823C20.1367 32.8566 20.1207 32.8338 20.1015 32.8109C20.0809 32.7857 20.0588 32.7638 20.0335 32.7432C20.0213 32.7334 20.0143 32.7199 20.0012 32.7115C18.3085 31.5994 17.2543 29.5713 17.2501 27.419C17.2449 24.8678 18.6371 22.6184 20.702 21.7266L20.7123 27.413C20.7127 27.5371 20.762 27.6556 20.8501 27.7424C20.9382 27.8302 21.0568 27.8787 21.181 27.8787C21.1815 27.8787 21.1815 27.8787 21.182 27.8787L24.0802 27.8731C24.339 27.8726 24.5485 27.6636 24.5481 27.4055L24.5382 21.7192C26.6063 22.6035 28.006 24.8477 28.0107 27.3994C28.0149 29.5853 27.0306 31.5434 25.3777 32.6382C25.3651 32.6471 25.3576 32.6602 25.3463 32.6695C25.3206 32.69 25.299 32.712 25.2784 32.7376C25.2596 32.7605 25.2437 32.7838 25.2296 32.809C25.2156 32.8352 25.2048 32.8613 25.1963 32.8902C25.1865 32.921 25.1804 32.9514 25.1771 32.9831C25.1757 32.998 25.1682 33.0116 25.1682 33.027V39.1618C25.1682 39.2388 25.1874 39.3144 25.224 39.3825L27.3685 43.3674C27.4496 43.5176 27.6451 43.6133 27.8167 43.6147C27.8579 43.6161 27.9202 43.6194 28.0079 43.6007L28.2029 43.5545C28.3801 43.5134 28.5577 43.4714 28.7326 43.4187C30.1824 42.9744 31.659 42.3724 33.1206 41.6295C33.2832 41.5474 33.4463 41.468 33.6104 41.3887L33.8766 41.2594C33.9034 41.2464 33.9615 41.2067 33.9845 41.189L34.0295 41.1558C34.2006 41.0322 34.2676 40.8105 34.1931 40.6136L34.1551 40.5188C34.1406 40.4824 34.1241 40.447 34.1148 40.4138C33.7201 38.941 33.3638 37.7048 33.0038 36.5582C33.0915 36.4957 33.1777 36.4322 33.264 36.3683C34.6731 35.3113 35.9021 34.0662 36.9221 32.663L40.7696 33.881C40.8249 33.8973 40.8821 33.9113 40.9309 33.923L40.9796 33.9351C41.1812 33.9888 41.3959 33.9034 41.5032 33.7246C42.7431 31.6685 43.5549 29.6693 43.9857 27.6122C44.0284 27.4102 43.9327 27.2053 43.7504 27.1068L40.0393 25.1016C40.051 25.025 40.0627 24.9485 40.074 24.8715C40.3102 23.2069 40.3046 21.5264 40.0581 19.8716L43.8109 17.9172C44.0073 17.815 44.1048 17.5906 44.0457 17.3787ZM39.3263 19.2001C39.1463 19.2939 39.0474 19.4918 39.0812 19.691C39.3638 21.3594 39.3854 23.058 39.1473 24.7394C39.121 24.9182 39.0924 25.0955 39.0615 25.2742C39.0273 25.4716 39.1234 25.6686 39.3001 25.7638L42.9948 27.7602C42.5926 29.4934 41.8988 31.1934 40.8826 32.9374L36.8804 31.6699C36.6845 31.6083 36.4702 31.6797 36.3531 31.8491C35.3523 33.2864 34.1232 34.5562 32.701 35.623C32.5318 35.7495 32.3593 35.8713 32.1868 35.9912C32.0185 36.1084 31.9459 36.3207 32.0082 36.5153C32.3912 37.7142 32.7652 38.9998 33.1843 40.558C33.0217 40.6369 32.8595 40.7158 32.6963 40.7979C31.2817 41.517 29.8552 42.099 28.4588 42.5269C28.3206 42.5689 28.1795 42.602 28.0388 42.6347L26.1067 39.0451V33.2668C27.894 31.9756 28.9534 29.8042 28.9487 27.398C28.9426 24.1934 26.9888 21.4018 24.197 20.6104C24.1801 20.6057 24.1627 20.6108 24.1454 20.608C24.1192 20.6034 24.0962 20.5926 24.0685 20.5926C24.0681 20.5926 24.0681 20.5926 24.0676 20.5926C24.0507 20.5926 24.0362 20.6006 24.0193 20.6024C23.9926 20.6052 23.9692 20.6108 23.9434 20.6178C23.9012 20.63 23.8632 20.6468 23.8267 20.6692C23.8135 20.6771 23.7976 20.678 23.7854 20.6874C23.7774 20.6934 23.7746 20.7032 23.7671 20.7093C23.7315 20.7396 23.7034 20.776 23.679 20.8162C23.6682 20.833 23.6542 20.847 23.6457 20.8652C23.6176 20.9249 23.5998 20.9902 23.5998 21.0607L23.6101 26.9416L21.6493 26.9454L21.6385 21.0644C21.6385 20.994 21.6202 20.9286 21.5917 20.8689C21.5832 20.8512 21.5701 20.8381 21.5598 20.8213C21.534 20.7812 21.5063 20.7443 21.4698 20.714C21.4623 20.7079 21.4595 20.6981 21.4515 20.692C21.4393 20.6827 21.4234 20.6822 21.4102 20.6738C21.3741 20.6519 21.3362 20.6351 21.294 20.6234C21.2677 20.616 21.2438 20.6108 21.2162 20.608C21.2002 20.6062 21.1866 20.5987 21.1698 20.5987C21.1693 20.5987 21.1693 20.5987 21.1688 20.5987C21.1417 20.5987 21.1182 20.6099 21.092 20.6141C21.0746 20.6169 21.0568 20.6118 21.0399 20.6169C18.2509 21.4191 16.3065 24.2172 16.3131 27.4223C16.3177 29.793 17.4479 32.0348 19.2746 33.3434V39.0264L17.3204 42.6254C15.3957 42.0677 13.7148 41.3691 12.2026 40.4974C12.5902 39.1935 13.0056 37.8546 13.4387 36.512C13.502 36.3165 13.4288 36.1032 13.2596 35.9861C11.822 34.9916 10.5526 33.7722 9.48571 32.3606C9.33993 32.1678 9.20118 31.9742 9.06477 31.7772C8.95087 31.6125 8.74415 31.5392 8.55009 31.5929L4.52493 32.7353L4.51227 32.7129C4.37212 32.4665 4.23384 32.2229 4.10774 31.9746C3.78009 31.3306 3.39477 30.5648 3.01837 29.7696C2.91149 29.5452 2.83368 29.2927 2.75024 29.0108C2.63212 28.6114 2.52056 28.2096 2.40712 27.8008L2.35556 27.616C3.54759 26.964 4.76821 26.3434 5.95227 25.7418L6.12899 25.6522C6.31087 25.5598 6.41212 25.3606 6.3779 25.1594C6.09899 23.499 6.0779 21.8064 6.31556 20.1292C6.35165 19.8763 6.3929 19.6257 6.44024 19.377C6.47821 19.1763 6.38118 18.9747 6.20024 18.8786L2.47321 16.9008C2.65556 16.0636 2.92837 15.2628 3.28462 14.5208C3.35352 14.378 3.41118 14.2296 3.46743 14.0826L3.50071 13.9954C3.77212 13.2968 4.14196 12.5767 4.62946 11.7974L8.69118 13.0508C8.88665 13.1101 9.09524 13.0396 9.21243 12.8754C10.1945 11.4982 11.3884 10.2779 12.7613 9.24891C12.9934 9.07438 13.2291 8.90778 13.4687 8.74724C13.6417 8.63151 13.7171 8.41638 13.6543 8.21898C13.2006 6.79751 12.7927 5.50298 12.4379 4.19398C14.2932 3.21864 15.954 2.56531 17.6115 2.15931L19.6135 5.89544C19.7073 6.07184 19.9056 6.16984 20.102 6.13764C21.7351 5.87631 23.3987 5.86091 25.0468 6.09331C25.2835 6.12644 25.5184 6.16611 25.7532 6.20858C25.9524 6.24311 26.1563 6.14604 26.2515 5.96498L26.6677 5.17304C27.1492 4.26211 27.6695 3.29098 28.2334 2.31378C30.0038 2.74544 31.6862 3.43004 33.3563 4.39791L32.1362 8.44951C32.0785 8.64131 32.1498 8.84851 32.3143 8.96424C33.7056 9.94518 34.937 11.1384 35.9748 12.5095C36.1177 12.699 36.2551 12.8908 36.3896 13.084C36.5049 13.2496 36.7135 13.3224 36.9071 13.2664L40.9182 12.0932C41.9687 13.8684 42.6024 15.743 43.0402 17.2653L39.3263 19.2001Z" fill="#028088"/>
<path d="M44.0457 17.3787C43.5643 15.6544 42.8438 13.4046 41.5299 11.298C41.4188 11.1198 41.2023 11.0376 40.9993 11.0964L36.9652 12.2766C36.8865 12.167 36.8063 12.0578 36.7243 11.949C35.6963 10.5901 34.4879 9.39778 33.1299 8.40004L34.2699 4.61351C34.292 4.53978 34.3112 4.46651 34.3313 4.39231L34.3557 4.30038C34.4106 4.09924 34.3248 3.88644 34.1457 3.77911C32.1831 2.59938 30.2068 1.79671 28.1045 1.32491C27.9052 1.27871 27.6995 1.36924 27.5963 1.54518C26.9565 2.63764 26.3734 3.72591 25.8376 4.73951L25.5788 5.23138C25.4457 5.20944 25.3121 5.18844 25.1776 5.16978C23.5487 4.94064 21.9048 4.93971 20.2857 5.16698L18.2677 1.40331C18.1688 1.21851 17.9588 1.12144 17.7512 1.16811C15.7951 1.60678 13.8615 2.36278 11.6654 3.54718C11.476 3.64984 11.3809 3.86778 11.4352 4.07591C11.7906 5.42598 12.1988 6.74011 12.6549 8.17278C12.5007 8.28058 12.3479 8.39118 12.1965 8.50504C10.8385 9.52331 9.64602 10.7184 8.64759 12.0624L4.82868 10.8841C4.36649 10.7404 4.13727 10.8244 3.88602 11.2229C3.34087 12.0844 2.92837 12.8819 2.62602 13.6617L2.59087 13.7527C2.54352 13.8759 2.49712 13.9996 2.43899 14.12C2.04243 14.945 1.74196 15.834 1.54462 16.7636C1.44102 17.255 1.53806 17.4646 1.97962 17.6993L5.45821 19.5454C5.43243 19.6966 5.40946 19.8483 5.38743 20.0014C5.15259 21.6599 5.15681 23.3324 5.39962 24.9774C4.14056 25.6172 2.84259 26.279 1.57649 26.9818C1.38759 27.0868 1.29477 27.307 1.35337 27.5152L1.50337 28.0528C1.61821 28.4662 1.73118 28.8722 1.85071 29.2773C1.94587 29.5974 2.03587 29.8854 2.1704 30.17C2.55196 30.976 2.94149 31.7488 3.27149 32.3979C3.40415 32.6597 3.54993 32.915 3.69712 33.1749L3.8879 33.5132C3.99384 33.7032 4.21696 33.7946 4.42649 33.7363L8.48681 32.5836C8.56884 32.698 8.65181 32.8109 8.73712 32.9238C9.79274 34.321 11.0377 35.5409 12.4412 36.5536C12.0052 37.9144 11.5881 39.2682 11.2004 40.5842C11.1399 40.7881 11.2257 41.0056 11.4076 41.1157C13.1649 42.1722 15.1341 42.9936 17.4287 43.6282C17.4704 43.6394 17.5126 43.645 17.5543 43.645C17.7231 43.645 17.8834 43.554 17.9668 43.4005L20.1559 39.3657C20.1929 39.2976 20.2121 39.2215 20.2121 39.144V33.1012C20.2121 33.0853 20.2046 33.0718 20.2027 33.0564C20.1995 33.0246 20.1934 32.9943 20.184 32.964C20.1746 32.9346 20.1643 32.9084 20.1502 32.8823C20.1367 32.8566 20.1207 32.8338 20.1015 32.8109C20.0809 32.7857 20.0588 32.7638 20.0335 32.7432C20.0213 32.7334 20.0143 32.7199 20.0012 32.7115C18.3085 31.5994 17.2543 29.5713 17.2501 27.419C17.2449 24.8678 18.6371 22.6184 20.702 21.7266L20.7123 27.413C20.7127 27.5371 20.762 27.6556 20.8501 27.7424C20.9382 27.8302 21.0568 27.8787 21.181 27.8787C21.1815 27.8787 21.1815 27.8787 21.182 27.8787L24.0802 27.8731C24.339 27.8726 24.5485 27.6636 24.5481 27.4055L24.5382 21.7192C26.6063 22.6035 28.006 24.8477 28.0107 27.3994C28.0149 29.5853 27.0306 31.5434 25.3777 32.6382C25.3651 32.6471 25.3576 32.6602 25.3463 32.6695C25.3206 32.69 25.299 32.712 25.2784 32.7376C25.2596 32.7605 25.2437 32.7838 25.2296 32.809C25.2156 32.8352 25.2048 32.8613 25.1963 32.8902C25.1865 32.921 25.1804 32.9514 25.1771 32.9831C25.1757 32.998 25.1682 33.0116 25.1682 33.027V39.1618C25.1682 39.2388 25.1874 39.3144 25.224 39.3825L27.3685 43.3674C27.4496 43.5176 27.6451 43.6133 27.8167 43.6147C27.8579 43.6161 27.9202 43.6194 28.0079 43.6007L28.2029 43.5545C28.3801 43.5134 28.5577 43.4714 28.7326 43.4187C30.1824 42.9744 31.659 42.3724 33.1206 41.6295C33.2832 41.5474 33.4463 41.468 33.6104 41.3887L33.8766 41.2594C33.9034 41.2464 33.9615 41.2067 33.9845 41.189L34.0295 41.1558C34.2006 41.0322 34.2676 40.8105 34.1931 40.6136L34.1551 40.5188C34.1406 40.4824 34.1241 40.447 34.1148 40.4138C33.7201 38.941 33.3638 37.7048 33.0038 36.5582C33.0915 36.4957 33.1777 36.4322 33.264 36.3683C34.6731 35.3113 35.9021 34.0662 36.9221 32.663L40.7696 33.881C40.8249 33.8973 40.8821 33.9113 40.9309 33.923L40.9796 33.9351C41.1812 33.9888 41.3959 33.9034 41.5032 33.7246C42.7431 31.6685 43.5549 29.6693 43.9857 27.6122C44.0284 27.4102 43.9327 27.2053 43.7504 27.1068L40.0393 25.1016C40.051 25.025 40.0627 24.9485 40.074 24.8715C40.3102 23.2069 40.3046 21.5264 40.0581 19.8716L43.8109 17.9172C44.0073 17.815 44.1048 17.5906 44.0457 17.3787ZM39.3263 19.2001C39.1463 19.2939 39.0474 19.4918 39.0812 19.691C39.3638 21.3594 39.3854 23.058 39.1473 24.7394C39.121 24.9182 39.0924 25.0955 39.0615 25.2742C39.0273 25.4716 39.1234 25.6686 39.3001 25.7638L42.9948 27.7602C42.5926 29.4934 41.8988 31.1934 40.8826 32.9374L36.8804 31.6699C36.6845 31.6083 36.4702 31.6797 36.3531 31.8491C35.3523 33.2864 34.1232 34.5562 32.701 35.623C32.5318 35.7495 32.3593 35.8713 32.1868 35.9912C32.0185 36.1084 31.9459 36.3207 32.0082 36.5153C32.3912 37.7142 32.7652 38.9998 33.1843 40.558C33.0217 40.6369 32.8595 40.7158 32.6963 40.7979C31.2817 41.517 29.8552 42.099 28.4588 42.5269C28.3206 42.5689 28.1795 42.602 28.0388 42.6347L26.1067 39.0451V33.2668C27.894 31.9756 28.9534 29.8042 28.9487 27.398C28.9426 24.1934 26.9888 21.4018 24.197 20.6104C24.1801 20.6057 24.1627 20.6108 24.1454 20.608C24.1192 20.6034 24.0962 20.5926 24.0685 20.5926C24.0681 20.5926 24.0681 20.5926 24.0676 20.5926C24.0507 20.5926 24.0362 20.6006 24.0193 20.6024C23.9926 20.6052 23.9692 20.6108 23.9434 20.6178C23.9012 20.63 23.8632 20.6468 23.8267 20.6692C23.8135 20.6771 23.7976 20.678 23.7854 20.6874C23.7774 20.6934 23.7746 20.7032 23.7671 20.7093C23.7315 20.7396 23.7034 20.776 23.679 20.8162C23.6682 20.833 23.6542 20.847 23.6457 20.8652C23.6176 20.9249 23.5998 20.9902 23.5998 21.0607L23.6101 26.9416L21.6493 26.9454L21.6385 21.0644C21.6385 20.994 21.6202 20.9286 21.5917 20.8689C21.5832 20.8512 21.5701 20.8381 21.5598 20.8213C21.534 20.7812 21.5063 20.7443 21.4698 20.714C21.4623 20.7079 21.4595 20.6981 21.4515 20.692C21.4393 20.6827 21.4234 20.6822 21.4102 20.6738C21.3741 20.6519 21.3362 20.6351 21.294 20.6234C21.2677 20.616 21.2438 20.6108 21.2162 20.608C21.2002 20.6062 21.1866 20.5987 21.1698 20.5987C21.1693 20.5987 21.1693 20.5987 21.1688 20.5987C21.1417 20.5987 21.1182 20.6099 21.092 20.6141C21.0746 20.6169 21.0568 20.6118 21.0399 20.6169C18.2509 21.4191 16.3065 24.2172 16.3131 27.4223C16.3177 29.793 17.4479 32.0348 19.2746 33.3434V39.0264L17.3204 42.6254C15.3957 42.0677 13.7148 41.3691 12.2026 40.4974C12.5902 39.1935 13.0056 37.8546 13.4387 36.512C13.502 36.3165 13.4288 36.1032 13.2596 35.9861C11.822 34.9916 10.5526 33.7722 9.48571 32.3606C9.33993 32.1678 9.20118 31.9742 9.06477 31.7772C8.95087 31.6125 8.74415 31.5392 8.55009 31.5929L4.52493 32.7353L4.51227 32.7129C4.37212 32.4665 4.23384 32.2229 4.10774 31.9746C3.78009 31.3306 3.39477 30.5648 3.01837 29.7696C2.91149 29.5452 2.83368 29.2927 2.75024 29.0108C2.63212 28.6114 2.52056 28.2096 2.40712 27.8008L2.35556 27.616C3.54759 26.964 4.76821 26.3434 5.95227 25.7418L6.12899 25.6522C6.31087 25.5598 6.41212 25.3606 6.3779 25.1594C6.09899 23.499 6.0779 21.8064 6.31556 20.1292C6.35165 19.8763 6.3929 19.6257 6.44024 19.377C6.47821 19.1763 6.38118 18.9747 6.20024 18.8786L2.47321 16.9008C2.65556 16.0636 2.92837 15.2628 3.28462 14.5208C3.35352 14.378 3.41118 14.2296 3.46743 14.0826L3.50071 13.9954C3.77212 13.2968 4.14196 12.5767 4.62946 11.7974L8.69118 13.0508C8.88665 13.1101 9.09524 13.0396 9.21243 12.8754C10.1945 11.4982 11.3884 10.2779 12.7613 9.24891C12.9934 9.07438 13.2291 8.90778 13.4687 8.74724C13.6417 8.63151 13.7171 8.41638 13.6543 8.21898C13.2006 6.79751 12.7927 5.50298 12.4379 4.19398C14.2932 3.21864 15.954 2.56531 17.6115 2.15931L19.6135 5.89544C19.7073 6.07184 19.9056 6.16984 20.102 6.13764C21.7351 5.87631 23.3987 5.86091 25.0468 6.09331C25.2835 6.12644 25.5184 6.16611 25.7532 6.20858C25.9524 6.24311 26.1563 6.14604 26.2515 5.96498L26.6677 5.17304C27.1492 4.26211 27.6695 3.29098 28.2334 2.31378C30.0038 2.74544 31.6862 3.43004 33.3563 4.39791L32.1362 8.44951C32.0785 8.64131 32.1498 8.84851 32.3143 8.96424C33.7056 9.94518 34.937 11.1384 35.9748 12.5095C36.1177 12.699 36.2551 12.8908 36.3896 13.084C36.5049 13.2496 36.7135 13.3224 36.9071 13.2664L40.9182 12.0932C41.9687 13.8684 42.6024 15.743 43.0402 17.2653L39.3263 19.2001Z" stroke="#028088" stroke-width="0.6" mask="url(#path-1-outside-1)"/>
<path d="M15.4338 16.6903L15.4336 16.69C15.2284 16.4172 15.2844 16.0303 15.5581 15.8263C17.61 14.2963 20.0542 13.4875 22.6241 13.4875C25.1946 13.4875 27.6378 14.2963 29.6902 15.8258L29.6902 15.8258C29.9639 16.0298 30.0198 16.4167 29.8146 16.6896L29.8145 16.6897C29.6093 16.9617 29.2228 17.0178 28.9488 16.8134C27.1125 15.444 24.9264 14.7203 22.6246 14.7203C20.3229 14.7203 18.1368 15.444 16.3 16.8134L15.4338 16.6903ZM15.4338 16.6903C15.5558 16.8517 15.7416 16.9365 15.9295 16.9365M15.4338 16.6903L15.9295 16.9365M15.9295 16.9365C16.058 16.9365 16.1886 16.8965 16.2999 16.8134L15.9295 16.9365Z" fill="#028088" stroke="#028088" stroke-width="0.3"/>
<path d="M18.8842 17.5477L18.884 17.5479C18.6111 17.7518 18.5543 18.1386 18.7597 18.4115C18.9645 18.6838 19.3515 18.7397 19.6253 18.536L19.6254 18.5359C20.4966 17.8866 21.533 17.5436 22.6244 17.5436C23.7154 17.5436 24.7517 17.8866 25.6239 18.5359L25.6241 18.5361C25.7351 18.6184 25.865 18.6585 25.9938 18.6585C26.182 18.6585 26.3676 18.573 26.4894 18.4118L26.4896 18.4115C26.695 18.1385 26.6381 17.7516 26.3647 17.5478L26.3646 17.5477C25.2769 16.7379 23.9836 16.3098 22.6244 16.3098C21.2647 16.3098 19.9709 16.7383 18.8842 17.5477Z" fill="#028088" stroke="#028088" stroke-width="0.3"/>
<path d="M12.8011 14.4742L12.8008 14.4739C12.5956 14.2011 12.6516 13.8141 12.9253 13.6101L12.8011 14.4742ZM12.8011 14.4742C13.0062 14.7455 13.3931 14.8017 13.6666 14.5978L13.6666 14.5977M12.8011 14.4742L13.6666 14.5977M13.6666 14.5977C16.2675 12.6581 19.3644 11.6329 22.6243 11.6329C25.8841 11.6329 28.9806 12.6581 31.5814 14.5977C31.6927 14.6808 31.8233 14.7208 31.952 14.7208C32.14 14.7208 32.3251 14.6359 32.4474 14.4749L32.4478 14.4743C32.653 14.2015 32.597 13.8146 32.3233 13.6106C29.5064 11.5098 26.1524 10.3996 22.6243 10.3996C19.0962 10.3996 15.7418 11.5098 12.9253 13.6101L13.6666 14.5977Z" fill="#028088" stroke="#028088" stroke-width="0.3"/>
</svg>
