<svg width="47" height="60" viewBox="0 0 47 60" fill="none" xmlns="http://www.w3.org/2000/svg">
<path d="M16.3078 6.03637L20.082 6.61819C20.1533 6.61819 20.1533 6.61819 20.2245 6.61819C20.5805 6.61819 20.8654 6.32728 20.9366 6.03637C21.0078 5.67274 20.723 5.23637 20.3669 5.23637L18.1593 4.87274C21.7199 2.1091 26.8472 2.47274 30.1229 5.81819C30.4078 6.1091 30.8351 6.1091 31.1199 5.81819C31.4048 5.52728 31.4048 5.09092 31.1199 4.80001C27.4169 1.01819 21.5775 0.581829 17.376 3.56365L17.6608 1.60001C17.732 1.16365 17.5184 0.800011 17.0911 0.727283C16.7351 0.654556 16.3078 0.945465 16.3078 1.3091C16.0942 2.83637 15.7381 4.94547 15.7381 5.23637C15.6669 5.45456 15.8805 5.96365 16.3078 6.03637Z" fill="#028088"/>
<path d="M30.1231 42.1819C26.8473 45.5273 21.7201 45.8909 18.0883 43.2L20.2958 42.8364C20.6519 42.7637 20.9367 42.4 20.8655 42.0364C20.7943 41.6728 20.4383 41.3819 20.0822 41.4546L16.308 42.0364H16.2367C15.8807 42.1091 15.667 42.4728 15.7383 42.7637C15.7383 42.7637 15.7383 42.7637 15.7383 42.8364L16.308 46.6909C16.3792 47.0546 16.664 47.2728 17.0201 47.2728C17.0913 47.2728 17.0913 47.2728 17.1625 47.2728C17.5186 47.2 17.8034 46.8364 17.7322 46.4728L17.4473 44.5091C21.6489 47.4909 27.417 47.0546 31.1913 43.2728C31.4761 42.9818 31.4761 42.5455 31.1913 42.2546C30.8352 41.8909 30.4079 41.8909 30.1231 42.1819Z" fill="#028088"/>
<path d="M45.7183 16.6546C44.0092 16.3637 42.1577 16.0728 41.8729 16.0728C41.5168 16.0728 41.232 16.2182 41.1608 16.5818V16.6546L40.5911 20.5091C40.5199 20.8728 40.8047 21.3091 41.1608 21.3091C41.232 21.3091 41.232 21.3091 41.3032 21.3091C41.6592 21.3091 41.9441 21.0182 42.0153 20.7273L42.3714 18.4728C45.0062 22.1818 44.7214 27.4182 41.3744 30.7637C41.0895 31.0546 41.0895 31.4909 41.3744 31.7818C41.6592 32.0728 42.0865 32.0728 42.3714 31.7818C46.0744 28 46.5017 22.0364 43.582 17.7455L45.5047 18.0364C45.8608 18.1091 46.288 17.8182 46.288 17.4546C46.3592 17.0909 46.0744 16.7273 45.7183 16.6546Z" fill="#028088"/>
<path d="M5.83935 16.4363C5.62571 15.9272 5.19844 16.0727 5.12723 16.0727L1.35299 16.6545C0.925714 16.7272 0.640865 17.0909 0.712078 17.4545C0.78329 17.8182 1.13935 18.1091 1.49541 18.0363L3.41814 17.7454C0.498441 22.0363 0.925714 27.9272 4.62874 31.7818C4.91359 32.0727 5.34087 32.0727 5.62571 31.7818C5.91056 31.4909 5.91056 31.0545 5.62571 30.7636C2.34996 27.4182 2.06511 22.1818 4.62874 18.4727L4.98481 20.7272C5.05602 21.0909 5.34087 21.3091 5.69693 21.3091C5.76814 21.3091 5.76814 21.3091 5.83935 21.3091C6.19541 21.2363 6.48026 20.8727 6.40905 20.5091C5.91056 16.8727 5.98178 16.6545 5.83935 16.4363Z" fill="#028088"/>
<path d="M38.241 21.0909L35.6061 20.5091C35.3213 19.5636 34.9652 18.6182 34.4667 17.7455L35.9622 15.4182C36.1758 15.1273 36.1046 14.7636 35.891 14.4727L32.7576 11.4182C32.544 11.2 32.1167 11.1273 31.8319 11.3455L29.5531 12.8727C28.6985 12.3636 27.7728 12 26.847 11.7091L26.3485 8.94547C26.2773 8.58183 25.9925 8.36365 25.6364 8.36365H21.3637C21.0076 8.36365 20.7228 8.58183 20.6516 8.94547L20.0819 11.6364C19.1561 11.9273 18.2304 12.2909 17.3758 12.8L15.097 11.2727C14.8122 11.0546 14.4561 11.1273 14.1713 11.3455L11.1804 14.5455C10.9667 14.7636 10.8955 15.2 11.1092 15.4909L12.6046 17.8182C12.1061 18.6909 11.7501 19.6364 11.4652 20.5818L8.75915 21.0909C8.40309 21.1636 8.18945 21.4546 8.18945 21.8182V26.1818C8.18945 26.5455 8.40309 26.8364 8.75915 26.9091L11.394 27.4909C11.6788 28.4364 12.0349 29.3818 12.5334 30.2546L11.0379 32.5818C10.8243 32.8727 10.8955 33.2364 11.1092 33.5273L14.1713 36.6546C14.3849 36.8727 14.8122 36.9455 15.097 36.7273L17.3758 35.2C18.2304 35.7091 19.1561 36.0727 20.0819 36.3636L20.6516 39.0546C20.7228 39.4182 21.0076 39.6364 21.3637 39.6364H25.6364C25.9925 39.6364 26.2773 39.4182 26.3485 39.0546L26.9182 36.3636C27.844 36.0727 28.7698 35.7091 29.6243 35.2L31.9031 36.7273C32.1879 36.9455 32.544 36.8727 32.8288 36.6546L35.891 33.5273C36.1046 33.3091 36.1758 32.8727 35.9622 32.5818L34.4667 30.2546C34.9652 29.3818 35.3213 28.4364 35.6061 27.4909L38.241 26.9091C38.597 26.8364 38.8107 26.5455 38.8107 26.1818V21.8182C38.8107 21.4546 38.5258 21.1636 38.241 21.0909ZM37.3864 25.6L34.8228 26.1818C34.5379 26.2546 34.3243 26.4727 34.2531 26.6909C33.9682 27.7818 33.541 28.8727 32.9713 29.8909C32.8288 30.1091 32.8288 30.4 32.9713 30.6909L34.3955 32.8727L32.1879 35.1273L30.0516 33.6727C29.8379 33.5273 29.5531 33.5273 29.2682 33.6727C28.2713 34.2546 27.2743 34.6909 26.1349 34.9818C25.8501 35.0546 25.6364 35.2727 25.6364 35.5636L25.0667 38.1818H21.9334L21.3637 35.5636C21.2925 35.2727 21.0788 35.0546 20.8652 34.9818C19.797 34.6909 18.7288 34.2546 17.7319 33.6727C17.5182 33.5273 17.2334 33.5273 16.9485 33.6727L14.8122 35.1273L12.6046 32.8727L14.0288 30.6909C14.1713 30.4727 14.1713 30.1818 14.0288 29.8909C13.4592 28.8727 13.0319 27.8546 12.747 26.6909C12.6758 26.4 12.4622 26.1818 12.1773 26.1818L9.6137 25.6V22.4L12.1773 21.8182C12.4622 21.7455 12.6758 21.5273 12.747 21.3091C13.0319 20.2182 13.4592 19.1273 14.0288 18.1091C14.1713 17.8909 14.1713 17.6 14.0288 17.3091L12.6046 15.1273L14.8122 12.8727L16.9485 14.3273C17.1622 14.4727 17.447 14.4727 17.7319 14.3273C18.7288 13.7455 19.7258 13.3091 20.8652 13.0182C21.1501 12.9455 21.3637 12.7273 21.3637 12.4364L21.9334 9.81819H25.0667L25.6364 12.4364C25.7076 12.7273 25.9213 12.9455 26.1349 13.0182C27.2031 13.3091 28.2713 13.7455 29.2682 14.3273C29.4819 14.4727 29.7667 14.4727 30.0516 14.3273L32.1879 12.8727L34.3955 15.1273L32.9713 17.3091C32.8288 17.5273 32.8288 17.8182 32.9713 18.1091C33.541 19.1273 33.9682 20.1455 34.2531 21.3091C34.3243 21.6 34.5379 21.8182 34.8228 21.8182L37.3864 22.4V25.6Z" fill="#028088"/>
<path d="M23.5001 14.8364C18.5864 14.8364 14.5273 18.9092 14.5273 24.0001C14.5273 29.091 18.5864 33.1637 23.5001 33.1637C28.4137 33.1637 32.4728 29.0182 32.4728 24.0001C32.4728 18.9819 28.4137 14.8364 23.5001 14.8364ZM23.5001 31.7092C19.3698 31.7092 15.9516 28.291 15.9516 24.0001C15.9516 19.7819 19.2986 16.291 23.5001 16.291C27.6304 16.291 31.0486 19.7092 31.0486 24.0001C31.0486 28.2182 27.6304 31.7092 23.5001 31.7092Z" fill="#028088"/>
<path d="M20.6518 23.2727H19.2275V24.7272H20.6518V23.2727Z" fill="#028088"/>
<path d="M24.2123 23.2727H22.7881V24.7272H24.2123V23.2727Z" fill="#028088"/>
<path d="M27.7729 23.2727H26.3486V24.7272H27.7729V23.2727Z" fill="#028088"/>
</svg>
