<svg width="35" height="35" viewBox="0 0 35 35" fill="none" xmlns="http://www.w3.org/2000/svg">
<circle cx="17.5" cy="17.5" r="17.1111" stroke="#149F97" stroke-width="0.777778"/>
<path d="M21.4631 7.66053L18.8397 7.65625C15.8924 7.65625 13.9877 9.64311 13.9877 12.7183V15.0523H11.35C11.1221 15.0523 10.9375 15.2401 10.9375 15.4719V18.8535C10.9375 19.0853 11.1223 19.2729 11.35 19.2729H13.9877V27.8058C13.9877 28.0376 14.1723 28.2253 14.4002 28.2253H17.8417C18.0696 28.2253 18.2542 28.0374 18.2542 27.8058V19.2729H21.3383C21.5663 19.2729 21.7508 19.0853 21.7508 18.8535L21.7521 15.4719C21.7521 15.3606 21.7085 15.254 21.6313 15.1753C21.554 15.0966 21.4488 15.0523 21.3394 15.0523H18.2542V13.0737C18.2542 12.1228 18.4771 11.64 19.6955 11.64L21.4627 11.6394C21.6904 11.6394 21.875 11.4515 21.875 11.22V8.07994C21.875 7.84862 21.6906 7.66096 21.4631 7.66053Z" fill="#028088"/>
</svg>
