<svg width="35" height="35" viewBox="0 0 35 35" fill="none" xmlns="http://www.w3.org/2000/svg">
<circle cx="17.5" cy="17.5" r="17.1111" stroke="#149F97" stroke-width="0.777778"/>
<path d="M23.874 8.75H11.126C9.81587 8.75 8.75 9.82586 8.75 11.1483V24.0158C8.75 25.3383 9.81587 26.4141 11.126 26.4141H23.874C25.1841 26.4141 26.25 25.3383 26.25 24.0158V11.1483C26.25 9.82586 25.1841 8.75 23.874 8.75ZM17.5 21.8973C15.3419 21.8973 13.5863 20.1252 13.5863 17.9469C13.5863 15.7687 15.342 13.9965 17.5 13.9965C19.658 13.9965 21.4137 15.7687 21.4137 17.9469C21.4137 20.1252 19.6581 21.8973 17.5 21.8973ZM24.7684 15.0308H21.2323C20.3397 13.9522 18.9979 13.2648 17.5 13.2648C16.0021 13.2648 14.6603 13.9522 13.7677 15.0308H10.2316V11.6009C10.2316 10.729 10.9344 10.0198 11.7981 10.0198H23.202C24.0657 10.0198 24.7684 10.729 24.7684 11.6009V15.0308H24.7684Z" fill="#028088"/>
<path d="M17.5004 15.4062C16.1131 15.4062 14.9844 16.5455 14.9844 17.9458C14.9844 19.3461 16.1131 20.4853 17.5004 20.4853C18.8877 20.4853 20.0164 19.3461 20.0164 17.9458C20.0164 16.5455 18.8877 15.4062 17.5004 15.4062Z" fill="#028088"/>
<path d="M22.8391 11.0356H21.3249C20.9788 11.0356 20.6973 11.3199 20.6973 11.6692V13.1977C20.6973 13.547 20.9788 13.8312 21.3249 13.8312H22.8391C23.1852 13.8312 23.4668 13.547 23.4668 13.1977V11.6692C23.4668 11.3199 23.1852 11.0356 22.8391 11.0356Z" fill="#028088"/>
</svg>
