<svg width="36" height="35" viewBox="0 0 36 35" fill="none" xmlns="http://www.w3.org/2000/svg">
<circle cx="18.2793" cy="17.5" r="17.1111" stroke="#149F97" stroke-width="0.777778"/>
<path d="M15.2453 22.5558H12.6009V14.2336H15.2453V22.5558ZM13.9231 13.0669C13.0675 13.0669 12.4453 12.4447 12.4453 11.5891C12.4453 10.7336 13.1453 10.1113 13.9231 10.1113C14.7786 10.1113 15.4009 10.7336 15.4009 11.5891C15.4009 12.4447 14.7786 13.0669 13.9231 13.0669ZM24.8898 22.5558H22.2453V18.0447C22.2453 16.7224 21.7009 16.3336 20.9231 16.3336C20.1453 16.3336 19.3675 16.9558 19.3675 18.1224V22.5558H16.7231V14.2336H19.212V15.4002C19.4453 14.8558 20.3786 14.0002 21.7009 14.0002C23.1786 14.0002 24.7342 14.8558 24.7342 17.4224V22.5558H24.8898Z" fill="#028088"/>
</svg>
