<svg width="35" height="35" viewBox="0 0 35 35" fill="none" xmlns="http://www.w3.org/2000/svg">
<circle cx="17.5" cy="17.5" r="17.1111" stroke="#149F97" stroke-width="0.777778"/>
<path d="M8.75 24.6783C10.7012 24.6944 12.4884 24.2192 14.0379 22.963C12.4064 22.7214 11.1931 21.9725 10.5126 20.3861C11.0783 20.3458 11.5702 20.3056 12.0621 20.2653C12.0867 20.225 12.1031 20.1848 12.1277 20.1445C10.3241 19.5405 9.2255 18.4051 9.07793 16.4805C9.64361 16.6093 10.1601 16.7301 10.6766 16.8509C10.7094 16.8026 10.7422 16.7543 10.775 16.7059C9.99614 16.1181 9.44686 15.3933 9.2173 14.4673C8.98775 13.5492 9.06154 12.6473 9.74199 11.6649C9.81578 11.8098 9.85677 11.9789 9.96335 12.0917C11.9391 14.1854 14.374 15.3853 17.2762 15.6671C17.7599 15.7154 17.7927 15.6752 17.7353 15.192C17.555 13.6298 18.3666 12.1158 19.7931 11.3669C21.1376 10.6583 22.9659 10.8354 24.1382 11.834C24.4415 12.0917 24.7203 12.148 25.0646 12.0272C25.6467 11.8179 26.237 11.6085 26.9502 11.3589C26.6797 11.7776 26.4829 12.1158 26.2452 12.4379C26.0156 12.752 25.7451 13.0419 25.5073 13.3237C26.0402 13.3237 26.6305 13.0822 27.3438 12.8808C27.2044 13.0741 27.147 13.1868 27.065 13.2754C26.7289 13.6217 26.4091 14.0002 26.0238 14.2981C25.6549 14.588 25.5319 14.8941 25.5237 15.3531C25.4745 20.072 22.1214 25.3628 15.8497 26.1519C13.4312 26.4579 11.1439 26.0472 8.98775 24.9279C8.90577 24.8876 8.83198 24.8313 8.75 24.7829C8.75 24.7427 8.75 24.7105 8.75 24.6783Z" fill="#028088"/>
</svg>
