<svg width="91" height="91" viewBox="0 0 91 91" fill="none" xmlns="http://www.w3.org/2000/svg">
<path d="M68.2878 37.7281H64.7702C64.2806 35.4966 63.3978 33.3701 62.163 31.4479L64.6547 28.9563C65.614 27.9969 65.5163 26.3447 64.4371 25.2655L62.4828 23.3113C61.9447 22.7559 61.2085 22.4365 60.4353 22.423C60.1305 22.4186 59.8279 22.4749 59.545 22.5885C59.2622 22.7021 59.0047 22.8708 58.7876 23.0847L56.2959 25.5764C54.3723 24.3424 52.2442 23.461 50.0113 22.9737V19.4561C50.0158 18.097 48.7811 17 47.2532 17H44.4951C42.9672 17 41.7281 18.097 41.7281 19.4561V22.9781C39.4967 23.4658 37.3701 24.3471 35.4479 25.5808L32.9563 23.0892C32.7392 22.8752 32.4817 22.7065 32.1988 22.5929C31.916 22.4793 31.6133 22.4231 31.3085 22.4274C30.5355 22.4415 29.7994 22.7608 29.261 23.3157L27.3068 25.261C26.2231 26.3403 26.1298 27.9925 27.0847 28.9519L29.5808 31.4435C28.3475 33.3658 27.4662 35.4924 26.9781 37.7236H23.4561C22.097 37.7281 21 38.9628 21 40.4907V43.2488C21 44.7766 22.097 46.0158 23.4561 46.0158H26.9781C27.4668 48.2468 28.3481 50.3733 29.5808 52.2959L27.0847 54.7876C26.1254 55.7469 26.2231 57.3991 27.3068 58.4784L27.4534 58.625C27.9763 58.3007 28.516 58.0042 29.0701 57.7367L28.5504 57.2259C28.3733 57.0928 28.2523 56.8982 28.2112 56.6805C28.1701 56.4627 28.2119 56.2375 28.3283 56.0489L31.8504 52.5313L31.082 51.3277C29.9622 49.5821 29.1621 47.651 28.7192 45.6249L28.4127 44.2259H23.4561C23.1363 44.2259 22.7766 43.8217 22.7766 43.2354V40.4907C22.7766 39.9088 23.1363 39.5002 23.4561 39.5002H28.4083L28.7147 38.1012C29.1567 36.0748 29.9569 34.1436 31.0776 32.3984L31.8504 31.2125L28.3461 27.7127C28.2929 27.6527 28.2531 27.5821 28.2294 27.5055C28.2056 27.4289 28.1985 27.3481 28.2084 27.2686C28.2277 26.9852 28.3493 26.7185 28.5504 26.518L30.5135 24.5504C30.7199 24.3318 31.0037 24.2027 31.3041 24.1907C31.3755 24.1867 31.4469 24.1972 31.5141 24.2217C31.5813 24.2461 31.6428 24.2839 31.6949 24.3328L35.2125 27.8504L36.4162 27.0776C38.1612 25.9567 40.0925 25.1565 42.1189 24.7147L43.518 24.4083V19.4561C43.518 19.1363 43.9266 18.7766 44.5084 18.7766H47.2665C47.8484 18.7766 48.257 19.1363 48.257 19.4561V24.4083L49.656 24.7147C51.6824 25.1567 53.6137 25.9568 55.3588 27.0776L56.5313 27.8459L60.0312 24.3461C60.0833 24.2972 60.1448 24.2594 60.212 24.235C60.2792 24.2106 60.3506 24.2 60.422 24.204C60.7224 24.216 61.0062 24.3451 61.2126 24.5637L63.1668 26.518C63.3444 26.6519 63.4653 26.8475 63.5056 27.0663C63.5459 27.2851 63.5027 27.511 63.3844 27.6994L59.8935 31.2125L60.6663 32.4162C61.7885 34.161 62.5902 36.0923 63.0336 38.1189L63.34 39.518H68.2878C68.612 39.518 68.9673 39.9221 68.9673 40.5084V43.2665C68.9673 43.8484 68.6075 44.257 68.2878 44.257H63.3356L63.0291 45.656C62.5847 47.6824 61.7831 49.6134 60.6618 51.3588L59.8935 52.5313L63.3978 56.0312C63.516 56.2196 63.5592 56.4455 63.5189 56.6642C63.4786 56.883 63.3577 57.0787 63.1801 57.2126L62.6161 57.7766C63.1658 58.0442 63.701 58.3407 64.2194 58.6649L64.4371 58.4473C65.5163 57.3636 65.614 55.7158 64.6547 54.7565L62.163 52.2648C63.3973 50.3424 64.2801 48.216 64.7702 45.9847H68.2878C69.6424 45.9847 70.7439 44.7455 70.7439 43.2177V40.4907C70.7439 38.9628 69.6424 37.7281 68.2878 37.7281Z" fill="#153D5C"/>
<path d="M47.9501 59.3535C47.3688 59.5036 46.7734 59.5929 46.1736 59.62L46.8531 62.6535L44.4814 64.3146L45.5784 59.6378C44.981 59.6279 44.3859 59.5595 43.8019 59.4335L41.4968 69.4089C41.4045 69.7962 41.4301 70.2023 41.5701 70.575C41.7102 70.9477 41.9584 71.2701 42.2829 71.5008L44.0595 73.3662C44.1085 73.4185 44.1637 73.4648 44.2238 73.5039C44.7259 73.7602 45.2862 73.8811 45.8493 73.8547C46.3582 73.8748 46.8651 73.7807 47.3328 73.5794C47.3971 73.5439 47.4568 73.5007 47.5104 73.4506L49.3803 71.714C49.7257 71.5047 49.997 71.1927 50.1563 70.8216C50.3155 70.4504 50.3548 70.0388 50.2686 69.6443L47.9501 59.3535ZM43.2778 69.591L43.8996 66.8995L47.2884 64.5233L47.7059 66.3843C47.6577 66.4068 47.6116 66.4335 47.5682 66.4642L43.2778 69.591ZM48.4032 70.2128C48.3388 70.2482 48.2792 70.2915 48.2255 70.3416L46.4045 72.0293C46.012 72.0957 45.6112 72.0957 45.2187 72.0293L44.2948 71.0522L48.1278 68.263L48.532 70.0396C48.51 70.1115 48.4626 70.1731 48.3987 70.2128H48.4032Z" fill="#153D5C"/>
<path d="M38.4056 56.1604C38.2723 56.0005 38.1391 55.8362 38.0103 55.6719C37.2913 56.7025 36.2008 57.4141 34.9679 57.6572C34.5238 57.7238 24.2685 59.3982 23.74 67.3528C23.74 67.3528 23.74 67.3883 23.74 67.4061C23.74 67.4239 23.74 67.8502 23.6689 72.8646C23.6689 73.1002 23.7625 73.3261 23.9291 73.4927C24.0957 73.6593 24.3216 73.7529 24.5572 73.7529C24.7928 73.7529 25.0188 73.6593 25.1853 73.4927C25.3519 73.3261 25.4455 73.1002 25.4455 72.8646C25.5077 68.4232 25.5166 67.5704 25.5166 67.4194C25.9607 60.9083 35.15 59.3982 35.2566 59.3849C36.8206 59.1032 38.227 58.2578 39.2095 57.0087C38.9257 56.7413 38.6574 56.4581 38.4056 56.1604Z" fill="#153D5C"/>
<path d="M56.616 57.6621C55.9611 57.526 55.3403 57.2592 54.7908 56.8776C54.2414 56.496 53.7745 56.0076 53.4182 55.4414C53.0348 55.9081 52.6255 56.3529 52.1924 56.7738C53.1874 58.14 54.6693 59.0718 56.3318 59.3765C56.4251 59.3765 65.6232 60.8866 66.0585 67.4332C66.0564 67.4717 66.0564 67.5102 66.0585 67.5487C66.0585 67.5487 66.2894 68.7879 66.2894 72.9228C66.2894 73.1584 66.383 73.3843 66.5496 73.5509C66.7162 73.7175 66.9421 73.8111 67.1777 73.8111C67.4133 73.8111 67.6392 73.7175 67.8058 73.5509C67.9724 73.3843 68.066 73.1584 68.066 72.9228C68.066 69.0099 67.8706 67.5931 67.8128 67.2645C67.2532 59.3943 57.038 57.7243 56.616 57.6621Z" fill="#153D5C"/>
<path d="M56.5313 47.1653C57.3485 47.1653 57.9436 46.8899 57.8637 46.1127L57.7438 43.2746C57.6594 42.5062 57.7127 41.8667 57.0642 41.8667H56.4824C56.4824 41.8667 57.1575 37.0522 51.7479 33.348C51.7479 33.348 50.8152 31.0119 49.043 30.7676H42.7007C40.9241 31.0074 39.9959 33.348 39.9959 33.348C34.5818 37.0522 35.2569 41.8711 35.2569 41.8711H34.7106C34.0355 41.8711 34.0932 42.5018 34.0088 43.279L33.88 46.1082C33.7957 46.8855 34.3908 47.1608 35.2125 47.1608H36.0252C36.6205 50.035 37.8986 52.7237 39.7516 54.9999C40.4836 55.8799 41.3972 56.5911 42.4299 57.0848C43.4625 57.5785 44.5897 57.843 45.7342 57.8602C47.3748 57.8641 48.9627 57.2813 50.2111 56.2169C52.876 53.9962 54.6836 50.5319 55.6163 47.1653H56.5313ZM47.2043 32.5441L46.7601 34.7649H45.0147L44.5705 32.5441H47.2043ZM46.7601 40.5387C46.7601 40.7144 46.7081 40.8861 46.6104 41.0322C46.5128 41.1783 46.3741 41.2921 46.2118 41.3594C46.0495 41.4266 45.8709 41.4442 45.6986 41.4099C45.5263 41.3756 45.368 41.291 45.2438 41.1668C45.1195 41.0426 45.0349 40.8843 45.0007 40.712C44.9664 40.5397 44.984 40.3611 45.0512 40.1988C45.1184 40.0365 45.2323 39.8977 45.3784 39.8001C45.5244 39.7025 45.6962 39.6504 45.8719 39.6504C46.1075 39.6504 46.3334 39.744 46.5 39.9106C46.6666 40.0772 46.7601 40.3031 46.7601 40.5387ZM49.0652 54.8578C48.1369 55.6512 46.9553 56.086 45.7342 56.0837C44.8481 56.0701 43.9755 55.8645 43.1765 55.4811C42.3776 55.0977 41.6712 54.5457 41.1062 53.8629C39.6517 52.0787 38.5921 50.0064 37.9972 47.7826L39.6539 48.5332H52.0898L53.5466 47.8582C52.534 50.754 50.9573 53.2634 49.0652 54.8578ZM54.657 45.3887L51.6946 46.7567H40.0492L37.0912 45.3887H35.6966L35.7721 43.6477H37.2999L37.0157 41.6224C37.0157 41.5869 36.5449 37.865 41.013 34.8137L41.4571 34.5073L41.657 34.0054C41.8785 33.4335 42.263 32.9394 42.7629 32.5841C42.7589 32.6581 42.7589 32.7322 42.7629 32.8062L43.287 35.3289C43.3452 35.6659 43.5197 35.9718 43.7802 36.1934C44.0407 36.4149 44.3707 36.5381 44.7127 36.5414H44.9836V38.0293C44.3909 38.2388 43.8914 38.6512 43.5733 39.1934C43.2552 39.7356 43.1391 40.3728 43.2454 40.9924C43.3517 41.6119 43.6736 42.174 44.1542 42.5792C44.6349 42.9844 45.2432 43.2066 45.8719 43.2066C46.5005 43.2066 47.1089 42.9844 47.5895 42.5792C48.0701 42.174 48.392 41.6119 48.4983 40.9924C48.6046 40.3728 48.4885 39.7356 48.1704 39.1934C47.8523 38.6512 47.3528 38.2388 46.7601 38.0293V36.5414H47.0355C47.3713 36.5299 47.6929 36.4031 47.9461 36.1823C48.1993 35.9614 48.3687 35.66 48.4257 35.3289L48.9498 32.8062C48.9538 32.7322 48.9538 32.6581 48.9498 32.5841C49.4597 32.9333 49.854 33.4266 50.0823 34.0009L50.3133 34.5073L50.7574 34.8137C55.1233 37.8028 54.7547 41.4758 54.7547 41.6224L54.3905 43.6477H55.9761L56.0516 45.3932L54.657 45.3887Z" fill="#153D5C"/>
</svg>
