<svg width="91" height="91" viewBox="0 0 91 91" fill="none" xmlns="http://www.w3.org/2000/svg">
<path d="M76.3028 44.4756L65.8443 26.0732C65.684 25.8094 65.4305 25.6153 65.1339 25.5293C64.8374 25.4433 64.5194 25.4716 64.2427 25.6088L59.4379 28.3475C59.1521 28.5119 58.9429 28.7827 58.8559 29.1007C58.7689 29.4187 58.8112 29.7582 58.9735 30.0452L59.9344 31.9831C59.2556 32.4493 58.4288 32.6489 57.6121 32.5437C56.8526 32.4309 56.103 32.2595 55.3699 32.0312C51.8463 31.0862 45.9685 29.4846 40.2027 32.0312C39.1003 32.4906 38.0784 33.1232 37.1757 33.9051C36.6472 33.9051 35.5741 33.7129 34.469 33.5527C33.3314 33.0963 32.3007 32.4092 31.4419 31.5347L32.1146 30.3495C32.2769 30.0625 32.3191 29.723 32.2321 29.405C32.1451 29.087 31.9359 28.8162 31.6502 28.6518L26.8454 25.9131C26.7035 25.8319 26.5466 25.7801 26.3843 25.7609C26.2219 25.7416 26.0574 25.7552 25.9004 25.801C25.742 25.8401 25.5934 25.9115 25.4639 26.0107C25.3343 26.1099 25.2267 26.2348 25.1477 26.3775L14.7212 44.7959C14.6401 44.9378 14.5883 45.0947 14.569 45.257C14.5498 45.4194 14.5634 45.5839 14.6091 45.7409C14.6482 45.8993 14.7196 46.0479 14.8189 46.1774C14.9181 46.307 15.043 46.4146 15.1857 46.4936L19.9905 49.2324C20.1755 49.3389 20.3856 49.3942 20.5991 49.3925C20.7107 49.4081 20.8239 49.4081 20.9355 49.3925C21.0939 49.3534 21.2425 49.282 21.372 49.1828C21.5015 49.0836 21.6092 48.9587 21.6882 48.816L22.8253 46.83C23.7685 48.0739 24.7903 49.2561 25.8844 50.3695L25.6281 50.7379C25.2543 51.2735 25.0531 51.9105 25.0516 52.5637C25.0521 53.0705 25.1729 53.57 25.404 54.021C25.635 54.472 25.9699 54.8618 26.3809 55.1583C26.9091 55.5487 27.5499 55.7567 28.2067 55.7509H28.3348C28.2865 56.0694 28.2865 56.3933 28.3348 56.7118C28.4818 57.5389 28.9476 58.2751 29.6321 58.7619C30.1619 59.1492 30.8017 59.3568 31.458 59.3545C31.7838 59.3556 32.1078 59.307 32.4189 59.2103C32.5082 59.6662 32.6956 60.0972 32.9681 60.4734C33.2406 60.8497 33.5917 61.1621 33.997 61.3892C34.4022 61.6162 34.8521 61.7523 35.3152 61.7882C35.7784 61.824 36.2438 61.7587 36.6792 61.5967C36.8621 62.3403 37.3053 62.9937 37.9284 63.4386C38.4602 63.8202 39.0998 64.0222 39.7543 64.0151H40.2988C40.7088 63.9494 41.1014 63.8021 41.4535 63.5821C41.8057 63.362 42.1101 63.0736 42.3488 62.7339V62.6378C44.1681 63.5933 46.1742 64.1399 48.2267 64.2394C48.9429 64.2318 49.6525 64.1019 50.3248 63.855C51.4661 63.5052 52.4258 62.7236 52.9995 61.6768H53.528C54.4249 61.6826 55.3022 61.4143 56.0425 60.908C56.8999 60.2945 57.5037 59.3889 57.7402 58.3615C58.7401 58.2556 59.6648 57.7818 60.3348 57.0322C60.8357 56.4652 61.2121 55.7996 61.4399 55.0782C62.0616 55.0225 62.6657 54.842 63.216 54.5475C63.7664 54.2531 64.2517 53.8507 64.6431 53.3645C64.8917 52.9828 65.0609 52.5549 65.1407 52.1064C65.2205 51.6579 65.2093 51.1979 65.1076 50.7539C65.0263 50.3865 64.8857 50.0349 64.6912 49.7129C66.1529 49.0211 67.4436 48.0148 68.471 46.7659L69.3999 48.3675C69.5634 48.6561 69.8337 48.8689 70.1526 48.9601C70.2642 48.9757 70.3774 48.9757 70.489 48.9601C70.7015 48.9544 70.9098 48.8996 71.0976 48.7999L75.9024 46.0612C76.1909 45.8977 76.4037 45.6273 76.495 45.3085C76.5337 45.0167 76.4654 44.7209 76.3028 44.4756ZM22.0726 44.7959L20.471 47.5026L16.2908 45.2444L26.4129 27.4826L30.5931 29.869L22.0726 44.7959ZM29.504 53.4125C29.2558 53.7349 28.8942 53.9508 28.4926 54.0162C28.091 54.0816 27.6796 53.9918 27.3419 53.7649C27.0125 53.5186 26.7906 53.155 26.722 52.7495C26.6535 52.344 26.7435 51.9277 26.9735 51.5867L27.5501 50.7539L28.2868 49.7289C28.5335 49.3951 28.9002 49.1702 29.3095 49.1015C29.7188 49.0328 30.1388 49.1256 30.481 49.3605C30.7825 49.5815 30.9973 49.9011 31.0879 50.2638C31.1786 50.6265 31.1395 51.0096 30.9775 51.3465L29.504 53.4125ZM32.9635 56.7279L32.7553 57.0162C32.6595 57.2346 32.5162 57.429 32.3358 57.585C32.1553 57.741 31.9423 57.8547 31.7123 57.9179C31.4822 57.981 31.241 57.992 31.0062 57.9499C30.7714 57.9079 30.5489 57.814 30.3551 57.675C30.1612 57.536 30.0008 57.3555 29.8857 57.1466C29.7705 56.9377 29.7035 56.7057 29.6895 56.4676C29.6754 56.2294 29.7148 55.9912 29.8046 55.7702C29.8945 55.5492 30.0325 55.3511 30.2087 55.1903L30.7853 54.4055L32.0986 52.5637L33.8283 50.1293C33.9383 49.9489 34.0828 49.7921 34.2536 49.6678C34.4243 49.5435 34.618 49.4542 34.8235 49.4051C35.0289 49.356 35.242 49.348 35.4505 49.3816C35.6591 49.4151 35.8589 49.4896 36.0385 49.6007C36.2104 49.7181 36.356 49.8697 36.4663 50.0461C36.5765 50.2226 36.649 50.4199 36.6792 50.6258C36.7434 51.0361 36.6458 51.4553 36.4069 51.7949L35.8303 52.6118L32.9635 56.7279ZM37.2077 58.9381L36.8233 59.4666C36.7262 59.686 36.581 59.8807 36.3984 60.0365C36.2159 60.1922 36.0007 60.3049 35.7688 60.3663C35.5368 60.4277 35.294 60.4362 35.0584 60.3912C34.8227 60.3462 34.6001 60.2488 34.4072 60.1062C34.2142 59.9636 34.0557 59.7795 33.9435 59.5674C33.8312 59.3554 33.768 59.1208 33.7586 58.8811C33.7491 58.6413 33.7937 58.4025 33.8889 58.1823C33.9841 57.9621 34.1277 57.7661 34.3088 57.6087L37.1757 53.5727C37.3715 53.3493 37.6255 53.1847 37.9094 53.0974C38.1933 53.0101 38.4959 53.0035 38.7834 53.0782C39.0709 53.153 39.3319 53.3063 39.5373 53.5209C39.7427 53.7355 39.8844 54.003 39.9464 54.2934C39.9867 54.4965 39.9832 54.7058 39.9363 54.9074C39.8893 55.1089 39.8 55.2982 39.6742 55.4626L38.7132 56.824L37.2077 58.9381ZM42.5891 59.5627L41.5801 60.9561L41.452 61.1483L41.0515 61.6928C40.8 61.9515 40.4686 62.1177 40.1108 62.1644C39.753 62.2112 39.39 62.1358 39.0804 61.9504C38.7709 61.7651 38.533 61.4806 38.4053 61.1432C38.2776 60.8057 38.2676 60.4351 38.3769 60.0912L38.505 59.883L40.0265 57.7529C40.2771 57.433 40.6398 57.2204 41.0412 57.1579C41.4427 57.0955 41.8528 57.1879 42.1887 57.4166C42.5224 57.6633 42.7473 58.0299 42.8161 58.4392C42.8848 58.8486 42.7919 59.2686 42.5571 59.6107L42.5891 59.5627ZM63.2497 52.5157C62.6379 53.1479 61.8064 53.5206 60.9274 53.5567L51.462 47.6308C51.2835 47.5164 51.0669 47.4774 50.8597 47.5225C50.6526 47.5675 50.4717 47.6928 50.3568 47.871C50.2988 47.9597 50.2592 48.0592 50.2407 48.1636C50.2221 48.268 50.2249 48.375 50.2488 48.4783C50.2728 48.5816 50.3174 48.679 50.38 48.7645C50.4426 48.8501 50.5219 48.9221 50.6131 48.9761L59.8383 54.7739C59.674 55.2367 59.4179 55.6616 59.0856 56.0232C58.8442 56.2784 58.5539 56.4823 58.2319 56.6226C57.9099 56.763 57.5629 56.8369 57.2117 56.84L48.8513 52.1633C48.6644 52.0592 48.4439 52.0337 48.2381 52.0922C48.0324 52.1508 47.8583 52.2887 47.7542 52.4756C47.6502 52.6625 47.6246 52.8831 47.6832 53.0888C47.7418 53.2946 47.8797 53.4686 48.0666 53.5727L56.0746 58.0412C55.9353 58.6886 55.5581 59.2602 55.0175 59.6428C54.674 59.8683 54.2868 60.0191 53.8812 60.0853C53.4756 60.1516 53.0606 60.1317 52.6632 60.0272H52.5671C52.5176 59.9798 52.464 59.9369 52.4069 59.899L46.0005 56.6958C45.8138 56.6181 45.6047 56.6139 45.415 56.684C45.2254 56.7541 45.0692 56.8933 44.978 57.0738C44.8868 57.2542 44.8672 57.4625 44.9231 57.6568C44.9791 57.8511 45.1065 58.017 45.2798 58.1213L51.4139 61.2123C51.029 61.7802 50.4652 62.203 49.8123 62.4135C47.6096 62.812 45.337 62.4086 43.4059 61.2764L43.9184 60.4916C44.4045 59.8038 44.6001 58.9522 44.463 58.1213C44.3343 57.4122 43.9702 56.7672 43.4297 56.2905C42.8891 55.8139 42.2036 55.5335 41.484 55.4946C41.6283 55.0118 41.6611 54.5025 41.5801 54.0051C41.4371 53.1807 40.9773 52.4449 40.2988 51.9551C39.7208 51.5429 39.0222 51.3345 38.3128 51.3625C38.3606 51.0547 38.3606 50.7414 38.3128 50.4336C38.1967 49.8223 37.9051 49.258 37.4736 48.8098C37.0421 48.3615 36.4894 48.0486 35.8829 47.9093C35.2765 47.77 34.6426 47.8104 34.0588 48.0254C33.4749 48.2405 32.9663 48.6209 32.5951 49.1203L32.451 49.3125C32.2313 48.8136 31.8762 48.3864 31.4259 48.0792C30.7391 47.5996 29.8917 47.4082 29.0654 47.5459C28.2391 47.6836 27.4997 48.1395 27.0055 48.816L26.8774 48.9761C25.7297 47.7975 24.6598 46.5456 23.6742 45.2284L30.6572 32.9601C31.6824 33.9789 32.9335 34.7417 34.3088 35.1863L35.9104 35.4106C35.0756 36.4878 34.4853 37.7338 34.1807 39.0622C34.0383 39.6544 34.0505 40.2732 34.2159 40.8593C34.3814 41.4455 34.6946 41.9793 35.1256 42.4096C35.5365 42.825 36.0451 43.1306 36.6047 43.2985C37.1643 43.4664 37.7571 43.4912 38.3288 43.3705C39.5497 43.1232 40.6475 42.4611 41.4359 41.4966L43.0375 39.3665L45.2958 38.7739C51.6089 41.5987 57.4487 45.3802 62.6091 49.9851H62.7052C62.7517 50.0403 62.8056 50.0888 62.8653 50.1293C63.1916 50.3694 63.4148 50.7242 63.49 51.1223C63.5455 51.3588 63.5528 51.604 63.5116 51.8434C63.4703 52.0828 63.3812 52.3114 63.2497 52.5157ZM63.4579 48.5277C58.1807 43.8354 52.1975 40.0034 45.7282 37.1723C45.5805 37.1403 45.4275 37.1403 45.2798 37.1723C45.1735 37.1572 45.0657 37.1572 44.9595 37.1723L42.477 37.829C42.2116 37.905 41.9765 38.0617 41.8043 38.2774L40.2027 40.4876C39.6377 41.1572 38.8656 41.6193 38.0085 41.8009C37.6941 41.8671 37.3681 41.8535 37.0603 41.7611C36.7525 41.6688 36.4728 41.5008 36.2467 41.2724C36.0078 41.03 35.834 40.7311 35.7416 40.4034C35.6491 40.0758 35.6411 39.7301 35.7182 39.3985C36.0717 37.8449 36.9002 36.4399 38.0886 35.3785C38.9501 34.6134 39.9288 33.9915 40.9875 33.5367C46.2087 31.2464 51.7663 32.7519 55.0816 33.6488C55.9027 33.9052 56.7438 34.0927 57.5961 34.2094C58.7204 34.329 59.8517 34.0575 60.7993 33.4406L67.558 45.3245C66.5201 46.7634 65.0917 47.8749 63.4419 48.5277H63.4579ZM70.569 47.3425L69.0635 44.6998L62.0005 32.2874L60.479 29.6128L64.6431 27.1783L74.7332 44.9561L70.569 47.3425Z" fill="#153D5C"/>
</svg>
