<svg width="91" height="91" viewBox="0 0 91 91" fill="none" xmlns="http://www.w3.org/2000/svg">
<path d="M62.5657 45.1C62.3657 44.8 62.0657 44.7 61.7657 44.7C61.4657 44.7 61.1657 44.9 60.9657 45.1L56.3657 51.9L47.6657 38.3V31.6H57.5657V34.2C57.5657 34.8 57.9657 35.2 58.5657 35.2H67.5657C68.1657 35.2 68.5657 34.8 68.5657 34.2C68.5657 34 68.4657 33.8 68.3657 33.6L66.4657 29.4L68.4657 25.1C68.5657 24.8 68.5657 24.4 68.3657 24.1C68.1657 23.8 67.8657 23.6 67.5657 23.6H59.5657V21C59.5657 20.4 59.1657 20 58.5657 20H46.6657C46.0657 20 45.6657 20.4 45.6657 21C45.6657 25.3 45.6657 33.8 45.6657 38.2L36.2657 52.8L30.9657 45C30.7657 44.7 30.4657 44.6 30.1657 44.6C29.8657 44.6 29.5657 44.8 29.3657 45L13.1657 69.2C12.9657 69.5 12.9657 69.9 13.0657 70.2C13.2657 70.5 13.5657 70.7 13.9657 70.7C34.9657 70.7 54.4657 70.7 77.9657 70.7C78.5657 70.7 78.9657 70.3 78.9657 69.7C78.9657 69.4 78.8657 69.2 78.6657 69L62.5657 45.1ZM46.6657 40.4C47.7657 42.1 43.4657 35.4 56.6657 56L52.2657 60.4L47.3657 55.5C46.9657 55.1 46.3657 55.1 45.9657 55.5L41.0657 60.4L36.6657 56C38.9657 52.4 46.2657 41 46.6657 40.4ZM35.5657 57.7L40.3657 62.5C40.7657 62.9 41.3657 62.9 41.7657 62.5L46.6657 57.6L51.5657 62.5C51.9657 62.9 52.5657 62.9 52.9657 62.5L57.7657 57.7L64.8657 68.7H28.4657C38.1657 53.7 34.7657 58.9 35.5657 57.7ZM66.0657 25.7L64.5657 29C64.4657 29.3 64.4657 29.6 64.5657 29.8L66.0657 33.1H59.5657C59.5657 32.8 59.5657 25.5 59.5657 25.6H66.0657V25.7ZM57.5657 29.6H47.6657V22.1H57.5657C57.5657 22.4 57.5657 29.7 57.5657 29.6ZM30.1657 47.4L35.0657 54.7C26.4657 68.2 26.1657 68.6 26.0657 68.8H15.8657L30.1657 47.4ZM67.1657 68.8C54.4657 49 58.5657 55.3 57.5657 53.7L61.7657 47.4L76.0657 68.8H67.1657Z" fill="#153D5C"/>
<path d="M64.6654 59.6C64.9654 60.1 65.5654 60.2 66.0654 59.9C66.5654 59.6 66.6654 59 66.3654 58.5L64.9654 56.5C64.6654 56 64.0654 55.9 63.5654 56.2C63.0654 56.5 62.9654 57.1 63.2654 57.6L64.6654 59.6Z" fill="#153D5C"/>
<path d="M68.5654 66.3008C68.8654 66.8008 69.4654 66.9008 69.9654 66.6008C70.4654 66.3008 70.5654 65.7008 70.2654 65.2008L68.9654 63.3008C68.6654 62.8008 68.0654 62.7008 67.5654 63.0008C67.0654 63.3008 66.9654 63.9008 67.2654 64.4008L68.5654 66.3008Z" fill="#153D5C"/>
<path d="M28.6656 59.6L30.0656 57.6C30.3656 57.1 30.2656 56.5 29.7656 56.2C29.2656 55.9 28.6656 56 28.3656 56.5L26.9656 58.5C26.6656 59 26.7656 59.6 27.2656 59.9C27.6656 60.2 28.2656 60.1 28.6656 59.6Z" fill="#153D5C"/>
<path d="M25.5657 62.9003C25.0657 62.6003 24.4657 62.8003 24.1657 63.2003L22.9657 65.2003C22.6657 65.7003 22.8657 66.3003 23.2657 66.6003C23.7657 66.9003 24.3657 66.7003 24.6657 66.3003L25.8657 64.3003C26.1657 63.9003 26.0657 63.2003 25.5657 62.9003Z" fill="#153D5C"/>
<path d="M44.8654 50.0001C45.3654 50.2001 45.9654 50.0001 46.1654 49.5001L47.1654 47.4001C47.3654 46.9001 47.1654 46.3001 46.6654 46.1001C46.1654 45.9001 45.5654 46.1001 45.3654 46.6001L44.3654 48.7001C44.1654 49.2001 44.4654 49.8001 44.8654 50.0001Z" fill="#153D5C"/>
<path d="M42.4658 54.6992C42.9658 54.8992 43.5658 54.6992 43.7658 54.2992L44.8658 52.0992C45.0658 51.5992 44.8658 50.9992 44.4658 50.7992C43.9658 50.5992 43.3658 50.7992 43.1658 51.1992L42.0658 53.3992C41.7658 53.8992 41.9658 54.4992 42.4658 54.6992Z" fill="#153D5C"/>
</svg>
