<svg width="310" height="260" viewBox="0 0 310 260" fill="none" xmlns="http://www.w3.org/2000/svg">
<g opacity="0.26">
<mask id="mask0" mask-type="alpha" maskUnits="userSpaceOnUse" x="4" y="0" width="306" height="260">
<path d="M157.746 189.017C165.025 187.029 172.765 184.339 180.254 180.068C194.111 172.166 207.119 158.79 213.638 133.985L220.516 134.656C221.151 144.804 219.646 159.688 211.984 173.232C204.239 186.926 190.339 198.984 166.797 203.399L166.754 203.407L166.71 203.414C155.918 205.157 137.794 209.397 125.014 218.17C118.673 222.524 113.922 227.806 111.828 234.188C110.71 237.594 110.297 241.47 110.924 245.9C112.413 242.054 114.699 238.093 118.149 234.398C126.307 225.657 140.441 218.963 164.194 218.185C164.172 218.185 164.16 218.186 164.16 218.185C164.16 218.181 164.365 218.159 164.894 218.073C165.475 217.979 166.301 217.834 167.346 217.629C169.436 217.221 172.376 216.584 175.945 215.668C183.087 213.836 192.707 210.9 203.05 206.479C223.774 197.619 246.902 183.01 259.24 159.85C265.499 142.724 267.481 117.52 259.208 97.4808L265.506 94.4518C270.356 103.224 274.927 118.834 275.733 135.791C276.541 152.763 273.603 171.658 262.794 186.621L262.697 186.755L262.588 186.879C257.082 193.156 245.789 201.75 232.615 209.763C227.173 213.073 221.346 216.323 215.385 219.304C223.929 217.654 233.321 215.28 242.794 211.732C264.396 203.641 286.135 189.549 299.114 164.266C303.456 155.809 306.424 140.44 306.499 122.701C306.573 105.059 303.78 85.6082 297.052 69.1299C291.777 56.2102 282.676 43.1899 271.76 32.9464C267.847 29.2749 251.264 16.2717 225.207 9.3374C203.762 3.63065 177.723 1.54638 153.434 5.63424C134.843 8.76324 117.483 15.4668 103.937 26.735C108.944 24.9216 114.606 23.0966 120.632 21.5472C134.432 17.9994 150.474 15.8087 165.035 18.7789L164.595 25.6986C156.939 26.2693 143.55 28.3484 131.892 30.9909C126.965 32.1078 122.435 33.3059 118.823 34.5052C132.723 36.7011 153.972 39.3343 172.294 39.8604C205.738 34.7633 224.613 34.2174 243.251 40.0264C244.773 40.5009 245.532 41.6964 245.831 42.6037C246.097 43.4137 246.084 44.1813 246.043 44.6799C245.957 45.7206 245.628 46.8562 245.236 47.9153C244.427 50.108 243.019 52.8552 241.177 55.6803C237.543 61.2564 231.759 67.8357 224.588 71.0077C211.262 76.9021 177.946 83.4088 136.948 61.3305C135.728 61.7357 134.458 61.9133 133.395 62.0145C131.557 62.1894 129.518 62.1894 127.761 62.1893H127.673C125.781 62.1893 124.28 62.1947 123.188 62.3241C123.139 62.33 123.091 62.336 123.046 62.342C120.868 67.4319 116.643 73.8537 108.073 77.8772C98.9395 82.1657 85.4454 83.4569 65.3747 78.4149L59.7273 76.9963L63.6298 72.6747C72.8317 62.4848 95.1386 50.3956 122.549 50.3956H122.734L122.918 50.4151L137.452 51.9561L137.886 52.002L138.294 52.1529C154.104 57.9852 173.622 64.8793 191.422 65.9925C200.281 66.5466 208.481 65.6479 215.481 62.6377C221.254 60.1553 226.339 56.1843 230.37 50.1424C227.562 49.6562 224.002 49.3074 220.074 49.073C214.151 48.7195 207.858 48.6448 203.002 48.5983C179.195 55.444 157.808 51.896 140.151 48.9667C135.048 48.1202 130.257 47.3254 125.809 46.8479C105.027 44.6174 97.4988 46.1454 91.337 48.28C83.389 53.0501 64.9488 65.2893 52.3117 77.534L52.2155 77.6273L52.1123 77.7129C47.5386 81.5116 38.9985 86.6403 29.8933 89.9419C25.3216 91.5996 20.4734 92.8465 15.8108 93.1874C13.6237 93.3473 11.4251 93.3114 9.28787 93.0012C9.93661 94.4141 10.5551 96.2596 10.7857 98.8783L10.8599 99.7206L10.5413 100.504C6.65558 110.058 8.02444 121.427 12.8783 131.196C16.3082 138.098 21.3151 143.878 26.9926 147.505C25.4097 142.087 24.8264 135.911 26.8213 130.311C28.4572 125.718 31.763 121.732 37.1721 119.066C42.4828 116.447 49.6698 115.168 59.0957 115.533L59.3082 115.541L59.5182 115.575C68.7877 117.072 81.874 120.802 90.1307 127.437C94.3179 130.801 97.6552 135.239 98.1147 140.843C98.5749 146.454 96.0749 152.312 90.6268 158.345C89.7998 159.26 88.5599 160.038 87.3768 160.665C86.0935 161.345 84.5058 162.037 82.6943 162.686C79.0694 163.986 74.3868 165.173 69.162 165.732C61.7824 166.521 53.1077 166.071 44.7888 162.717C50.8532 173.22 59.7272 181.711 68.7263 187.97C71.7199 190.052 74.7071 191.873 77.5795 193.426C74.783 189.657 72.8763 185.564 72.1967 181.575C71.3127 176.386 72.5044 171.082 76.9124 167.305C81.1452 163.678 87.737 161.998 96.506 162.368L96.5793 162.371L96.6525 162.377C110.004 163.502 130.2 161.129 149.124 152.261C167.975 143.429 185.384 128.252 193.726 103.817L200.534 105.119C200.193 112.057 196.819 121.86 191.108 131.585C185.678 140.832 177.941 150.345 168.116 157.598C168.253 158.642 168.403 159.996 168.508 161.521C168.742 164.917 168.779 169.523 167.711 173.426C167.301 174.924 166.207 177.107 164.843 179.376C163.418 181.746 161.512 184.516 159.26 187.248C158.777 187.833 158.272 188.425 157.746 189.017Z" fill="white" stroke="white" stroke-width="7"/>
</mask>
<g mask="url(#mask0)">
<rect width="629.548" height="443.902" transform="matrix(-1 0 0 1 263.936 -243.09)" fill="white"/>
</g>
</g>
</svg>
