<svg width="299" height="117" viewBox="0 0 299 117" fill="none" xmlns="http://www.w3.org/2000/svg">
<g clip-path="url(#clip0)">
<path fill-rule="evenodd" clip-rule="evenodd" d="M91.7056 87.8898H91.6582L91.8046 80.5574H87.1776L86.8203 98.3425H91.4473L91.6023 90.6276H91.6496L97.4689 98.3382L103.469 98.3339L95.9323 88.9729L103.185 80.5488L97.4474 80.5531L91.7056 87.8898Z" fill="black"/>
<path fill-rule="evenodd" clip-rule="evenodd" d="M104.795 86.2313L104.648 93.5207C104.566 97.5049 107.356 98.7298 110.988 98.7298C114.625 98.7255 117.458 97.5006 117.539 93.5121L117.686 86.2227L113.39 86.227L113.261 92.6911C113.231 94.2255 112.831 95.3086 111.061 95.3129C109.288 95.3129 108.935 94.2298 108.965 92.6954L109.094 86.2313H104.795Z" fill="black"/>
<path fill-rule="evenodd" clip-rule="evenodd" d="M124.723 86.2173L120.423 86.2216L120.182 98.3204L124.477 98.3162L124.602 92.0411C124.632 90.5325 125.153 89.2345 126.9 89.2302C129.027 89.2302 128.794 91.2588 128.773 92.4107L128.657 98.3076L132.952 98.3033L133.103 90.8248C133.163 87.8548 131.906 85.8004 128.648 85.8047C126.969 85.8047 125.756 86.3033 124.735 87.7646H124.688L124.723 86.2173Z" fill="black"/>
<path fill-rule="evenodd" clip-rule="evenodd" d="M145.469 86.5826C144.23 86.0196 142.865 85.8047 141.497 85.8047C138.854 85.8047 136.134 87.1285 136.073 90.1027C136.03 92.2732 137.365 92.9351 138.699 93.2832C140.037 93.6356 141.385 93.6829 141.363 94.6242C141.35 95.2861 140.541 95.5439 139.999 95.5439C138.936 95.5439 137.485 94.9336 136.624 94.319L135.006 97.3147C136.452 98.2087 138.144 98.703 139.865 98.703C142.676 98.703 145.607 97.3792 145.672 94.1944C145.715 91.9551 144.225 91.0096 142.224 90.6141C141.634 90.4938 140.291 90.3778 140.309 89.5525C140.322 88.9379 141.174 88.7273 141.673 88.7273C142.405 88.7273 143.322 88.9637 143.976 89.3161L145.469 86.5826Z" fill="black"/>
<path fill-rule="evenodd" clip-rule="evenodd" d="M152.769 89.7417L155.201 89.7374L155.274 86.2002H152.842L152.916 82.5684L148.616 82.5727L148.543 86.2045H147.152L147.079 89.7417H148.474L148.301 98.3033H152.601L152.769 89.7417Z" fill="black"/>
<path fill-rule="evenodd" clip-rule="evenodd" d="M166.077 86.5706C164.838 86.0075 163.473 85.7926 162.105 85.7969C159.462 85.7969 156.742 87.1207 156.681 90.0949C156.638 92.2654 157.973 92.923 159.311 93.2755C160.65 93.6279 161.993 93.6752 161.975 94.6207C161.963 95.2826 161.153 95.5405 160.611 95.5405C159.548 95.5405 158.097 94.9302 157.237 94.3156L155.618 97.3113C157.064 98.2053 158.756 98.6995 160.478 98.6995C163.288 98.6995 166.219 97.3757 166.28 94.1909C166.323 91.9517 164.833 91.0061 162.832 90.6064C162.242 90.4861 160.899 90.37 160.917 89.5448C160.93 88.9302 161.782 88.7196 162.281 88.7153C163.013 88.7153 163.93 88.9517 164.584 89.3041L166.077 86.5706Z" fill="black"/>
<path fill-rule="evenodd" clip-rule="evenodd" d="M173.378 89.7257H175.81L175.883 86.1884H173.451L173.524 82.5566L169.228 82.5609L169.155 86.1927H167.761L167.688 89.73H169.082L168.91 98.2916H173.21L173.378 89.7257Z" fill="black"/>
<path fill-rule="evenodd" clip-rule="evenodd" d="M183.656 85.7832C179.76 85.7875 176.313 88.1213 176.231 92.2517C176.149 96.3778 179.524 98.6901 183.397 98.6858C187.293 98.6815 190.74 96.3434 190.822 92.2431C190.908 88.1127 187.555 85.7789 183.656 85.7832ZM183.583 89.5053C185.33 89.5053 186.32 90.756 186.29 92.2431C186.26 93.7775 185.222 94.9551 183.475 94.9551C181.727 94.9551 180.737 93.7775 180.768 92.2431C180.793 90.7603 181.835 89.5096 183.583 89.5053Z" fill="black"/>
<path fill-rule="evenodd" clip-rule="evenodd" d="M197.528 89.7127H200.528L200.597 86.1754H197.597L197.636 84.2199C197.662 82.8531 198.054 82.1912 199.164 82.1912C199.728 82.1912 200.175 82.3803 200.666 82.5909L200.739 78.886C200.154 78.5809 199.569 78.4648 198.906 78.4648C197.274 78.4648 195.729 79.1525 194.64 80.3989C193.431 81.7442 193.362 82.9734 193.328 84.6454L193.297 86.1797H191.787L191.718 89.717H193.229L193.056 98.2786L197.352 98.2743L197.528 89.7127Z" fill="black"/>
<path fill-rule="evenodd" clip-rule="evenodd" d="M206.693 89.7084H209.693L209.766 86.1712L206.766 86.1754L206.804 84.2199C206.83 82.8531 207.222 82.1912 208.332 82.1912C208.901 82.1912 209.344 82.3803 209.835 82.5909L209.908 78.886C209.322 78.5809 208.737 78.4648 208.074 78.4648C206.447 78.4648 204.898 79.1525 203.809 80.3989C202.604 81.7442 202.53 82.9734 202.496 84.6454L202.466 86.1797H200.955L200.882 89.717H202.393L202.22 98.2786L206.516 98.2743L206.693 89.7084Z" fill="black"/>
<path fill-rule="evenodd" clip-rule="evenodd" d="M215.826 89.6983H218.258L218.331 86.1611H215.899L215.968 82.5293H211.672L211.599 86.1654H210.209L210.136 89.7026H211.53L211.358 98.2642L215.654 98.2599L215.826 89.6983Z" fill="black"/>
<path fill-rule="evenodd" clip-rule="evenodd" d="M223.083 90.4516C223.367 89.2009 224.417 88.539 225.67 88.539C226.827 88.539 227.873 89.2912 228.063 90.4473L223.083 90.4516ZM232.014 92.4717C232.096 88.3456 229.716 85.7539 225.515 85.7539C221.572 85.7582 218.761 88.1866 218.68 92.2224C218.593 96.3957 221.55 98.6608 225.562 98.6565C228.325 98.6565 231.067 97.3542 231.807 94.5003L227.675 94.5046C227.189 95.3083 226.518 95.6135 225.601 95.6135C223.827 95.6135 222.928 94.6722 222.962 92.9273L232.005 92.923L232.014 92.4717Z" fill="black"/>
<path fill-rule="evenodd" clip-rule="evenodd" d="M242.83 86.4549C241.991 85.9821 241.001 85.7458 240.011 85.7501C236.211 85.7544 233.18 88.4449 233.103 92.3346C233.03 95.9922 235.974 98.6569 239.564 98.6526C240.601 98.6526 241.647 98.4377 242.598 97.965L242.671 94.3332C242.094 94.8532 241.259 95.1584 240.506 95.1584C238.737 95.1584 237.51 93.9334 237.545 92.1885C237.579 90.5165 238.901 89.24 240.553 89.24C241.38 89.24 242.129 89.6183 242.757 90.0867L242.83 86.4549Z" fill="black"/>
<path fill-rule="evenodd" clip-rule="evenodd" d="M245.653 78.6664L245.262 98.2438L249.557 98.2395L249.682 92.0375C249.712 90.6234 250.285 89.1578 251.985 89.1578C253.711 89.1578 253.892 90.6191 253.866 92.0332L253.741 98.2352L258.037 98.2309L258.187 90.8254C258.247 87.761 256.801 85.7323 253.732 85.7323C252.058 85.7323 250.84 86.3469 249.824 87.6707H249.777L249.958 78.6621L245.653 78.6664Z" fill="black"/>
<path fill-rule="evenodd" clip-rule="evenodd" d="M265.406 86.1314L261.11 86.1357L260.869 98.2345L265.165 98.2302L265.29 91.9551C265.32 90.4465 265.841 89.1486 267.588 89.1443C269.714 89.1443 269.482 91.1729 269.46 92.3248L269.344 98.2216L273.64 98.2173L273.79 90.7388C273.851 87.7646 272.594 85.7145 269.336 85.7188C267.661 85.7188 266.447 86.2173 265.423 87.6786H265.376L265.406 86.1314Z" fill="black"/>
<path fill-rule="evenodd" clip-rule="evenodd" d="M281.013 86.119L276.718 86.1233L276.477 98.2222L280.772 98.2179L281.013 86.119ZM279.007 79.0703C277.686 79.0703 276.576 80.1577 276.55 81.4772C276.524 82.7967 277.587 83.8798 278.913 83.8798C280.234 83.8798 281.34 82.7924 281.37 81.4729C281.392 80.1534 280.329 79.0703 279.007 79.0703Z" fill="black"/>
<path fill-rule="evenodd" clip-rule="evenodd" d="M288.291 78.6406H283.991L283.6 98.218H287.895L287.994 93.2882L292.595 98.2137L298.617 98.2094L292.303 91.7022L298.479 86.1105L292.6 86.1148L288.05 90.4816L288.291 78.6406Z" fill="black"/>
<path fill-rule="evenodd" clip-rule="evenodd" d="M90.5996 56.9703H85.7832L90.7416 74.7511H95.4418L99.1392 64.4402H99.1865L102.1 74.7468L106.822 74.7425L112.87 56.9531L108.049 56.9574L104.468 68.446H104.42L101.158 56.9617L97.4734 56.966L93.5136 68.4546H93.4662L90.5996 56.9703Z" fill="black"/>
<path fill-rule="evenodd" clip-rule="evenodd" d="M116.257 66.9278C116.541 65.6771 117.596 65.0152 118.844 65.0152C120.002 65.0152 121.048 65.7673 121.237 66.9235L116.257 66.9278ZM125.193 68.9521C125.274 64.8261 122.894 62.2301 118.693 62.2344C114.751 62.2387 111.94 64.667 111.858 68.7029C111.776 72.8762 114.729 75.1413 118.741 75.137C121.504 75.137 124.246 73.8347 124.986 70.9808L120.854 70.9851C120.368 71.7888 119.7 72.094 118.779 72.094C117.01 72.094 116.106 71.1527 116.141 69.4077L125.184 69.4034L125.193 68.9521Z" fill="black"/>
<path fill-rule="evenodd" clip-rule="evenodd" d="M126.893 74.7297L131.188 74.7254L131.214 73.3801H131.261C132.015 74.5836 133.469 75.1251 134.885 75.1251C138.497 75.1208 141.062 72.1509 141.131 68.6609C141.2 65.1925 138.781 62.2225 135.191 62.2268C133.797 62.2268 132.346 62.7469 131.403 63.8085L131.576 55.1523L127.28 55.1566L126.893 74.7297ZM133.986 65.9532C135.733 65.9532 136.723 67.1996 136.693 68.6867C136.663 70.2211 135.622 71.3988 133.878 71.3988C132.131 71.3988 131.137 70.2211 131.171 68.6867C131.197 67.2039 132.238 65.9532 133.986 65.9532Z" fill="black"/>
<path fill-rule="evenodd" clip-rule="evenodd" d="M146.76 66.9063C147.044 65.6556 148.099 64.9937 149.347 64.9937C150.505 64.9937 151.55 65.7458 151.74 66.902L146.76 66.9063ZM155.695 68.9307C155.777 64.8046 153.397 62.2129 149.196 62.2129C145.253 62.2172 142.443 64.6456 142.361 68.6771C142.279 72.8504 145.232 75.1155 149.243 75.1112C152.007 75.1112 154.744 73.8089 155.489 70.955L151.357 70.9593C150.87 71.763 150.203 72.0682 149.282 72.0682C147.513 72.0682 146.609 71.1269 146.644 69.3819L155.687 69.3776L155.695 68.9307Z" fill="black"/>
<path fill-rule="evenodd" clip-rule="evenodd" d="M162.075 62.609L157.779 62.6133L157.538 74.7122L161.834 74.7079L161.933 69.8254C161.976 67.7494 162.596 66.1721 164.98 66.1678C165.643 66.1678 166.207 66.2365 166.792 66.5675L166.874 62.4414H166.047C164.369 62.4414 162.94 63.1033 162.083 64.5904H162.036L162.075 62.609Z" fill="black"/>
<path fill-rule="evenodd" clip-rule="evenodd" d="M0 0.0472779L75.2245 0L75.3364 98.0071L0.111909 98.0544L0 0.0472779ZM2.47492 2.51862L72.6162 2.47564L72.7195 95.3338L2.57391 95.3768L2.47492 2.51862Z" fill="#009640"/>
<path fill-rule="evenodd" clip-rule="evenodd" d="M20.1481 46.7371L10.498 46.7414L21.1897 88.3374L30.603 88.3331L37.5758 64.2171H37.6705L43.9417 88.3245L53.4023 88.3202L64.7568 46.707L55.1068 46.7156L48.4181 73.591H48.3277L41.2946 46.7242L33.9129 46.7285L26.4709 73.6039H26.3762L20.1481 46.7371Z" fill="#009640"/>
<path fill-rule="evenodd" clip-rule="evenodd" d="M34.4335 33.9506V35.0251L12.749 35.038L12.6887 41.3346L63.9991 41.3002L64.0593 35.0037L43.369 35.0509L42.25 33.9334L64.0852 20.5194L63.969 11.8246L38.6387 28.3031L12.6586 13.0108L12.736 21.4951L34.4335 33.9506ZM65.6347 33.4478L45.9559 33.4908L65.6605 21.3833L65.4969 8.9707L38.5957 26.4678L11.0703 10.2644L11.1822 22.3976L30.4564 33.465L11.2037 33.4822L11.1134 42.8948L65.5443 42.8604L65.6347 33.4478Z" fill="#009640"/>
<path d="M0.0341797 107.373H9.6799V117.001H0.0341797V107.373Z" fill="#009640"/>
<path d="M19.3213 107.373H28.967V117.001H19.3213V107.373Z" fill="#009640"/>
<path d="M38.6133 107.373H48.2547V117.001H38.6133V107.373Z" fill="#009640"/>
<path d="M57.9004 107.373H67.5461V117.001H57.9004V107.373Z" fill="#009640"/>
<path d="M77.1875 107.373H86.8332V117.001H77.1875V107.373Z" fill="#009640"/>
<path d="M96.4746 107.373H106.12V117.001H96.4746V107.373Z" fill="#009640"/>
<path d="M115.766 107.373H125.407V117.001H115.766V107.373Z" fill="#009640"/>
<path d="M135.053 107.373H144.694V117.001H135.053V107.373Z" fill="#009640"/>
<path d="M154.34 107.373H163.986V117.001H154.34V107.373Z" fill="#009640"/>
<path d="M173.627 107.373H183.273V117.001H173.627V107.373Z" fill="#009640"/>
<path d="M192.919 107.373H202.56V117.001H192.919V107.373Z" fill="#009640"/>
<path d="M212.206 107.373H221.852V117.001H212.206V107.373Z" fill="#009640"/>
<path d="M231.493 107.373H241.139V117.001H231.493V107.373Z" fill="#009640"/>
<path d="M250.78 107.373H260.426V117.001H250.78V107.373Z" fill="#009640"/>
<path d="M270.067 107.373H279.713V117.001H270.067V107.373Z" fill="#009640"/>
<path d="M289.358 107.373H299V117.001H289.358V107.373Z" fill="#009640"/>
</g>
<defs>
<clipPath id="clip0">
<rect width="299" height="117" fill="white"/>
</clipPath>
</defs>
</svg>
