<svg width="141" height="76" viewBox="0 0 141 76" fill="none" xmlns="http://www.w3.org/2000/svg">
<path fill-rule="evenodd" clip-rule="evenodd" d="M97.1276 31.4136C94.8675 37.9088 87.6929 41.4527 85.4621 41.4527C89.7456 39.7245 92.0302 33.4947 85.4621 33.7815C79.9887 34.2596 69.1051 31.7722 65.6809 21.3745C65.7999 23.8843 68.1082 28.9039 72.1062 31.7722C72.1062 31.7722 71.7492 33.7815 72.1062 35.1334C72.3222 35.9515 74.4284 39.4758 76.713 40.0494C76.3733 39.9641 76.0093 39.8791 75.6257 39.7895C71.212 38.7587 64.2009 37.1212 61.7543 27.4697C61.5163 31.4137 62.8966 39.0044 71.7492 40.7254C76.0328 41.4425 86.5007 44.256 82.4189 52.954C82.4189 50.4442 81.2143 45.4571 72.1062 45.1498C71.7492 45.1378 57.8834 42.7532 52.8302 32.8478C51.5435 29.2342 51.1168 23.8843 52.8302 19.5818C51.0454 22.9282 49.3207 31.8548 53.3186 37.5914C55.3414 39.9817 61.9041 44.412 67.3299 46.133C67.2479 46.1242 67.1633 46.1151 67.0763 46.1058C62.3202 45.5972 50.2241 44.3035 45.0133 33.7815C43.1637 30.0466 42.6649 20.7384 45.3937 13.8102C46.4702 11.0772 48.3175 8.34158 50.5291 6.19035C51.3674 5.37489 54.7236 2.66001 59.9695 1.21287C68.5627 -1.15767 80.8325 -0.524932 86.7417 7.39147C84.2429 6.19634 77.532 3.37582 72.1062 4.52315C75.1999 4.76217 82.7673 6.24414 83.0529 7.39147C80.7361 7.85689 75.1425 8.7006 70.4999 8.83271C63.9063 7.78805 60.3196 7.69737 56.8056 8.83271C56.3618 8.97609 58.0797 12.6792 60.5462 13.8102C63.0126 14.9411 69.4647 16.2833 77.4606 11.6939C77.8159 11.9532 78.595 11.9532 79.3094 11.9532C80.0239 11.9532 80.6737 11.9532 80.7705 12.2125C81.4845 14.1247 83.6718 17.2872 91.3822 15.2793C89.7164 13.3671 85.5255 10.9769 80.3163 10.9769L77.4606 11.2907C71.2733 13.6568 61.7543 17.067 58.0736 9.75446C59.4042 9.23897 62.6737 9.20303 64.6037 9.18416C69.1532 10.5674 73.1798 9.87735 76.6583 9.28119C77.6879 9.10473 78.6695 8.9365 79.6024 8.83271C83.8185 8.36362 85.3886 8.68998 86.7417 9.18416C88.2885 10.1403 92.0247 12.6979 94.5949 15.2793C96.2607 16.7135 101.024 19.3001 103.594 17.8659C103.654 18.3588 103.518 18.6139 103.355 18.919C103.197 19.2134 103.015 19.5545 102.96 20.201C104.672 24.564 101.685 30.3318 97.8075 31.4136C99.1164 28.9039 99.9493 23.956 92.8101 24.2429C89.2404 24.8404 83.1007 27.1829 87.0986 31.7722C87.7249 32.4911 93.2096 34.5688 97.1276 31.4136ZM69.232 68.5005V70.3541H69.2324V75.2974H71.08V75.297H76.0075V73.4435H71.08V72.5079H75.9939V71.1721H71.08V70.3541H76.0066V68.5005H69.232ZM52.3045 68.5011H54.1521V75.2976H52.3045V68.5011ZM56.6152 68.5007H58.4628V68.5008L61.5606 72.1736L64.6216 68.5444V68.5009H64.6583L64.6585 68.5007L64.6589 68.5009H66.4693V75.2974H64.6216V70.8095L61.5425 74.9883L61.5423 74.9869L61.5421 74.9883L58.4628 70.7738V75.2972H56.6152V68.5007ZM80.6983 68.5007H78.2348L81.2055 71.59L78.1714 75.2972H80.6349L82.7452 72.8258L84.7966 75.2972H87.568L84.2848 71.59L87.2601 68.5007H84.7966L82.7452 70.6632L80.6983 68.5007Z" fill="#045475"/>
<path fill-rule="evenodd" clip-rule="evenodd" d="M27.8432 65.955H34.6255L36.4103 63.0867H47.4762L48.904 65.955H56.0433L46.4053 47.6694H37.1243L27.8432 65.955ZM38.5522 58.4257H46.0484L42.4787 51.972L38.5522 58.4257ZM6.06837 47.6704H0L9.63799 65.956H16.4203L26.7722 47.6704H20.7038L13.5646 60.9364H12.4937L6.06837 47.6704ZM119.582 65.955H112.8L122.081 47.6694H131.362L141 65.955H133.861L132.433 63.0867H121.367L119.582 65.955ZM131.005 58.4257H123.509L127.435 51.972L131.005 58.4257ZM108.874 53.4062H103.162C103.162 52.2588 101.972 51.972 101.377 51.972H93.5242C92.0963 53.1193 92.9293 54.1232 93.5242 54.4818H103.162C108.588 54.4818 109.469 59.0233 109.231 61.2941C109.231 64.4492 107.327 65.716 106.375 65.9551H89.9546C87.3844 65.6682 86.9799 62.0111 87.0989 60.2184H92.4533C92.4533 61.0789 92.9293 61.7721 93.1672 62.0111H103.162C104.876 60.8638 103.876 59.1428 103.162 58.4257H92.4533C88.1698 58.1389 87.3368 54.9598 87.4558 53.4062C87.4558 49.1037 89.8356 48.0281 91.0255 48.0281H105.661C109.209 48.0281 108.995 51.4515 108.876 53.3708L108.874 53.4062ZM59.6128 65.9551V48.0281H79.6027C84.4574 50.8964 81.6255 55.6769 79.6027 57.7086C81.8873 58.856 81.9825 63.6843 81.7445 65.9551H76.39C76.39 62.0111 76.0331 61.2941 74.9622 61.2941H64.6103V65.9551H59.6128ZM74.9625 56.2744H64.9675V52.3304H74.9625C76.9615 53.1909 75.7954 55.3182 74.9625 56.2744Z" fill="#C0B450"/>
</svg>
